<?xml version="1.0" encoding="UTF-8"?>
<!DOCTYPE svg PUBLIC "-//W3C//DTD SVG 1.1//EN" "http://www.w3.org/Graphics/SVG/1.1/DTD/svg11.dtd">
<!-- Creator: CorelDRAW X7 -->
<svg xmlns="http://www.w3.org/2000/svg" xml:space="preserve" width="1063.85mm" height="452.182mm" version="1.1" style="shape-rendering:geometricPrecision; text-rendering:geometricPrecision; image-rendering:optimizeQuality; fill-rule:evenodd; clip-rule:evenodd"
viewBox="0 0 84572 35947"
 xmlns:xlink="http://www.w3.org/1999/xlink">
 <defs>
  <style type="text/css">
   <![CDATA[
    .fil3 {fill:none}
    .fil4 {fill:#FEFEFE}
    .fil0 {fill:#F8EC22}
    .fil1 {fill:#201E1E}
    .fil5 {fill:#070707}
    .fil6 {fill:#0D0D0D}
    .fil9 {fill:#2B2B2B}
    .fil10 {fill:#DFDFDF}
    .fil8 {fill:#FEFEFE}
    .fil2 {fill:#FF4FB6}
    .fil7 {fill:#FEFEFE;fill-rule:nonzero}
   ]]>
  </style>
   <clipPath id="id0">
    <path d="M0 94l84572 0 0 35853 -84572 0 0 -35853z"/>
   </clipPath>
 </defs>
 <g id="Capa_x0020_1">
  <metadata id="CorelCorpID_0Corel-Layer"/>
  <polygon class="fil0" points="0,94 84572,94 84572,35947 0,35947 "/>
  <g style="clip-path:url(#id0)">
   <g id="_875094080">
    <path id="1" class="fil1" d="M17456 22497l616 0 0 -411 615 0 0 -2667c0,-472 143,-615 616,-615 472,0 615,143 615,615l0 616 300 -49 726 -1387c29,1300 616,1767 616,3282l0 1026 410 0 0 1847c-575,905 347,2256 -821,2256 -460,0 -450,-162 -820,-410l0 410 -1026 0c-950,0 -1464,-668 -1305,-1310l-534 498 106 -178 -927 -448 -121 -951 934 -893 0 -1231z"/>
    <path class="fil1" d="M67514 22497l-616 0 0 -411 -615 0 0 -2667c0,-472 -143,-615 -616,-615 -472,0 -615,143 -615,615l0 616 -300 -49 -726 -1387c-29,1300 -615,1767 -615,3282l0 1026 -411 0 0 1847c575,905 -347,2256 821,2256 460,0 450,-162 821,-410l0 410 1025 0c950,0 1464,-668 1305,-1310l534 498 -106 -178 927 -448 122 -951 -935 -893 0 -1231z"/>
    <path class="fil2" d="M73258 35627l2136 -1042 -87 -220 9851 -995 0 -19490 -2596 521 -2709 -1963 -235 -610 -205 -3898 -957 174 -637 -999 -252 -2662c-460,-108 -472,-206 -1026,-206l-410 0c-79,0 -2589,746 -3488,821l998 -414 233 -817 0 -821 -228 -1845 -1820 -231c-2109,-291 -3424,1277 -4312,1871l-205 1231 205 18465 0 1231 935 893 -122 951 -927 448 106 178 -534 -498c159,642 -355,1310 -1305,1310l-1025 0 0 -410c-371,248 -361,410 -821,410 -1168,0 -246,-1351 -821,-2256l-9 791 -1427 439 -2282 1239 231 813c-928,680 -188,818 -1043,1420 -171,121 -1418,1042 -1421,1059l-7179 -632c-370,-248 -361,-411 -821,-411l-415 -52 -2922 314 -971 -1082 -2257 0 0 0 -2255 0 -971 1082 -2922 -314 -415 52c-460,0 -451,163 -821,411l-7179 632c-2,-17 -1250,-938 -1421,-1059 -855,-602 -115,-740 -1042,-1420l230 -813 -2282 -1238 -1427 -439 -9 -792c-575,905 347,2256 -821,2256 -460,0 -450,-162 -820,-410l0 410 -1026 0c-950,0 -1464,-668 -1305,-1310l-534 498 106 -178 -927 -448 -121 -951 934 -893 0 -1231 206 -18465 -206 -1231c-887,-594 -2203,-2162 -4312,-1871l-1820 231 -228 1846 0 820 234 817 997 414c-898,-75 -3409,-821 -3487,-821l-411 0c-554,0 -565,98 -1026,206l-252 2662 -636 999 -958 -174 -205 3898 -234 610 -2710 1963 -2595 -521 0 19490 9850 995 -87 220 2136 1042 3419 616 93 1160 1001 481 -957 50 -889 1181 821 0 0 410 15797 0c85,-3828 6603,-2462 10463,-2462 554,0 566,-98 1025,-205 459,107 471,205 1025,205 3860,0 10378,-1366 10463,2462l15798 0 0 -410 820 0 -889 -1181 -957 -50 1001 -481 93 -1160 3419 -616z"/>
   </g>
  </g>
  <polygon class="fil3" points="0,94 84572,94 84572,35947 0,35947 "/>
  <g id="_875134592">
   <path class="fil4" d="M76287 25918l-211 0 0 105 -212 0 0 -370 -53 0 0 370c65,98 355,318 476,318 143,0 146,-25 264,-53 -153,-210 -238,-53 -264,-370z"/>
   <path class="fil4" d="M78455 24119c145,276 698,846 1111,846l0 -317c-462,222 -633,-418 -1111,-529z"/>
   <path class="fil4" d="M78772 23696c-172,115 -476,214 -476,476 0,138 921,952 1164,952l159 0c414,0 -78,-1376 -108,-1496l-739 68z"/>
   <path class="fil4" d="M78455 24119c478,111 649,751 1111,529l0 317c-413,0 -966,-570 -1111,-846z"/>
   <path class="fil4" d="M75758 24965c0,338 -106,403 -106,741l0 212c0,307 367,529 635,529l53 0c320,0 785,-302 1033,-448 129,-75 823,-598 871,-610 -28,-333 -250,-970 -434,-1154 -161,-160 -703,-592 -994,-592 -204,0 -579,363 -668,496 -181,270 -188,525 -390,826z"/>
   <path class="fil4" d="M75811 26023l0 -370 53 0 0 370 212 0 0 -105 211 0c26,317 111,160 264,370 -118,28 -121,53 -264,53 -121,0 -411,-220 -476,-318z"/>
   <path class="fil4" d="M77239 20997c0,161 24,194 53,318 -206,306 -265,497 -265,1005l0 317c0,509 291,623 477,892l687 61 105 0c362,0 424,-663 572,-901l222 -2221 -106 0 0 -158c0,-189 -359,-318 -529,-318l-53 0c-255,0 -1163,845 -1163,1005z"/>
   <path class="fil4" d="M74489 21368l0 317c0,164 140,1186 189,1346 109,358 221,876 657,876l370 0c516,0 1164,-1468 1164,-2116l0 -688c-280,-101 -165,-476 -582,-476l-317 0c-524,0 -1481,266 -1481,741z"/>
   <path class="fil4" d="M75494 19251l0 582c0,134 219,265 317,265l740 0c195,0 256,-82 371,-159l317 0c188,-126 740,-473 740,-740 0,-576 -245,-836 -391,-1249 -82,-233 -634,-921 -772,-921l-212 0c-393,0 -574,635 -687,953 -120,336 -423,856 -423,1269z"/>
   <path class="fil4" d="M69571 18193l0 265c0,396 1422,741 1904,741 320,0 846,-359 846,-635l0 -318c0,-285 -199,-616 -317,-793 0,-694 -338,-866 -584,-1382l-210 59c-61,-83 -122,-159 -264,-159 -40,0 -797,810 -885,913 -243,283 -490,807 -490,1309z"/>
   <path class="fil4" d="M74912 16871c95,180 63,186 370,211l83 173c92,-154 76,30 76,-173 0,-57 -155,-211 -264,-211l-265 0z"/>
   <path class="fil4" d="M72797 17347l0 635c0,434 465,1798 740,1798l423 0c228,0 813,-953 985,-1184 409,-550 480,-765 655,-1514 -247,-369 -193,-370 -794,-370 -95,-64 -93,-106 -211,-106l-211 12 -529 -12c-370,6 -1058,375 -1058,741z"/>
   <path class="fil4" d="M74912 16871l265 0c109,0 264,154 264,211 0,203 16,19 -76,173l-83 -173c-307,-25 -275,-31 -370,-211z"/>
   <path class="fil4" d="M74436 15336c0,549 381,847 899,847l899 0c992,0 899,-1341 899,-2328l0 -317c0,-463 -419,-794 -899,-794l-53 0c-633,0 -1745,1707 -1745,2592z"/>
   <path class="fil4" d="M72004 15971c114,77 300,265 476,265 824,0 1017,-493 1533,-741 0,-738 216,-352 350,-920 79,-335 232,-676 232,-1037l0 -106c0,-459 -558,-953 -1005,-953l-159 0c-467,0 -818,1119 -1004,1482 -162,315 -138,676 -253,1017 -222,655 -170,227 -170,993z"/>
   <path class="fil4" d="M69360 12056c-298,444 -461,211 -529,1111 -37,484 -159,875 -159,1482 0,428 54,770 275,994 113,115 662,376 889,381 27,-331 342,-256 635,-369 148,-57 654,-372 687,-372l158 0c15,-176 952,-1120 952,-1904l0 -371c0,-311 -572,-1058 -846,-1058l-159 14 -1427 -14c-155,1 -142,106 -476,106z"/>
   <path class="fil4" d="M72141 11683l21 267c0,165 168,318 371,318l423 0c187,0 31,-106 423,-106 45,-67 211,-229 211,-265 0,-263 -748,-1322 -1163,-1322l-162 -1 -124 1109z"/>
   <path class="fil4" d="M73431 11950l-105 0c-52,-193 -601,-927 -899,-952 0,-765 998,664 1004,952z"/>
   <path class="fil4" d="M73960 10628c0,584 -3,1086 278,1415 273,318 467,754 991,754 19,0 507,-296 563,-337 189,-139 265,-348 410,-542 220,-296 614,-828 614,-1290l0 -106c0,-313 -442,-635 -740,-635 -79,0 -1060,246 -1145,283 -241,103 -723,391 -971,458z"/>
   <path class="fil4" d="M76181 10522c-9,-414 -168,-212 -264,-476l159 0c186,0 606,255 581,423l-59 475 -47 1 0 -529 -370 106z"/>
   <path class="fil4" d="M72427 10998c298,25 847,759 899,952l105 0c-6,-288 -1004,-1717 -1004,-952z"/>
   <path class="fil4" d="M76181 10522l370 -106 0 529 47 -1 59 -475c25,-168 -395,-423 -581,-423l-159 0c96,264 255,62 264,476z"/>
  </g>
  <g id="_875129984">
   <path class="fil5" d="M55552 684l1 882c0,406 165,-66 280,468l401 -807 317 -1133 -961 0 -38 590z"/>
   <path class="fil5" d="M59593 831c0,-239 38,-242 147,-367l0 734c0,279 -131,468 -294,588l0 -220c0,-256 147,-113 147,-368l0 -367zm-808 1102l0 147c0,103 170,514 367,514l147 0c431,0 735,-1406 735,-1910l-147 0 0 -220c0,-222 -87,-203 -268,-204l-159 199 -88 -215c-682,159 -587,839 -587,1689z"/>
   <path class="fil5" d="M60778 771c-15,205 -194,688 -262,983 -95,407 2,857 -47,1275 -92,781 -277,1470 -211,2225l290 -90 0 220 147 0c34,-416 770,-1308 901,-2675l-240 -115 0 -1249c-250,-101 -221,-464 -237,-830l-341 256z"/>
   <path class="fil5" d="M53202 2961l-17 295 94 1374 658 93c170,-114 1096,-1414 1073,-1616l29 -513 0 -955c0,-165 -58,-161 -127,-295l-94 -953c-616,164 -1017,2410 -1616,2570z"/>
   <path class="fil5" d="M56214 4797c136,-257 464,-779 808,-808l0 147c-400,107 -452,532 -808,661zm808 -881c25,-302 226,-341 441,-588l-156 511 -285 77zm-1028 220l73 1028c263,-29 579,-564 788,-754 130,-119 784,-513 1043,-638l79 -3014 -5 -455 -216 88 0 -294 -367 0c-9,418 -547,1619 -705,2012 -188,469 -306,520 -473,849 -104,206 -68,298 -68,593 0,267 -149,584 -149,585z"/>
   <path class="fil5" d="M58785 7294l514 -1763 0 294c0,674 -202,1110 -514,1469zm147 -1689c0,-423 379,-1830 587,-1983l-55 1323c-491,-101 -243,244 -532,660zm-661 1175c-159,236 -221,410 -221,808l0 587c1553,-361 1537,-3303 1690,-5141 -390,33 -459,365 -577,672 -164,426 -402,505 -495,827 -208,716 -397,1338 -397,2247z"/>
   <path class="fil5" d="M51219 9130l0 -367 221 0c-10,445 56,241 -221,367zm808 -2424l221 0c-25,293 -30,240 -221,368l0 -368zm-457 -2714c196,62 237,82 237,364l0 294 -138 -1 -99 -657zm-498 5285c1042,0 1469,-1591 1469,-2644l0 -808c0,-1443 -608,-1382 -808,-2130l-220 0c-51,221 -185,1161 -263,1280 -294,446 -165,709 -175,1367 -14,988 -3,1858 -3,2935z"/>
   <path class="fil5" d="M59136 11111l-131 2 0 -1249c0,-467 229,-1298 401,-1546l-270 2793zm824 -2128c0,-784 -32,-1662 294,-2130 0,501 -86,1891 -294,2130zm-294 2350c97,-1162 955,-2303 955,-3525l0 -1763c-578,49 -851,1194 -1124,1741 -355,710 -639,1161 -639,2225l0 1396 221 0 0 -147 147 0 0 220 220 0 0 -147 220 0z"/>
   <path class="fil5" d="M53790 7074l74 0 0 734c0,196 106,217 220,294l0 147 93 658 -167 3c-32,-396 -220,-536 -220,-955l0 -881zm661 -1543c149,109 220,169 220,441l0 587 -220 -73 0 -955zm0 4113c342,-229 286,-465 350,-899 67,-456 238,-729 238,-937l0 -1763 -222 -69 -249 -1098 -190 -8 -93 880 -54 2 0 -514 -221 0 0 220c0,530 -367,1055 -367,1836l0 734c0,733 505,1050 514,1469l294 147z"/>
   <path class="fil5" d="M56214 10452l0 -514c184,212 441,1380 441,1836 -104,-120 -441,-1121 -441,-1322zm808 -1616l0 2056 -147 0 0 -1101c0,-644 -220,-1038 -220,-1469 0,-142 23,-131 73,-220 134,98 294,510 294,734zm125 -955l22 -1175c0,-603 -614,-613 -661,-1175l-367 76 0 218c0,766 -383,1432 -294,2277l281 2637 336 1173 191 9c329,0 514,-946 514,-1322l-22 -1689 0 -1029z"/>
   <path class="fil5" d="M48869 11627c536,-194 783,-858 898,-1526 63,-367 497,-1575 497,-1852l0 -735c0,-435 -89,-1008 -440,-1101l-807 1438 -75 -43 0 1763 -74 1621 -87 9 147 147 -59 279z"/>
   <path class="fil5" d="M50925 11186c37,-442 789,-1259 1102,-1469 -73,315 -863,1309 -1102,1469zm2171 -2226c25,389 -426,978 -729,1032l729 -1032zm-2758 3328c708,-16 1650,-1238 2038,-1708 605,-734 1047,-1371 1047,-2699l-352 184c-131,396 -1161,1517 -1503,1855 -322,319 -1230,1662 -1230,2148l0 220z"/>
   <path class="fil5" d="M54938 10025l-204 -54c-122,56 -2425,2243 -1605,2243l294 0 365 -297 89 219 462 -154 599 -1957z"/>
  </g>
  <path class="fil4" d="M5020 24570l-294 -84 0 421 -37 -1 -47 -378c-20,-133 314,-337 463,-337l126 0c-76,211 -203,49 -211,379zm2989 379c-238,20 -675,605 -716,758l-84 0c5,-229 800,-1367 800,-758zm-2989 -379c8,-330 135,-168 211,-379l-126 0c-149,0 -483,204 -463,337l47 378 37 1 0 -421 294 84zm1768 84c0,465 3,865 -221,1127 -217,253 -371,600 -789,600 -15,0 -403,-236 -448,-268 -150,-111 -211,-277 -326,-432 -175,-235 -489,-659 -489,-1027l0 -84c0,-249 352,-505 590,-505 62,0 843,196 911,225 192,82 575,312 772,364zm421 1053l84 0c41,-153 478,-738 716,-758 0,-609 -795,529 -800,758zm1027 -212l-17 212c0,131 -133,253 -294,253l-337 0c-149,0 -25,-84 -337,-84 -35,-54 -168,-183 -168,-211 0,-210 595,-1053 926,-1053l129 0 98 883zm2214 296c237,354 367,168 421,885 29,385 127,696 127,1179 0,341 -43,614 -219,792 -90,91 -527,299 -707,303 -22,-264 -273,-204 -507,-294 -117,-45 -519,-296 -546,-296l-126 0c-12,-140 -758,-892 -758,-1516l0 -295c0,-248 456,-842 674,-842l126 11 1137 -11c123,1 112,84 378,84zm-2104 3117c-91,61 -239,210 -379,210 -656,0 -810,-392 -1221,-589 0,-588 -171,-280 -278,-733 -63,-266 -185,-538 -185,-825l0 -85c0,-365 444,-758 800,-758l126 0c372,0 652,891 800,1179 129,251 109,539 201,810 177,521 136,181 136,791zm-1937 -506c0,437 -303,674 -715,674l-716 0c-789,0 -715,-1067 -715,-1853l0 -252c0,-369 334,-632 715,-632l42 0c505,0 1389,1359 1389,2063zm-378 1222l-211 0c-87,0 -210,123 -210,168 0,161 -13,16 60,138l66 -138c245,-20 219,-25 295,-168zm1683 379l0 505c0,346 -370,1432 -589,1432l-337 0c-181,0 -647,-759 -783,-943 -326,-438 -383,-609 -522,-1205 197,-293 153,-295 632,-295 76,-51 74,-84 168,-84l168 10 421 -10c295,5 842,299 842,590zm-1683 -379c-76,143 -50,148 -295,168l-66 138c-73,-122 -60,23 -60,-138 0,-45 123,-168 210,-168l211 0zm4251 1053l0 210c0,315 -1132,590 -1515,590 -255,0 -674,-285 -674,-506l0 -252c0,-228 158,-491 253,-632 0,-552 268,-689 464,-1100l167 47c49,-66 98,-126 211,-126 31,0 634,645 704,727 193,225 390,642 390,1042zm-6819 -337c0,447 -276,639 -421,968 -71,161 -550,756 -632,742l-294 16c-133,4 -716,-1041 -716,-1305l0 -337c0,-473 129,-548 590,-548 76,-50 74,-84 168,-84l674 0c240,0 631,381 631,548zm2105 1179l0 463c0,106 -175,211 -253,211l-589 0c-155,0 -204,-66 -295,-127l-252 0c-150,-100 -590,-376 -590,-589 0,-458 195,-666 312,-994 65,-185 504,-733 614,-733l169 0c313,0 457,505 547,758 95,268 337,682 337,1011zm799 1684l0 253c0,131 -111,944 -150,1071 -87,285 -176,698 -523,698l-295 0c-410,0 -926,-1168 -926,-1685l0 -547c223,-81 132,-379 463,-379l253 0c416,0 1178,211 1178,589zm-2188 -294c0,128 -20,154 -43,252 164,244 211,396 211,800l0 253c0,405 -232,496 -380,709l-546 49 -84 0c-288,0 -337,-527 -456,-716l-176 -1769 84 0 0 -126c0,-150 286,-253 421,-253l42 0c204,0 927,673 927,801zm-1937 -211l3 119 124 49c0,328 252,498 252,885l0 589c0,171 -535,674 -800,674l-84 0c-262,0 -306,-49 -468,-121 -131,-57 -390,-55 -546,-85 -279,-56 -628,-283 -628,-594l0 -210c0,-530 36,-1054 181,-1462 241,-677 240,-562 956,-728 175,365 1010,720 1010,884zm1246 3249c68,-196 156,-382 236,-461 128,-127 560,-472 791,-472 162,0 461,290 532,395 119,178 144,348 240,538l-1799 0zm-278 -554c-380,89 -516,598 -884,421l0 133 -173 0c6,-329 200,-878 217,-945l588 55c137,91 379,170 379,378 0,65 -254,316 -502,512l-168 0c240,-150 465,-405 543,-554zm0 0c-78,149 -303,404 -543,554l-341 0 0 -133c368,177 504,-332 884,-421z"/>
  <path class="fil5" d="M14012 11742l429 -520c-39,166 -275,479 -429,520zm-520 -765c33,23 153,111 153,153 0,85 -24,74 -92,92l0 -122 -61 0 0 -123zm980 -183c90,7 153,40 153,122 0,95 -90,203 -153,245 25,-107 61,-103 61,-214 0,-16 -50,-132 -61,-153zm-1666 -76l12 657c-71,-81 -123,-221 -123,-367l0 -306c0,-82 44,-91 92,-123l132 9 -113 130zm-264 76l0 214c0,160 199,609 253,880 38,189 237,874 237,925l0 429 153 0c19,-221 299,-354 417,-533 134,-202 270,-382 390,-590 138,-239 786,-944 786,-1172l0 -62c0,-103 -137,-244 -276,-244l-92 0c-390,0 -494,196 -704,336 -136,-203 -507,-551 -827,-551l-123 0c-132,0 -214,219 -214,368zm-3007 2224c-23,115 -99,171 -178,224l1 -120 177 -104zm-1099 -1428c177,40 356,139 400,305l-196 -106 -109 -17 -95 -182zm1631 59l-38 -151 123 34 1 241c0,100 -16,101 -61,153l-25 -277zm-2058 -213l214 33c-33,121 -8,86 -153,90l-61 61 0 -184zm-153 61l0 123c0,306 370,1015 490,1254 97,192 144,446 218,670 79,240 265,444 303,585l183 0 0 -122c142,-38 237,-349 331,-497 123,-194 271,-312 374,-483 121,-200 520,-923 520,-1193l0 -306c0,-99 -242,-245 -306,-245l-367 0c-306,0 -431,327 -490,582 -173,-46 -528,-582 -1072,-582l-31 0c-99,0 -153,111 -153,214zm1317 3917l0 -398c683,0 976,827 1011,827 111,0 435,-459 582,-459l183 0c106,0 119,22 215,30 16,69 30,71 30,153l0 61c0,300 -1337,1474 -1654,1500 -59,-255 -130,-581 -202,-839 -83,-299 -165,-500 -165,-875zm-153 -428l0 581c0,371 139,595 226,876 57,182 80,868 233,868l61 0c322,0 1808,-1312 1808,-1621l0 -184c0,-249 -370,-360 -602,-295 -229,64 -353,339 -532,387 -154,-322 -585,-765 -1041,-765 -72,0 -153,81 -153,153zm4962 -826c0,-83 14,-85 30,-153l92 0c326,0 881,292 950,550 100,-73 134,-187 306,-306 94,-65 262,-214 398,-214l92 0c0,518 -543,1303 -772,1647 -98,147 -964,1384 -1004,1413l-113 -2049 21 -888zm-153 61l8 1223 83 1653 2 486 121 34c89,-185 84,-261 204,-469 88,-152 171,-262 268,-405 182,-269 363,-531 557,-791 209,-280 361,-505 534,-812 85,-152 397,-753 397,-950l0 -183c0,-94 -89,-123 -184,-123l-122 0c-175,0 -567,367 -613,367 -38,0 -596,-397 -919,-397l-122 0c-132,0 -214,219 -214,367zm-184 8017l-184 -1346 0 -214c0,-112 36,-108 61,-215 275,6 402,183 460,398l153 0c35,-149 274,-490 429,-490l214 0c71,0 92,22 92,92l0 92c0,86 -441,826 -515,924 -100,134 -258,217 -381,353 -82,90 -264,358 -329,406zm429 -1591c-119,-79 -168,-337 -460,-337l-122 0c-120,0 -215,322 -215,459l0 62c0,369 215,727 215,1009l0 827c197,-53 293,-337 416,-503 141,-190 300,-320 464,-484 136,-136 682,-984 682,-1186l0 -31c0,-148 -97,-245 -245,-245l-153 0c-274,0 -526,217 -582,429zm-3063 336c0,172 19,323 183,337l-122 153c-17,-206 -250,-439 -61,-490zm-522 -489l122 34c53,189 155,65 155,211 0,41 -34,46 -46,49l-231 -294zm903 -698l47 -6 0 123c0,148 -77,137 -91,305l-92 -91 136 -331zm-1239 -37l459 0c174,0 389,239 490,276l0 122 -61 0c-62,-234 -417,-336 -735,-336 -114,0 -178,47 -245,92 0,-99 -8,-154 92,-154zm2328 -336c0,-108 -89,-96 -153,-184l213 65 1 149c0,68 -115,202 -153,245 15,-178 92,-148 92,-245l0 -30zm-1317 459c-228,-152 -351,-275 -735,-275l-184 0c-199,0 -337,77 -337,275l0 153c0,264 463,564 635,773 53,64 260,345 295,409 82,148 105,501 234,501l122 0 0 -149 215 27c4,-179 1286,-1924 1286,-2112l0 -184c0,-103 -252,-244 -367,-244l-153 0c-808,0 -764,645 -1011,826zm-3798 3488c0,-108 12,-306 122,-306l184 0c179,0 414,130 555,181 115,42 187,18 279,88 66,49 116,160 207,160 95,0 309,-168 337,-245l399 0 0 92c0,352 -1096,1438 -1287,1438 -86,0 -372,-574 -430,-672 -101,-174 -366,-468 -366,-736zm-153 -61c0,397 273,697 428,979 66,119 173,305 257,448 76,129 181,409 295,440l0 -123c0,-142 1409,-1100 1409,-1683l0 -275 -399 0c-221,0 -335,133 -490,214 -215,-144 -700,-398 -1041,-398l-276 0c-133,0 -183,263 -183,398zm3920 765c0,-94 90,-122 184,-122l31 0c644,0 588,520 704,520 98,0 337,-306 643,-306l61 0c71,0 92,21 92,92l0 92c0,274 -853,845 -1084,997 -387,256 -413,425 -447,-80 -17,-257 -184,-531 -184,-826l0 -367zm-122 -92l0 674c0,254 89,297 130,543 23,136 53,487 53,650 56,37 54,61 123,61l92 0 0 -183c236,-20 1623,-1042 1623,-1377l0 -123c0,-99 -133,-183 -245,-183l-153 0c-238,0 -392,170 -551,183 -56,-237 -430,-428 -705,-428l-61 0c-138,0 -306,58 -306,183zm-1716 2295c0,362 -668,1322 -888,1469 -161,-118 -368,-597 -508,-808 -182,-273 -432,-441 -441,-875 416,0 834,459 1072,459l30 0c105,0 419,-433 735,-459l0 214zm154 -367l-215 0c-265,0 -621,459 -735,459 -157,0 -606,-489 -1133,-489 -37,55 -62,53 -62,122l0 61c0,515 254,656 460,948 79,112 205,308 251,453 55,173 168,253 270,405l-66 88 280 3c80,-343 950,-998 950,-1713l0 -337zm2297 3305c76,-144 113,-302 306,-306 -50,74 -219,283 -306,306zm-337 -367c0,-132 -36,-166 -61,-276l121 35 1 149c0,102 61,64 61,122 0,116 -20,58 -30,184 -69,-18 -92,-7 -92,-92l0 -122zm1256 -1194c22,-87 41,-82 153,-91l0 91 -153 0zm-705 215c-41,0 -432,-510 -459,-612 291,77 302,512 643,520 -46,62 -70,92 -184,92zm-367 1713c70,0 799,-784 911,-895 169,-167 651,-841 651,-1124l0 -123c0,-94 -90,-122 -184,-122l-184 0c-316,0 -497,306 -704,306 -80,0 -308,-582 -827,-582l-154 0c-240,0 -306,220 -306,459l0 184c0,220 263,681 358,867 62,123 224,802 224,969 53,25 136,61 215,61zm-5299 -979c86,0 118,70 153,122l-276 0c17,-70 32,-122 123,-122zm857 2264c0,-408 858,-1389 858,-2142l0 -91c0,-71 -21,-92 -92,-92l-337 0c-178,0 -247,153 -367,153 -114,0 -353,-140 -459,-185 -94,-40 -401,-60 -552,-60 -68,0 -215,219 -215,337l0 214c0,687 639,1253 797,1928l154 -23 -1 114 214 -153z"/>
  <g id="_875104224">
   <path class="fil2" d="M70793 6748l-812 -218c-374,-100 101,-136 -363,-374l843 -170 1178 -13 102 160 -126 780 -822 -165z"/>
   <path class="fil2" d="M71655 2989c221,59 232,24 375,-45l-677 -181c-256,-69 -464,4 -614,125l203 55c235,63 140,-108 375,-45l338 91zm-1215 472l-135 -36c-95,-26 -432,-284 -383,-465l36 -136c107,-397 1477,-329 1941,-205l-36 135 203 55c205,54 166,129 122,297l-223 97 177 134c-315,590 -919,334 -1702,124z"/>
   <path class="fil2" d="M72003 1911c-192,-37 -682,9 -970,0 -399,-13 -789,-214 -1187,-273 -742,-108 -1423,-108 -2102,-354l154 -245 -203 -55 36 -135c393,71 1397,-387 2688,-170l47 250 1151 308c31,255 373,318 706,424l-320 250z"/>
   <path class="fil2" d="M68115 8351l-276 -57 -1244 -425 77 -630c147,-129 1574,-661 1754,-589l480 100 880 236c152,40 134,93 241,189l855 322c-304,527 -2472,342 -2767,854z"/>
   <path class="fil2" d="M67166 5123c271,-62 833,-235 944,-545l-135 -36c-197,341 -602,285 -809,581zm1012 -527c284,51 369,-124 650,-261l-509 17 -141 244zm-457 893l-929 -321c91,-235 662,-395 890,-540 141,-91 666,-596 845,-804l2797 672 417 117 -133 177 270 72 -90 338c-388,-94 -1628,105 -2029,153 -478,58 -555,154 -899,226 -215,45 -291,-10 -563,-83 -246,-66 -575,-7 -576,-7z"/>
   <path class="fil2" d="M65500 2137l1751 -38 -270 -73c-621,-166 -1072,-88 -1481,111zm1593 282c390,105 1780,103 1972,-52l-1232 -276c-28,478 -285,164 -740,328zm-1246 319c-257,88 -432,102 -799,4l-541 -145c716,-1342 3423,-601 5154,-288 -126,351 -449,333 -761,366 -433,46 -564,246 -884,252 -712,15 -1332,35 -2169,-189z"/>
   <path class="fil2" d="M61941 8656l338 90 54 -203c-413,-101 -208,-112 -392,113zm2432 -147l55 -203c-276,-49 -228,-31 -393,113l338 90zm2389 1092c-9,-196 -17,-238 -278,-308l-270 -73 -33 128 581 253zm-4993 -846c257,-960 1828,-961 2799,-701l744 199c1330,357 1124,902 1763,1271l-54 203c-216,-7 -1115,-117 -1244,-74 -484,161 -694,-22 -1303,-176 -914,-231 -1713,-456 -2705,-722z"/>
   <path class="fil2" d="M62070 871l-34 120 1150 309c431,115 1253,110 1524,12l-2640 -441zm2164 -234c723,194 1523,440 2035,256 -461,-124 -1763,-388 -2035,-256zm-2238 -309c1094,198 2358,-311 3484,-10l1624 436c-187,520 -1310,489 -1881,606 -742,152 -1227,302 -2208,39l-1286 -345 54 -203 136 37 36 -136 -203 -54 54 -203 136 36 54 -203z"/>
   <path class="fil2" d="M64470 6794l18 -67 -676 -182c-181,-48 -174,-151 -217,-275l-135 -37 -584 -248 -43 153c356,128 439,335 825,439l812 217zm1584 -228c-63,-164 -100,-245 -351,-312l-542 -145 14 221 879 236zm-3789 -1015c295,-259 499,-149 914,-101 437,51 731,-39 923,12l1624 436 9 221 950 501 -40 177 -833 -132 -15 50 474 127 -55 203 -203 -55c-488,-131 -1062,78 -1782,-115l-677 -181c-675,-181 -843,-724 -1226,-836l-63 -307z"/>
   <path class="fil2" d="M61956 3727l473 127c-149,-222 -1163,-747 -1583,-860 85,125 924,683 1110,733zm1688 -346l-1895 -508 -36 136 1015 272c593,159 902,459 1299,565 131,35 126,11 221,-13 -57,-147 -397,-396 -604,-452zm911 120l1088 271c555,148 414,717 919,899l-160 319 -201 -53c-706,-189 -1414,-1 -2171,-292l-2360 -910 -998 -599 39 -178c81,-304 998,-240 1345,-147l1551 436 948 254z"/>
   <path class="fil2" d="M59059 10205c311,-446 984,-510 1628,-451 353,33 1574,-69 1830,-1l677 181c401,108 906,332 906,678l-1525 388 21 80 -1624 -435 -1513 -332 -29 78 -99 -171 -272 -15z"/>
   <path class="fil2" d="M59973 8419c417,75 1355,-416 1626,-653 -309,-10 -1419,472 -1626,653zm2588 -1451c-353,-119 -1006,151 -1131,417l1131 -417zm-3748 1720c189,-649 1548,-1215 2077,-1456 826,-376 1522,-626 2745,-299l-256 280c-397,22 -1684,695 -2080,926 -374,218 -1836,723 -2283,603l-203 -54z"/>
   <path class="fil2" d="M62034 5007l-1 202c-81,99 -2666,1681 -2463,925l72 -271 364 -262 -179 -137 255 -387 1952 -70z"/>
  </g>
  <path class="fil6" d="M13922 35947c-413,-387 -2462,-1194 -3031,-1194 -222,0 -289,67 -289,289 0,171 144,158 289,192l-115 283 389 311 1870 119 887 0zm13642 -327c-1206,0 -2677,-674 -3566,-674l-1831 0c-320,0 -361,276 -386,577 631,147 1087,299 1559,424l4799 0c52,-40 86,-84 100,-134l-290 0c-216,0 -211,-77 -385,-193zm-7903 -964c1112,0 3058,-242 3759,-578l18 -112 -1360 -223 -779 45 0 -193 -6264 0c19,866 1248,734 2000,892 583,123 1868,169 2626,169zm-2795 193c-1680,-392 -4038,-1638 -5686,-1638l-578 0c65,598 1938,1152 2516,1338 1097,354 1734,588 3170,588 -270,369 -1449,154 -1831,676l1023 134 5224 0 786 -62 2 -265 -482 0 0 -193 -385 0 -3272 -337 -487 47 0 -288zm2313 -2024c-1405,-328 -1850,-483 -3662,-483 -1442,0 -2577,-96 -3952,-96 261,720 4389,965 5590,965l868 0c485,0 1049,14 1156,-386z"/>
  <g id="_875142816">
   <path class="fil7" d="M62046 30206c28,23 39,53 31,89 -7,36 -22,74 -46,111 -26,43 -51,80 -74,111 -23,30 -47,59 -71,87 -47,52 -95,100 -146,146 -52,47 -110,91 -176,134 -107,72 -219,109 -334,109 -38,0 -73,-4 -104,-10 -61,-13 -112,-41 -152,-83 -40,-42 -68,-94 -83,-157 -13,-56 -19,-113 -17,-171 1,-58 7,-114 17,-170 18,-108 39,-212 63,-315 24,-102 52,-205 83,-309 31,-104 66,-206 105,-307 39,-100 83,-200 133,-299 26,-56 63,-108 111,-156 48,-48 102,-71 163,-71 13,1 27,4 41,8 14,4 26,11 36,21 21,22 32,46 32,74 0,23 -5,44 -16,62 -11,18 -22,35 -34,50l-44 67c-36,56 -68,112 -94,170 -26,58 -51,117 -74,178 -48,137 -91,278 -130,423 -39,145 -67,285 -85,418 -7,42 -11,82 -13,123 -1,40 -1,76 3,107 3,27 12,49 26,67 14,18 35,27 65,27 25,0 52,-5 82,-17 29,-11 60,-27 91,-47 32,-20 62,-42 92,-67 30,-24 58,-49 84,-74 54,-53 103,-100 146,-143 43,-43 85,-88 126,-134 28,-31 56,-53 83,-64 27,-12 54,-8 80,12zm814 116c-16,33 -33,66 -49,99 -17,33 -33,67 -50,102 -11,23 -19,49 -22,78 -3,29 4,52 22,70 12,12 25,19 41,21 16,3 30,4 43,4 32,0 62,-3 92,-9 30,-6 60,-13 91,-23 23,-8 47,-16 72,-21 25,-6 44,-2 57,13 8,14 12,29 11,46 -1,17 -8,33 -23,46 -47,38 -94,67 -143,88 -48,20 -103,31 -164,33 -58,2 -111,-9 -158,-32 -48,-23 -91,-54 -129,-92 -18,-18 -37,-41 -56,-70 -19,-29 -35,-58 -48,-88 -23,18 -41,33 -53,43 -12,11 -27,22 -43,34 -28,20 -56,39 -85,57 -28,18 -57,35 -89,52 -51,26 -101,40 -150,40 -50,1 -99,-19 -146,-60 -48,-43 -75,-90 -81,-140 -6,-50 0,-102 16,-155 27,-77 61,-149 103,-215 42,-66 89,-125 142,-178 60,-59 124,-110 194,-153 70,-43 148,-66 232,-70 43,0 83,5 121,13 38,8 69,24 94,47 25,21 40,48 47,81 6,33 20,62 42,87 21,25 42,51 62,79 23,38 34,69 32,93 -2,24 -10,51 -25,80zm-809 277c12,7 24,8 36,3 13,-5 23,-10 31,-15 45,-28 87,-58 127,-90 41,-32 80,-67 118,-103 33,-31 65,-63 95,-94 31,-31 61,-63 90,-96 17,-17 28,-35 33,-54 5,-19 0,-35 -15,-50 -20,-25 -51,-28 -94,-10 -91,39 -171,93 -240,161 -76,74 -139,165 -191,274 -5,10 -7,23 -8,39 -1,15 5,27 18,35zm2754 -259c-4,24 -14,41 -31,50 -18,9 -40,15 -66,16 -20,2 -37,3 -53,4 -16,1 -31,2 -46,4 -30,3 -59,8 -88,14 -29,5 -57,12 -85,21 -23,8 -46,17 -69,27 -23,10 -46,21 -67,34 -13,9 -26,17 -37,25 -12,8 -23,17 -35,25 -15,64 -27,124 -37,178 -10,54 -18,106 -26,156 -7,49 -14,98 -20,145 -5,47 -10,95 -13,144 -5,63 -8,126 -8,189 0,64 5,130 15,197 3,27 11,48 22,64 12,17 28,25 50,25 18,0 35,-8 52,-25 11,-13 22,-26 31,-39 9,-13 18,-27 28,-42 7,-8 15,-18 25,-30 10,-11 24,-13 42,-5 18,8 27,21 27,39 0,17 -2,35 -7,53 -12,43 -26,85 -44,126 -17,41 -40,80 -68,116 -36,46 -81,69 -136,69 -38,0 -72,-9 -104,-29 -47,-32 -83,-71 -107,-118 -24,-47 -42,-99 -53,-157 -23,-109 -38,-216 -44,-323 -5,-106 -7,-214 -3,-323 1,-39 4,-86 7,-141 3,-54 7,-98 10,-133 -33,2 -61,3 -84,4 -23,0 -49,0 -77,-2 -66,-3 -120,-24 -163,-64 -35,-33 -45,-68 -32,-104 6,-15 16,-25 28,-32 13,-7 25,-12 39,-15 42,-13 85,-25 128,-36 43,-10 86,-22 129,-36 18,-5 34,-9 47,-13 13,-4 29,-10 47,-16 5,-22 9,-39 12,-52 4,-13 7,-28 10,-45 13,-53 26,-104 38,-154 13,-51 26,-102 39,-155 28,-112 60,-219 96,-322 37,-102 79,-207 129,-316 33,-69 70,-136 111,-199 41,-64 88,-124 141,-180 93,-97 189,-145 290,-143 24,2 50,5 78,10 27,5 53,13 77,24 24,12 42,29 55,51 13,22 19,48 17,76 -3,43 -12,84 -27,125 -15,40 -35,80 -59,120 -7,9 -17,14 -30,14 -13,0 -21,-3 -25,-9 -8,-14 -16,-26 -23,-38 -8,-11 -16,-24 -24,-37 -10,-11 -26,-17 -49,-17 -23,0 -45,9 -65,26 -19,17 -38,40 -56,68 -43,69 -81,137 -114,204 -33,67 -65,136 -94,207 -33,77 -62,154 -87,231 -25,77 -48,157 -72,241 -5,17 -9,33 -13,51 -4,17 -7,35 -9,53 15,-2 34,-3 57,-4 23,-1 47,-2 71,-3 23,-2 47,-3 69,-3 22,0 41,0 58,0 38,2 74,5 108,10 33,5 64,12 92,20 20,6 38,20 55,39 16,20 23,42 20,65zm148 433c-74,0 -136,-25 -187,-73 -50,-49 -79,-109 -85,-180 -5,-69 7,-145 37,-227 30,-83 74,-159 134,-230 52,-63 117,-115 194,-157 76,-43 155,-64 236,-64 43,0 84,9 124,26 39,18 76,45 109,83 39,45 61,98 66,159 4,39 0,78 -10,116 -14,63 -44,126 -87,190 -44,65 -95,123 -154,176 -58,53 -121,96 -187,130 -66,34 -129,51 -190,51zm-15 -218c56,0 106,-12 150,-37 43,-25 84,-57 122,-97 35,-34 64,-74 88,-118 24,-45 33,-91 26,-139 -3,-18 -14,-34 -33,-47 -19,-13 -36,-16 -51,-10 -45,18 -87,41 -126,67 -40,26 -80,54 -121,82 -85,57 -127,136 -127,237 0,18 8,33 23,45 14,11 31,17 49,17zm1207 -346c-23,57 -47,116 -71,175 -25,60 -50,118 -75,176 -18,44 -37,88 -57,131 -19,43 -42,87 -66,134 -9,16 -19,28 -31,34 -13,7 -25,11 -39,13 -33,0 -60,-12 -82,-36 -23,-24 -38,-48 -46,-71 -15,-48 -22,-94 -20,-138 2,-45 8,-91 20,-139 18,-77 38,-153 60,-226 23,-74 48,-147 76,-219 23,-58 54,-104 94,-139 49,-39 115,-59 198,-59 43,0 78,4 106,12 28,9 55,14 79,18 48,3 91,17 130,40 39,24 72,54 100,88 23,28 45,56 65,82 19,26 38,53 57,82 4,8 6,17 3,28 -2,11 -8,20 -16,28 -23,20 -46,30 -69,30 -13,0 -28,-4 -45,-11 -16,-7 -31,-15 -44,-24 -22,-13 -43,-27 -66,-43 -22,-15 -47,-32 -75,-51 -12,-8 -24,-16 -37,-24 -13,-9 -27,-13 -40,-13 -21,0 -41,13 -58,37 -17,25 -34,53 -51,85zm1173 -265c49,-20 95,-30 136,-30 51,0 101,11 148,32 28,14 50,31 66,54 16,22 28,49 36,82 10,43 16,80 20,111 3,30 7,64 12,102 21,-13 39,-26 52,-38 13,-13 26,-27 39,-43 33,-40 65,-70 96,-91 30,-20 64,-31 102,-31 27,0 54,4 82,13 28,8 51,20 69,37 28,20 45,42 51,67 6,24 9,51 9,79 -2,34 -3,69 -4,104 -1,34 -1,69 -1,104 0,26 11,46 33,59 22,13 45,16 68,7 53,-18 98,-37 136,-58 38,-20 76,-45 114,-73 18,-13 37,-23 56,-31 19,-7 37,-2 55,16 28,33 30,70 5,112 -21,38 -46,74 -73,110 -27,35 -57,68 -90,97 -38,33 -79,60 -124,80 -44,19 -89,29 -133,29 -47,0 -91,-9 -135,-28 -44,-19 -80,-48 -108,-85 -23,-32 -43,-63 -62,-94 -18,-32 -34,-63 -49,-94 -13,-27 -32,-41 -57,-43 -25,-1 -46,7 -64,25 -33,33 -65,65 -96,97 -30,31 -61,62 -92,94 -10,10 -25,20 -44,31 -19,10 -35,16 -50,16 -40,0 -73,-15 -99,-45 -40,-44 -55,-98 -47,-161 3,-24 8,-53 15,-86 6,-33 10,-65 11,-95 1,-31 -3,-57 -10,-80 -8,-22 -24,-34 -51,-35 -28,-4 -53,2 -74,17 -22,15 -44,34 -67,57 -23,23 -46,48 -68,75 -22,27 -43,53 -63,78 -33,43 -66,85 -98,126 -32,42 -64,84 -97,126 -25,33 -52,59 -82,76 -30,17 -62,19 -97,6 -47,-18 -81,-47 -100,-85 -19,-39 -25,-81 -18,-128 8,-89 24,-174 49,-254 25,-81 55,-159 92,-233 28,-58 56,-111 85,-160 29,-48 62,-97 98,-147 13,-18 27,-32 43,-42 16,-10 35,-15 58,-15 30,0 60,8 89,23 30,14 49,36 57,64 8,23 13,47 13,73 0,25 1,55 4,88 27,-10 53,-20 80,-31 26,-11 51,-21 74,-31zm2241 378c-16,33 -33,66 -49,99 -17,33 -33,67 -50,102 -11,23 -19,49 -22,78 -3,29 4,52 22,70 12,12 25,19 41,21 16,3 30,4 43,4 32,0 62,-3 92,-9 29,-6 60,-13 91,-23 23,-8 47,-16 72,-21 25,-6 44,-2 57,13 8,14 12,29 11,46 -1,17 -9,33 -23,46 -47,38 -94,67 -143,88 -48,20 -103,31 -164,33 -58,2 -111,-9 -159,-32 -47,-23 -90,-54 -128,-92 -18,-18 -37,-41 -56,-70 -19,-29 -35,-58 -48,-88 -23,18 -41,33 -53,43 -13,11 -27,22 -44,34 -28,20 -56,39 -84,57 -28,18 -57,35 -89,52 -51,26 -101,40 -151,40 -49,1 -98,-19 -146,-60 -47,-43 -74,-90 -80,-140 -6,-50 0,-102 16,-155 27,-77 61,-149 103,-215 42,-66 89,-125 142,-178 59,-59 124,-110 194,-153 70,-43 147,-66 232,-70 42,0 83,5 121,13 38,8 69,24 94,47 24,21 40,48 47,81 6,33 20,62 42,87 21,25 42,51 62,79 23,38 33,69 32,93 -2,24 -10,51 -25,80zm-809 277c12,7 24,8 36,3 12,-5 23,-10 31,-15 44,-28 87,-58 127,-90 41,-32 80,-67 118,-103 33,-31 65,-63 95,-94 31,-31 61,-63 90,-96 17,-17 28,-35 33,-54 4,-19 0,-35 -15,-50 -20,-25 -51,-28 -94,-10 -91,39 -171,93 -240,161 -76,74 -140,165 -191,274 -5,10 -8,23 -8,39 -1,15 5,27 18,35zm2469 -596c40,-105 77,-207 113,-304 35,-97 72,-194 110,-289 19,-52 41,-101 65,-150 24,-49 50,-96 78,-142 36,-61 83,-111 139,-149 19,-13 41,-22 65,-27 24,-5 48,-7 73,-5 35,2 72,17 111,47 27,20 46,43 59,71 12,27 18,54 18,82 0,27 -6,53 -20,80 -6,13 -12,25 -17,37 -5,11 -11,24 -17,37 -63,140 -123,283 -180,428 -57,145 -107,290 -152,435 -21,73 -40,141 -57,205 -16,65 -30,129 -40,193 -11,65 -19,130 -24,196 -5,66 -7,137 -7,213 0,16 0,33 1,52 1,18 -1,35 -4,53 -3,17 -9,32 -18,44 -10,13 -24,20 -44,24 -23,5 -44,3 -63,-4 -19,-7 -36,-17 -52,-30 -15,-12 -29,-26 -41,-43 -11,-16 -21,-32 -29,-47 -25,-43 -44,-87 -58,-132 -14,-46 -26,-94 -34,-145 -8,-61 -14,-120 -17,-177 -3,-57 -6,-114 -8,-172 -37,40 -73,78 -107,114 -34,36 -70,73 -108,109 -54,49 -109,96 -163,141 -15,13 -32,23 -52,28 -20,6 -39,9 -57,9 -43,0 -80,-11 -112,-32 -33,-22 -59,-49 -81,-82 -21,-33 -37,-70 -48,-110 -11,-40 -16,-80 -16,-120 0,-94 20,-179 59,-255 40,-76 98,-144 173,-205 58,-48 123,-65 196,-52 58,10 116,21 174,35 59,13 123,26 192,39zm-490 587c12,0 26,-6 42,-17 17,-10 33,-23 50,-37 16,-14 31,-28 45,-42 14,-14 25,-24 31,-31 30,-31 58,-63 84,-96 27,-33 52,-66 77,-99 10,-13 12,-31 6,-53 -5,-22 -16,-42 -31,-58 -14,-15 -31,-23 -49,-25 -18,-2 -34,2 -47,10 -43,23 -82,54 -116,94 -28,33 -54,67 -77,101 -23,35 -41,74 -54,119 -5,16 -9,35 -12,56 -2,20 2,39 12,55 8,15 21,23 39,23zm1846 244c-68,58 -143,98 -226,119 -41,12 -84,17 -128,17 -63,0 -119,-10 -170,-32 -50,-21 -98,-56 -144,-104 -28,-28 -48,-64 -58,-108 -11,-45 -17,-87 -19,-127 -3,-64 0,-127 11,-190 11,-63 28,-129 51,-198 23,-69 51,-134 84,-195 33,-61 72,-115 119,-161 43,-43 89,-77 139,-102 51,-24 105,-37 162,-37 33,0 66,4 98,11 32,8 63,20 93,36 43,23 73,53 91,89 19,37 28,78 28,124 0,40 -14,79 -42,119 -43,61 -95,116 -156,166 -71,56 -146,103 -225,141 -30,14 -57,28 -82,39 -25,12 -49,22 -72,30 -5,11 -10,27 -15,47 -5,20 -9,39 -12,57 -3,21 -6,43 -7,64 -2,21 -3,43 -3,64 -1,28 6,51 21,67 16,17 35,25 58,25 28,0 57,-7 87,-21 30,-14 56,-29 79,-43 116,-76 227,-160 334,-253 8,-8 16,-15 22,-21 7,-6 13,-12 20,-18 5,-4 11,-8 19,-14 7,-6 15,-10 24,-14 9,-3 19,-4 29,-3 10,1 19,5 27,13 10,12 15,25 16,40 1,15 0,29 -4,42 -5,31 -16,60 -34,87 -27,39 -60,82 -100,129 -41,47 -79,86 -115,115zm-97 -905c-8,-7 -18,-9 -31,-7 -12,1 -23,5 -33,10 -33,16 -64,38 -92,66 -18,18 -34,39 -49,61 -15,22 -28,44 -40,65 -5,10 -9,21 -13,33 -5,11 -7,22 -9,32 20,3 39,1 57,-8 29,-11 55,-24 75,-37 21,-13 41,-29 61,-47 16,-16 32,-34 46,-53 14,-19 26,-41 36,-65 3,-9 4,-18 2,-29 -2,-11 -5,-18 -10,-21z"/>
   <path class="fil7" d="M74460 29412c47,7 94,13 138,20 45,6 86,14 124,22 39,8 60,26 62,52 1,18 -1,32 -8,41 -6,9 -16,18 -30,26 -79,34 -162,64 -249,89 -38,11 -76,23 -114,33 -38,11 -76,22 -114,34 -110,31 -193,97 -247,198 -28,52 -56,105 -83,157 -27,52 -51,104 -71,157 -18,46 -33,91 -44,136 -12,44 -21,90 -27,136 -4,30 -2,58 3,84 6,26 25,40 58,40 17,0 35,-5 54,-13 19,-8 37,-19 55,-32 40,-30 74,-56 104,-79 30,-23 64,-50 102,-79 16,-14 33,-27 50,-40 18,-13 35,-26 53,-39 14,-9 28,-15 43,-19 14,-4 29,0 44,11 13,12 19,26 17,42 -1,17 -6,34 -14,52 -27,53 -56,103 -88,151 -32,48 -67,96 -105,143 -22,27 -46,52 -73,77 -28,25 -55,47 -83,67 -20,15 -43,26 -68,33 -26,8 -53,11 -81,11 -48,0 -90,-10 -126,-32 -36,-21 -69,-48 -99,-81 -44,-48 -82,-100 -112,-156 -31,-56 -46,-119 -46,-188 0,-88 9,-172 28,-255 19,-82 44,-158 73,-228 9,-23 17,-46 26,-69 9,-23 17,-46 24,-69 -46,-26 -86,-51 -118,-73 -32,-22 -64,-47 -95,-73 -15,-13 -27,-26 -37,-38 -10,-13 -19,-28 -27,-46 -12,-23 -12,-47 0,-72 11,-20 27,-30 47,-30 11,0 23,3 34,7 12,4 23,7 33,11 23,8 45,15 68,21 22,6 44,8 68,8 57,0 108,-6 150,-18 43,-12 85,-43 124,-90 28,-33 57,-66 87,-99 29,-33 62,-65 96,-94 55,-47 117,-69 188,-67 79,2 135,41 166,119 7,13 13,27 19,43 5,16 12,35 21,58zm522 1098c-35,33 -71,66 -108,99 -37,33 -75,65 -113,94 -57,47 -115,70 -173,70 -28,0 -57,-7 -86,-21 -30,-14 -59,-32 -87,-54 -23,-18 -45,-38 -64,-60 -20,-22 -37,-46 -50,-71 -20,-33 -34,-71 -44,-114 -10,-42 -15,-88 -15,-136 0,-74 13,-148 41,-223 27,-75 69,-141 127,-197 23,-22 47,-40 71,-55 23,-14 51,-22 82,-22 17,0 33,2 47,5 15,3 31,10 47,20 24,13 38,31 42,54 5,23 1,46 -12,67 -18,36 -35,71 -51,105 -15,34 -32,68 -50,103 -5,10 -12,25 -20,44 -8,20 -17,42 -26,66 -9,24 -17,48 -22,73 -6,25 -9,48 -9,69 0,25 5,45 16,61 11,16 29,23 56,23 26,0 53,-6 80,-19 27,-14 53,-31 77,-52 24,-22 46,-46 68,-73 21,-28 41,-55 59,-83 25,-41 49,-83 73,-124 24,-41 48,-82 71,-121 13,-23 28,-40 44,-51 17,-11 39,-16 67,-16 26,0 53,4 80,12 28,9 50,20 68,35 14,10 24,22 30,37 7,15 8,31 5,47 -8,33 -16,66 -25,99 -8,33 -16,66 -24,99 -10,38 -14,74 -12,108 3,34 18,64 46,92 5,5 11,10 16,15 6,5 13,11 21,18 12,8 18,19 19,33 1,14 -3,28 -11,41 -5,10 -14,19 -26,27 -13,8 -25,14 -39,17 -13,4 -27,5 -43,5 -16,0 -30,-3 -43,-10 -25,-11 -50,-26 -77,-44 -20,-13 -39,-27 -59,-42 -20,-15 -41,-31 -64,-50zm618 67c-2,-77 -2,-154 -1,-230 1,-76 2,-151 3,-225 2,-63 7,-125 16,-187 10,-62 25,-121 46,-179 13,-38 30,-69 50,-94 20,-25 43,-46 71,-64 50,-35 105,-52 166,-52 60,0 116,15 168,47 38,21 56,52 52,94 0,24 -10,47 -29,66 -25,25 -52,45 -82,60 -46,23 -79,53 -98,90 -19,37 -32,79 -40,125 -7,36 -11,72 -13,108 -1,35 -2,71 -2,107 0,43 1,84 2,124 2,39 4,80 8,121 51,-10 100,-19 147,-27 47,-8 94,-17 142,-25 40,-6 78,-11 116,-15 38,-3 77,-5 117,-5 26,0 48,4 66,13 18,8 28,24 30,47 2,20 -6,34 -22,44 -17,10 -34,19 -52,27 -56,15 -112,31 -167,47 -55,17 -110,33 -165,47 -28,9 -60,18 -97,29 -38,11 -73,21 -106,31 -1,31 -2,61 -2,90 0,29 -1,60 -2,93 -2,46 -5,94 -10,145 -5,50 -13,99 -23,147 -10,49 -24,100 -42,152 -18,52 -41,98 -69,137 -20,28 -43,51 -69,68 -27,18 -56,28 -89,31 -33,0 -67,-5 -102,-16 -34,-11 -68,-24 -101,-41 -33,-16 -64,-35 -93,-55 -29,-21 -53,-41 -73,-61 -41,-41 -71,-84 -89,-129 -18,-44 -27,-90 -27,-138 0,-88 23,-167 68,-239 45,-72 102,-129 169,-172 38,-25 76,-48 113,-69 37,-21 75,-44 115,-67zm0 267c-10,2 -21,5 -35,10 -13,5 -24,10 -32,15 -18,12 -36,24 -53,36 -17,12 -33,27 -48,43 -37,41 -56,82 -57,121 -2,30 4,64 17,102 13,30 31,60 52,91 7,9 15,16 25,23 10,6 20,10 32,10 23,0 41,-12 54,-36 14,-24 24,-53 30,-86 7,-31 12,-64 15,-97 3,-34 5,-63 5,-86 0,-38 -1,-67 -1,-88 -1,-20 -2,-40 -4,-58zm1497 -358c4,-203 63,-388 175,-554 20,-30 43,-53 68,-70 26,-16 58,-22 95,-17 33,5 61,21 82,48 22,27 34,55 37,83 3,28 1,57 -6,87 -7,29 -18,58 -31,86 -30,60 -57,120 -83,182 -25,62 -49,127 -70,197 -12,36 -16,71 -13,106 4,35 22,66 55,94 8,7 15,14 22,24 7,9 12,17 15,26 5,24 -3,47 -22,66 -23,23 -53,32 -89,28 -28,-4 -54,-14 -76,-30 -22,-17 -40,-34 -53,-52 -40,-50 -68,-98 -84,-146 -17,-48 -24,-101 -22,-158zm739 -982c0,46 -12,79 -37,99 -25,19 -52,29 -82,29 -28,0 -51,-11 -71,-34 -20,-24 -29,-53 -27,-89 1,-33 14,-59 37,-77 23,-18 49,-27 79,-27 23,0 46,9 68,28 22,19 33,43 33,71zm656 499c39,-105 77,-207 112,-304 36,-97 72,-194 110,-289 20,-52 42,-101 66,-150 24,-49 50,-96 78,-142 36,-61 82,-111 138,-149 20,-13 42,-22 66,-27 24,-5 48,-7 73,-5 35,2 72,17 111,47 27,20 46,43 58,71 13,27 19,54 19,82 0,27 -7,53 -20,80 -6,13 -12,25 -17,37 -5,11 -11,24 -18,37 -62,140 -122,283 -179,428 -57,145 -107,290 -152,435 -21,73 -40,141 -57,205 -16,65 -30,129 -41,193 -10,65 -18,130 -23,196 -5,66 -8,137 -8,213 0,16 1,33 2,52 0,18 -1,35 -4,53 -3,17 -10,32 -19,44 -9,13 -23,20 -43,24 -23,5 -44,3 -63,-4 -19,-7 -36,-17 -52,-30 -16,-12 -29,-26 -41,-43 -11,-16 -21,-32 -29,-47 -25,-43 -45,-87 -59,-132 -14,-46 -25,-94 -33,-145 -8,-61 -14,-120 -17,-177 -4,-57 -6,-114 -8,-172 -38,40 -74,78 -107,114 -34,36 -70,73 -108,109 -54,49 -109,96 -163,141 -15,13 -32,23 -52,28 -20,6 -39,9 -57,9 -43,0 -80,-11 -113,-32 -32,-22 -59,-49 -80,-82 -21,-33 -38,-70 -48,-110 -11,-40 -16,-80 -16,-120 0,-94 19,-179 59,-255 40,-76 97,-144 173,-205 58,-48 123,-65 196,-52 57,10 115,21 174,35 59,13 122,26 192,39zm-490 587c11,0 25,-6 42,-17 16,-10 33,-23 49,-37 17,-14 32,-28 46,-42 14,-14 25,-24 31,-31 30,-31 58,-63 84,-96 27,-33 52,-66 77,-99 10,-13 12,-31 6,-53 -6,-22 -16,-42 -31,-58 -15,-15 -31,-23 -49,-25 -18,-2 -34,2 -47,10 -43,23 -82,54 -117,94 -28,33 -53,67 -76,101 -23,35 -41,74 -55,119 -5,16 -8,35 -11,56 -2,20 1,39 11,55 9,15 22,23 40,23zm1845 244c-67,58 -142,98 -225,119 -41,12 -84,17 -128,17 -63,0 -120,-10 -170,-32 -50,-21 -98,-56 -145,-104 -28,-28 -47,-64 -58,-108 -10,-45 -17,-87 -18,-127 -4,-64 0,-127 11,-190 11,-63 28,-129 51,-198 23,-69 51,-134 84,-195 33,-61 72,-115 118,-161 43,-43 90,-77 140,-102 51,-24 105,-37 162,-37 33,0 66,4 98,11 32,8 63,20 93,36 43,23 73,53 91,89 18,37 27,78 27,124 0,40 -14,79 -42,119 -42,61 -94,116 -155,166 -71,56 -146,103 -226,141 -29,14 -56,28 -81,39 -25,12 -49,22 -72,30 -5,11 -10,27 -15,47 -5,20 -9,39 -12,57 -3,21 -6,43 -8,64 -1,21 -2,43 -2,64 -2,28 5,51 21,67 16,17 35,25 58,25 28,0 57,-7 87,-21 29,-14 56,-29 79,-43 115,-76 227,-160 334,-253 8,-8 15,-15 22,-21 7,-6 13,-12 20,-18 5,-4 11,-8 18,-14 8,-6 16,-10 25,-14 9,-3 19,-4 29,-3 10,1 19,5 27,13 10,12 15,25 16,40 1,15 -1,29 -4,42 -5,31 -16,60 -34,87 -27,39 -60,82 -101,129 -40,47 -78,86 -115,115zm-96 -905c-8,-7 -19,-9 -31,-7 -12,1 -24,5 -33,10 -33,16 -64,38 -92,66 -18,18 -35,39 -49,61 -15,22 -28,44 -40,65 -5,10 -10,21 -14,33 -4,11 -7,22 -8,32 19,3 38,1 57,-8 29,-11 54,-24 75,-37 21,-13 41,-29 61,-47 16,-16 31,-34 45,-53 14,-19 26,-41 36,-65 4,-9 4,-18 3,-29 -2,-11 -5,-18 -10,-21zm1254 393c-16,33 -33,66 -49,99 -17,33 -33,67 -50,102 -11,23 -19,49 -22,78 -3,29 4,52 22,70 12,12 25,19 41,21 16,3 30,4 43,4 32,0 62,-3 92,-9 29,-6 60,-13 91,-23 23,-8 47,-16 72,-21 25,-6 44,-2 57,13 8,14 12,29 11,46 -1,17 -9,33 -23,46 -47,38 -94,67 -143,88 -48,20 -103,31 -164,33 -58,2 -111,-9 -159,-32 -47,-23 -90,-54 -128,-92 -18,-18 -37,-41 -56,-70 -19,-29 -35,-58 -48,-88 -23,18 -41,33 -53,43 -13,11 -27,22 -44,34 -28,20 -56,39 -84,57 -28,18 -57,35 -89,52 -51,26 -101,40 -151,40 -49,1 -98,-19 -146,-60 -47,-43 -74,-90 -80,-140 -6,-50 0,-102 16,-155 27,-77 61,-149 103,-215 42,-66 89,-125 142,-178 59,-59 124,-110 194,-153 70,-43 147,-66 232,-70 42,0 83,5 121,13 38,8 69,24 94,47 24,21 40,48 47,81 6,33 20,62 42,87 21,25 42,51 62,79 23,38 33,69 32,93 -2,24 -10,51 -25,80zm-809 277c12,7 24,8 36,3 12,-5 23,-10 31,-15 44,-28 87,-58 127,-90 41,-32 80,-67 118,-103 33,-31 65,-63 95,-94 31,-31 61,-63 90,-96 17,-17 28,-35 33,-54 4,-19 0,-35 -15,-50 -20,-25 -51,-28 -94,-10 -91,39 -171,93 -240,161 -76,74 -140,165 -191,274 -5,10 -8,23 -8,39 -1,15 5,27 18,35zm1113 -22c-1,-77 -2,-154 -1,-230 1,-76 2,-151 4,-225 1,-63 7,-125 16,-187 9,-62 24,-121 46,-179 13,-38 29,-69 49,-94 20,-25 44,-46 72,-64 49,-35 105,-52 166,-52 59,0 115,15 168,47 38,21 55,52 52,94 0,24 -10,47 -30,66 -25,25 -52,45 -82,60 -46,23 -78,53 -97,90 -19,37 -33,79 -41,125 -7,36 -11,72 -12,108 -2,35 -3,71 -3,107 0,43 1,84 3,124 1,39 4,80 7,121 51,-10 100,-19 147,-27 47,-8 95,-17 142,-25 40,-6 79,-11 117,-15 38,-3 76,-5 116,-5 26,0 49,4 67,13 18,8 28,24 29,47 2,20 -5,34 -22,44 -16,10 -34,19 -52,27 -56,15 -112,31 -167,47 -55,17 -110,33 -164,47 -28,9 -61,18 -98,29 -37,11 -72,21 -105,31 -2,31 -3,61 -3,90 0,29 0,60 -2,93 -2,46 -5,94 -10,145 -5,50 -12,99 -22,147 -10,49 -24,100 -42,152 -18,52 -42,98 -70,137 -19,28 -42,51 -69,68 -26,18 -56,28 -89,31 -33,0 -67,-5 -101,-16 -35,-11 -69,-24 -102,-41 -33,-16 -64,-35 -92,-55 -29,-21 -54,-41 -73,-61 -42,-41 -71,-84 -90,-129 -18,-44 -27,-90 -27,-138 0,-88 23,-167 68,-239 46,-72 102,-129 170,-172 38,-25 75,-48 112,-69 37,-21 76,-44 115,-67zm0 267c-10,2 -21,5 -34,10 -14,5 -24,10 -32,15 -19,12 -36,24 -54,36 -17,12 -33,27 -48,43 -36,41 -55,82 -57,121 -1,30 4,64 18,102 13,30 30,60 51,91 7,9 15,16 25,23 10,6 21,10 32,10 23,0 42,-12 55,-36 13,-24 23,-53 29,-86 7,-31 12,-64 15,-97 4,-34 5,-63 5,-86 0,-38 0,-67 -1,-88 -1,-20 -2,-40 -4,-58z"/>
  </g>
  <path class="fil2" d="M37249 18515c-1324,205 -2238,916 -2744,2128 -781,-980 -1849,-1367 -3204,-1157 -922,143 -1680,591 -2273,1344 -593,754 -799,1713 -618,2883 153,985 605,1923 1360,2814 752,892 1599,1620 2537,2185 935,565 1695,992 2275,1277 582,289 990,479 1222,569 72,49 156,68 246,54 63,-10 149,-55 262,-133l204 -221c139,-119 290,-259 454,-426 164,-166 364,-387 607,-663 241,-271 479,-554 721,-841 237,-291 494,-613 769,-971 276,-357 526,-718 756,-1085 225,-366 438,-761 642,-1188 200,-427 368,-828 498,-1211 127,-383 216,-792 259,-1222 41,-434 36,-832 -21,-1203 -167,-1075 -637,-1869 -1410,-2383 -773,-509 -1620,-693 -2542,-550zm-5291 6162l555 -95 48 278 -833 142 -269 -1572 833 -142 47 277 -555 95 64 370 462 -79 47 277 -462 79 63 370zm1634 -469c21,127 -5,244 -80,350 -75,105 -176,169 -304,191 -127,22 -244,-5 -350,-79 -106,-75 -170,-177 -191,-304l277 -48c9,51 34,92 76,122 43,30 90,40 141,32 51,-9 91,-35 121,-77 30,-42 41,-89 32,-140 -10,-62 -132,-122 -364,-180 -232,-59 -363,-178 -394,-357 -22,-127 5,-244 79,-350 75,-105 177,-169 304,-191 128,-22 245,5 350,80 106,74 170,176 192,303l-278 47c-8,-51 -34,-91 -76,-121 -42,-30 -89,-41 -140,-32 -51,9 -92,35 -122,77 -30,42 -40,89 -32,140 11,62 132,122 364,180 233,59 364,178 395,357zm597 -959l222 1294 -278 48 -221 -1295 -278 47 -47 -277 832 -142 48 277 -278 48zm605 753l-190 -1110 278 -47 189 1110c9,51 35,91 77,121 42,30 89,41 140,32 51,-9 92,-34 122,-76 30,-43 40,-90 31,-141l-189 -1109 277 -48 190 1110c22,127 -5,244 -80,350 -75,106 -176,170 -303,191 -128,22 -245,-4 -351,-79 -105,-75 -169,-177 -191,-304zm1757 -300l-110 -648c-9,-51 -35,-92 -77,-121 -42,-30 -89,-41 -140,-32l-185 31 174 1018 185 -32c51,-9 92,-34 121,-76 31,-43 41,-89 32,-140zm167 -695l111 647c22,128 -5,245 -80,350 -75,106 -176,170 -304,192l-462 79 -269 -1572 463 -79c127,-22 244,4 350,79 106,75 169,176 191,304zm652 1030l-277 48 -269 -1572 278 -48 268 1572zm106 -494l-110 -647c-22,-128 4,-244 79,-350 75,-106 177,-169 304,-191 128,-22 244,4 350,79 106,75 170,176 192,304l110 647c22,128 -4,245 -80,351 -74,105 -176,169 -303,191 -128,22 -245,-5 -350,-80 -106,-75 -170,-176 -192,-304zm167 -695l111 648c9,51 34,92 76,122 43,30 89,40 140,31 52,-8 92,-34 122,-76 30,-43 41,-89 32,-140l-111 -648c-9,-51 -34,-91 -77,-121 -42,-30 -88,-41 -140,-32 -51,9 -91,34 -121,77 -30,42 -41,88 -32,139zm-4887 2595l15 92 -277 47 -16 -92c-9,-51 -34,-92 -77,-121 -42,-30 -88,-41 -140,-32 -51,8 -91,34 -121,76 -30,42 -41,89 -32,140l111 648c8,51 34,91 76,121 43,30 89,41 140,32 51,-9 92,-34 122,-76 30,-43 40,-89 32,-141l-16 -92 277 -47 16 92c22,128 -4,244 -80,350 -74,106 -176,170 -303,192 -128,21 -245,-5 -350,-80 -106,-75 -170,-176 -192,-304l-110 -647c-22,-128 4,-244 79,-350 75,-106 176,-170 304,-192 128,-21 244,5 350,80 106,75 170,176 192,304zm541 383l111 647 -278 48 -269 -1572 278 -48 111 647 370 -63 -111 -647 277 -47 269 1572 -277 47 -111 -647 -370 63zm1221 458l-278 47 -269 -1572 278 -47 269 1572zm106 -494l-111 -648c-22,-127 5,-244 79,-350 75,-105 177,-169 304,-191 128,-22 245,5 350,79 106,75 170,176 192,304l111 647c21,128 -5,245 -80,351 -75,105 -176,169 -304,191 -127,22 -244,-5 -350,-80 -106,-74 -170,-176 -191,-303zm166 -695l111 647c9,51 34,92 76,122 43,30 90,40 141,31 51,-8 91,-34 121,-76 30,-42 41,-89 32,-140l-111 -648c-8,-51 -34,-91 -76,-121 -42,-30 -89,-41 -140,-32 -51,9 -92,35 -122,77 -30,42 -40,89 -32,140zm1327 -417l-526 89 -47 -277 832 -142 49 287 -353 1097 526 -90 47 278 -832 142 -50 -287 354 -1097zm1017 -174l-525 89 -48 -277 833 -142 49 288 -353 1096 525 -89 47 277 -832 142 -49 -287 353 -1097zm988 973l-18 194 -288 49 153 -1644 144 -25 691 1500 -288 49 -81 -176 -313 53zm191 -318l-134 -291 -31 319 165 -28z"/>
  <g id="_875136640">
   <path class="fil8" d="M40297 17171c67,-16 107,-41 141,-8l549 45 145 0c316,0 1066,200 1257,341 289,213 557,561 705,893 136,306 190,113 275,524 61,294 186,363 197,602 12,251 51,431 72,727 22,313 0,395 0,726l-11 279 -207 157c0,-334 -330,-1154 -487,-1365 -107,-144 -285,-478 -356,-552 -180,-184 -283,-349 -436,-508 -361,-376 -583,-531 -1070,-782 -204,-106 -670,-846 -774,-1079zm-545 -690c0,-107 244,-212 329,-190l906 -64 472 0c165,0 71,121 235,220l56 470 -108 -11 -1781 -207c-45,-167 -109,-91 -109,-218zm1468 -656c3,15 -232,148 -233,148 -154,0 -19,-50 -182,-109l0 -145c0,-260 247,-518 436,-618l0 73 67 -1 -88 652zm1537 -1013c322,6 614,836 779,1082 200,298 120,375 137,807 11,266 111,609 111,834l0 1235c0,83 -26,109 -109,109l-37 0c-152,0 -133,-165 -218,-291 0,-768 -581,-1571 -581,-2579l26 -148 -108 -1049zm-9434 325l-145 0 0 -181c0,-85 60,-145 145,-145 70,0 145,64 145,109 0,1 -126,182 -145,217zm8862 -1125l182 0c0,604 204,885 255,1451 44,480 -1,1096 3,1680l-217 66 -41 144 -182 0c-20,-248 -107,-703 -159,-1003 -62,-367 -225,-549 -298,-900 -60,-287 -323,-665 -168,-866 88,-113 493,-572 625,-572zm-4285 2615c138,-261 404,-801 503,-1059 62,-162 593,-738 731,-830 -95,409 -266,789 -435,1127 -64,129 -674,728 -799,762zm1997 -654l71 -108 -34 -110c188,-126 365,-562 461,-810 123,-315 285,-560 483,-788 0,566 -73,761 -213,1168 -43,125 -183,294 -266,423 -134,209 -173,225 -502,225zm-436 -799c-32,0 -72,-41 -72,-73 0,-232 330,-908 508,-908 82,0 80,29 145,73 45,-25 39,-37 109,-37 313,0 -545,945 -690,945zm-508 -2325l218 0c291,0 726,617 726,836 0,214 -202,171 -378,275 -70,41 -390,197 -457,197 -68,0 -798,-105 -887,-131 -375,-106 -325,-296 -711,-305 41,-154 161,-220 324,-257 201,-46 189,-120 357,-224 147,-90 635,-391 808,-391zm2288 -109c0,-59 22,-109 73,-109 81,0 79,29 145,73 6,-70 -2,-145 73,-145 60,0 799,1003 799,1053 0,59 -22,109 -73,109 -98,0 -100,-17 -186,-35l40 144 -154 -75 -27 184 -181 0c-176,0 -109,-342 -109,-509 -55,-82 -400,-618 -400,-690zm-835 -327c97,-23 68,-36 145,-36 36,0 201,226 216,284l147 -30c230,155 340,472 441,758 119,335 370,728 -105,762l-191 -321c-243,-20 -289,-462 -363,-653 -56,-143 -279,-676 -290,-764zm-37 -690l218 0c129,0 475,329 587,404l-78 105c19,81 36,83 36,181 0,33 -40,73 -73,73 -205,0 -1034,-763 -690,-763zm-2724 -508c0,-17 107,-89 146,-254 281,6 169,146 180,437 7,192 74,338 74,543 -98,24 -69,37 -145,37 -166,0 -146,-360 -146,-545 -37,-57 -109,-132 -109,-218zm1809 211c-38,26 -40,43 -138,43l-105 0 0 -290 141 -800 73 -145c115,10 199,66 179,181l-150 1011zm-5986 4837l218 -1162 109 0c206,0 170,393 218,582 53,207 182,469 182,654l334 34 -44 -180c86,-129 156,-140 255,-291 72,-109 145,-217 218,-327 169,-254 289,-410 544,-581 34,22 109,59 109,109 0,54 -558,1365 -617,1448l182 41c177,-71 663,-1707 908,-1707l108 0c19,82 37,84 37,182l0 290c0,307 -186,1015 -266,1285l-189 92 19 40 436 0c0,-302 365,-1010 523,-1148 135,-118 212,-379 280,-556 83,-214 250,-67 250,-548 66,-44 64,-73 145,-73l109 0 0 509c0,169 -72,114 -72,363l-33 -16 -766 1614 509 0 -53 -188 -57 152 -218 0 0 -109c0,-167 792,-1308 981,-1308l145 0c0,288 -29,577 -95,813 -79,285 -223,471 -268,640l255 -8 399 45 0 -182c270,-72 506,-481 653,-691 61,-87 572,-726 618,-726 173,0 96,275 75,327 -106,259 -63,91 -118,429 -34,210 -192,605 -248,844l203 82 197 280c98,186 246,481 373,643 224,286 61,324 426,592 41,-124 361,88 416,259l20 -78c462,310 748,527 1184,850 174,129 886,987 886,1184l0 327c0,84 -25,109 -109,109l-36 0c-242,0 -836,-495 -1068,-639 -240,-151 -422,-37 -669,-203 -185,-124 -385,-209 -555,-320l-69 1453c468,125 941,474 1308,581 340,98 908,600 908,1017l-2289 0c-83,0 -109,25 -109,109l0 690c66,1 925,275 995,313 138,75 629,538 676,667 -444,0 -469,36 -880,-64 -284,-69 -514,-153 -863,-153l0 145c0,126 -73,55 -73,181l0 618c473,126 973,474 1380,690 45,-25 39,-36 109,-36 39,0 146,106 146,181l0 363c-257,6 -481,146 -618,146l-1154 0 -44 617c164,4 646,316 790,408 457,292 305,2 664,537l-45 179 2 -38 -1303 185 -181 0c-82,0 -80,-28 -145,-72l0 36 72 109c0,662 1090,957 1090,1162 0,189 -696,291 -872,291l-213 1 -41 326 0 36c0,197 617,421 618,1021l-509 32c42,62 5,73 109,73l181 0c13,55 8,109 73,109 304,0 466,-321 455,-593l-891 -606c6,-258 116,-263 347,-306 122,-23 493,-93 561,-93l255 0 145 -472c-167,-249 -903,-772 -908,-1017l1011 2 42 70c71,-175 275,17 169,-244l85 -228c-237,-447 -1094,-727 -1162,-980l-276 -22 349 -331 1413 -66 40 19c0,-310 181,-643 181,-908 0,-155 -590,-405 -732,-467 -402,-176 -471,-164 -830,-405l0 -254c455,218 1453,25 1780,182 5,-9 254,-707 254,-799 0,-284 -1463,-883 -1743,-1126 130,-31 171,-73 327,-73l322 32 1276 186 36 0c145,0 179,-329 254,-472 -145,-275 -196,-117 -275,-270 -66,-130 -89,-243 -174,-370 -97,-145 -426,-459 -580,-547 -60,-34 -614,-417 -664,-461 -140,-123 -265,-535 -522,-604l0 -109c0,-85 60,-145 145,-145l254 0c2,0 863,591 973,661 233,148 925,408 999,623l287 135 -43 106 73 0 4 -78 105 78c64,-276 306,-727 405,-1047 62,-198 142,-1017 173,-1280 44,-371 3,-1047 3,-1450 0,-237 -10,-494 -2,-728 8,-232 111,-391 111,-652l109 0c201,0 399,1302 434,1563 44,319 -7,625 52,964 37,211 95,730 95,923l0 581c0,254 -92,533 -138,734 -83,372 -161,369 -226,654l182 -8c159,10 151,140 436,182 155,24 398,31 531,86 238,99 200,78 478,139 125,28 323,142 444,174 -11,492 -1517,545 -2143,545 -451,302 -252,-158 -477,467 -61,169 -213,562 -213,768 65,-44 64,-72 145,-72l36 0c124,0 305,281 408,355 128,92 85,-7 238,125 86,73 130,104 217,183 297,270 762,326 772,765l-2106 -15 -1 39 -2 132 438 -59 908 0c393,0 624,174 957,170l309 -604 -67 -220c-336,0 -1780,-871 -1780,-1198 0,-249 570,-182 835,-182 393,0 688,-73 945,-73l754 -3 242 -576 -197 -2072 0 -2433c0,-345 -27,-1453 254,-1453l145 0c0,583 470,1625 509,2179 49,714 319,1561 472,2215 137,-31 227,-72 400,-72l108 0c3,-116 306,-862 368,-1049 108,-320 160,-869 504,-949 207,431 182,1280 182,1889l109 0c180,0 170,-579 232,-821 86,-334 171,-573 254,-908 81,-323 138,-594 226,-901 35,-124 189,-883 196,-966l250 -1 149 2943c10,236 -109,367 -109,436l0 145 146 0c2,-21 351,-891 400,-1016 72,-187 109,-339 192,-534 89,-208 202,-323 256,-471 158,-439 203,-620 399,-1018 84,-170 563,-702 750,-702 44,0 109,75 109,146 0,748 -312,1318 -569,1828 -104,206 -307,616 -361,837 -72,297 -137,720 -417,807l149 14 0 73c328,-77 751,-311 908,-545l181 0c120,-226 686,-610 945,-726 177,-78 272,-236 511,-324 140,-51 535,-186 578,-294l109 0c123,0 254,64 254,182 0,169 -475,481 -588,610 -299,342 -190,314 -617,581 -384,240 -1262,615 -1480,915l34 108 1126 -108c129,-14 188,90 328,108 138,18 269,-11 420,16 181,32 668,36 668,203 0,101 -28,88 -109,109l0 146c-354,7 -645,220 -1089,218 -288,-2 -1026,100 -1217,18l-127 90c44,66 73,64 73,146l0 617c314,73 258,130 484,206 196,66 378,94 565,161 157,57 873,402 948,505l-550 -6 -140 115c-317,0 -334,87 -654,109 -150,10 -468,218 -581,218 -142,0 -4,-55 -220,-73l-35 470 99 -20 229 168 182 0 -30 27 543 583 31 -29c-240,359 -1089,198 -1089,436l0 399c181,48 865,640 871,908 -81,19 -83,36 -181,36l-733 1 79 1089c163,78 799,524 799,690l0 36c0,82 -29,80 -73,143l-799 3 0 871c366,86 631,647 945,654 -66,283 -575,798 -799,690 9,114 36,129 36,255l0 217c114,10 129,37 254,37l223 1 392 -1519 -287 -81 -61 -153 -339 -318 218 0c56,-84 415,-509 508,-509 98,0 100,17 179,36l208 -716 -823 -773c126,-29 369,-190 508,-254 158,-73 545,-74 545,-218l0 -109 73 0 12 -109 -10 -254 -24 34 -995 -615c40,-150 1036,-541 1199,-545l0 -182c0,-98 17,-100 36,-181 -233,-156 -535,-400 -908,-400 -30,-56 -218,-283 -218,-290 0,-311 655,-433 972,-481 259,-39 389,-9 477,-249 46,-124 146,-435 149,-578 -386,0 -666,-188 -1074,-269 -348,-70 -771,-193 -923,-421 196,-294 264,-201 633,-275 106,-21 763,-132 819,-121l872 142c107,-93 805,-80 1033,-16 262,74 543,306 856,306l0 146c0,271 -683,399 -1003,398l58 909 10 80 1072 357 44 253c-125,188 -790,320 -1126,327l0 291 109 0c265,0 1254,838 1272,1061l-186 -13 -105 78c-85,-20 -107,-37 -218,-37l-472 0c-158,0 -112,58 -297,74l86 803 102 -114c182,42 872,322 872,436 0,344 -668,290 -981,290l0 182 1162 0c139,0 14,-11 103,36l43 -544 0 -218c-257,-60 -687,-224 -783,-431l34 -41 749 -291c9,-114 36,-129 36,-254l0 -218c-174,-47 -195,-276 -290,-437 -33,-55 -339,-321 -390,-360l26 -184c227,-5 175,-109 436,-109l218 0 0 -872c-127,-33 -944,-607 -944,-690 0,-85 60,-145 145,-145l102 -3 43 -106c131,0 591,-116 597,-184l-125 -797c-137,-3 -684,-250 -977,-294 -231,-35 -231,-97 -513,-104 -220,-6 -310,-123 -409,-284l1654 -591 -82 -320 -399 -41 -326 19 -2507 163c-58,-160 -182,-82 -182,-182 0,-387 993,-407 1316,-609 328,-205 938,-517 1465,-513l52 -332 291 37c-137,-95 -291,-29 -291,-181l0 -109c-62,-17 -145,-42 -145,-109 0,-145 179,-178 331,-198l-178 -24 -770 149c-46,69 -191,218 -291,218l-182 0c9,-391 884,-1195 908,-1489l327 0 0 -36 -282 -2 -45 -252c-44,24 -38,36 -109,36l-145 0c-92,344 -552,402 -751,665 -45,60 -316,209 -411,279 -148,109 -231,241 -378,349 -458,337 -1100,1002 -1683,1139l-46 -253c171,-322 466,-483 718,-735 326,-327 416,-424 663,-827 223,-365 1424,-1154 1436,-1470l-238 -200c-306,456 -731,848 -1116,1244 -212,217 -403,292 -637,526 -112,112 -380,699 -499,699 -331,0 316,-1594 387,-1720 334,-595 717,-703 1030,-1294 -85,-57 -190,-146 -327,-146l-109 0 0 146c0,117 -432,394 -536,481 -98,83 -449,536 -517,536l-37 0c-55,0 -116,-25 -86,-69l231 -1566c-149,-12 -81,-36 -217,-36 -111,0 -236,411 -275,524 -87,247 -160,391 -239,596 -146,376 -332,788 -516,1156 -92,184 -165,362 -271,528 -132,208 -137,364 -249,586 -153,304 -355,959 -536,1149l52 -980c19,-291 118,-569 145,-943 23,-299 106,-642 149,-978 68,-534 380,-1195 432,-1820l-363 0c11,43 36,99 36,109 0,387 -197,899 -304,1222 -135,406 -243,784 -669,878l-80 -66c0,-537 -185,-638 -255,-1089 -102,-663 -10,-561 -290,-1090l-223 15 114 58 -59 -1 59 1562 0 1853c0,81 -150,290 -254,290l-182 0c-63,-269 -209,-603 -219,-906 -11,-346 -67,-747 -136,-1027 -111,-454 -371,-1454 -371,-1917l-218 0c126,239 327,2918 327,3451l0 581c0,171 -155,1017 -291,1017l-181 0c-196,0 -271,-883 -334,-1119 -92,-345 -191,-849 -251,-1238 -126,-812 -360,-1673 -359,-2618l-291 144c0,356 20,1380 -255,1380 -206,0 -491,-924 -516,-1130l-111 186 10 1417 0 4031c0,82 -29,80 -55,150l-90 322c-491,0 -568,-859 -615,-1310 -59,-558 -135,-1142 -235,-1690 -90,-491 -187,-1160 -336,-1589 -37,-110 -301,-1560 -304,-1664l-544 43 -146 0 -1 -137 -206 -49 -197 -545 78 -105 -184 1 -72 -174 -190 -49 84 -142 -111 -181c1,0 37,-67 37,-72 0,-98 -18,-100 -37,-182 171,-255 8,-145 -206,-141l69 -209 101 -86c-81,19 -83,37 -182,37l-36 0c-131,0 -82,-139 -262,-257l44 -143 -185 0 2 -283 -258 -45 41 -219 -149 80 -109 -79 39 -136 -194 -53 118 -220 -253 125 -113 -80 44 -143c-33,-9 -327,-149 -327,-182 0,-83 13,-42 34,-121l-279 -26 -45 -289c-214,-17 -76,-72 -218,-72l-218 0 0 -146c0,-102 -16,-67 -57,-96l-122 127 -148 -31c-87,-327 -108,-186 -108,-691 0,-229 -77,-471 -123,-712 -83,-430 -508,-841 -568,-1066 -321,26 -450,768 -500,1098 -52,347 -299,1035 -299,1299l0 290 -109 0c-152,0 -398,-1188 -522,-1403 -196,-343 -523,-903 -822,-1103 -25,45 -36,39 -36,109l-13 618 80 2365 78 104c-22,34 -59,109 -109,109 -83,0 -42,-12 -135,-35l-53 763 79 1016 -109 0c-136,0 -831,-1105 -841,-1286l-430 160c162,338 908,1286 908,1671l-109 0c-385,0 -593,-343 -769,-575 -209,-278 -539,-439 -545,-860l-253 107 78 20c0,302 23,495 35,800 5,140 148,699 -82,634 -189,-55 -529,-927 -534,-1180 -187,90 -255,21 -255,327 0,7 193,567 218,654 47,169 182,487 182,690l0 73c0,84 -97,181 -182,181l-109 0c-34,-416 -644,-1271 -764,-1605l-1052 260 -181 110c0,279 -6,465 -34,693 -37,296 95,390 163,594 172,512 488,419 960,529z"/>
   <path class="fil9" d="M39604 10415c20,-115 -64,-171 -179,-181l-73 145 -141 800 0 290 105 0c98,0 100,-17 138,-43l150 -1011z"/>
   <path class="fil9" d="M37900 11978c76,0 47,-13 145,-37 0,-205 -67,-351 -74,-543 -11,-291 101,-431 -180,-437 -39,165 -146,237 -146,254 0,86 72,161 109,218 0,185 -20,545 146,545z"/>
   <path class="fil5" d="M40587 11723l-218 0c-344,0 485,763 690,763 33,0 73,-40 73,-73 0,-98 -17,-100 -36,-181l78 -105c-112,-75 -458,-404 -587,-404z"/>
   <path class="fil5" d="M40767 12661c-15,-58 -180,-284 -216,-284 -77,0 -48,13 -145,36 11,88 234,621 290,764 74,191 120,633 363,653l191 321c475,-34 224,-427 105,-762 -101,-286 -211,-603 -441,-758l-147 30z"/>
   <path class="fil5" d="M42072 13686c86,18 88,35 186,35 51,0 73,-50 73,-109 0,-50 -739,-1053 -799,-1053 -75,0 -67,75 -73,145 -66,-44 -64,-73 -145,-73 -51,0 -73,50 -73,109 0,72 345,608 400,690 0,167 -67,509 109,509l181 0 27 -184 154 75 -40 -144z"/>
   <path class="fil5" d="M38517 13903l-472 -182c54,-13 109,-8 109,-73 0,-98 -18,-100 -37,-181 253,-68 629,-436 908,-436l73 0c219,0 545,345 545,581 0,103 -304,232 -400,254l41 -4 -77 -541 0 -109c-100,-23 -148,-72 -218,-72 0,0 -353,231 -365,252 -46,80 -107,363 -107,511zm436 -1054c-173,0 -661,301 -808,391 -168,104 -156,178 -357,224 -163,37 -283,103 -324,257 386,9 336,199 711,305 89,26 819,131 887,131 67,0 387,-156 457,-197 176,-104 378,-61 378,-275 0,-219 -435,-836 -726,-836l-218 0z"/>
   <path class="fil8" d="M38517 13903c0,-148 61,-431 107,-511 12,-21 365,-252 365,-252 70,0 118,49 218,72l0 109 77 541 -41 4c96,-22 400,-151 400,-254 0,-236 -326,-581 -545,-581l-73 0c-279,0 -655,368 -908,436 19,81 37,83 37,181 0,65 -55,60 -109,73l472 182z"/>
   <path class="fil5" d="M42185 14012c-132,0 -537,459 -625,572 -155,201 108,579 168,866 73,351 236,533 298,900 52,300 139,755 159,1003l182 0 41 -144 217 -66c-4,-584 41,-1200 -3,-1680 -51,-566 -255,-847 -255,-1451l-182 0z"/>
   <path class="fil5" d="M39461 15174c145,0 1003,-945 690,-945 -70,0 -64,12 -109,37 -65,-44 -63,-73 -145,-73 -178,0 -508,676 -508,908 0,32 40,73 72,73z"/>
   <path class="fil5" d="M33323 15137c19,-35 145,-216 145,-217 0,-45 -75,-109 -145,-109 -85,0 -145,60 -145,145l0 181 145 0z"/>
   <path class="fil5" d="M39897 15973c329,0 368,-16 502,-225 83,-129 223,-298 266,-423 140,-407 213,-602 213,-1168 -198,228 -360,473 -483,788 -96,248 -273,684 -461,810l34 110 -71 108z"/>
   <path class="fil5" d="M41308 15173l-67 1 0 -73c-189,100 -436,358 -436,618l0 145c163,59 28,109 182,109 1,0 236,-133 233,-148l88 -652z"/>
   <path class="fil9" d="M33468 16263l0 146c148,93 539,94 763,109 314,21 446,124 690,181 42,-155 52,-109 255,-109l-182 -41c59,-83 617,-1394 617,-1448 0,-50 -75,-87 -109,-109 -255,171 -375,327 -544,581 -73,110 -146,218 -218,327 -99,151 -169,162 -255,291l44 180 -334 -34c0,-185 -129,-447 -182,-654 -48,-189 -12,-582 -218,-582l-109 0 -218 1162z"/>
   <path class="fil5" d="M37900 16627c125,-34 735,-633 799,-762 169,-338 340,-718 435,-1127 -138,92 -669,668 -731,830 -99,258 -365,798 -503,1059z"/>
   <path class="fil5" d="M39752 16481c0,127 64,51 109,218l1781 207 108 11 -56 -470c-164,-99 -70,-220 -235,-220l-472 0 -906 64c-85,-22 -329,83 -329,190z"/>
   <path class="fil5" d="M35176 16590c-203,0 -213,-46 -255,109 293,141 1779,394 2251,401 464,7 887,35 1309,35 218,0 437,-3 655,-1 351,2 263,130 434,255l73 -72 -197 -280 -203 -82c56,-239 214,-634 248,-844 55,-338 12,-170 118,-429 21,-52 98,-327 -75,-327 -46,0 -557,639 -618,726 -147,210 -383,619 -653,691l0 182 -399 -45 -255 8c45,-169 189,-355 268,-640 66,-236 95,-525 95,-813l-145 0c-189,0 -981,1141 -981,1308l0 109 218 0 57 -152 53 188 -509 0 766 -1614 33 16c0,-249 72,-194 72,-363l0 -509 -109 0c-81,0 -79,29 -145,73 0,481 -167,334 -250,548 -68,177 -145,438 -280,556 -158,138 -523,846 -523,1148l-436 0 -19 -40 189 -92c80,-270 266,-978 266,-1285l0 -290c0,-98 -18,-100 -37,-182l-108 0c-245,0 -731,1636 -908,1707z"/>
   <path class="fil5" d="M43673 16701c-17,-432 63,-509 -137,-807 -165,-246 -457,-1076 -779,-1082l108 1049 -26 148c0,1008 581,1811 581,2579 85,126 66,291 218,291l37 0c83,0 109,-26 109,-109l0 -1235c0,-225 -100,-568 -111,-834z"/>
   <path class="fil10" d="M57658 18697c230,-5 75,-25 254,-73 -18,-32 -23,-72 -72,-72 -103,0 -140,83 -182,145z"/>
   <path class="fil10" d="M58640 18705c70,89 247,125 403,136l-43 -136 -142 -32 -218 32z"/>
   <path class="fil5" d="M40438 17163c-34,-33 -74,-8 -141,8 104,233 570,973 774,1079 487,251 709,406 1070,782 153,159 256,324 436,508 71,74 249,408 356,552 157,211 487,1031 487,1365l207 -157 11 -279c0,-331 22,-413 0,-726 -21,-296 -60,-476 -72,-727 -11,-239 -136,-308 -197,-602 -85,-411 -139,-218 -275,-524 -148,-332 -416,-680 -705,-893 -191,-141 -941,-341 -1257,-341l-145 0 -549 -45z"/>
   <path class="fil5" d="M39570 17389c169,726 763,1219 763,2361l0 1598c0,147 -1,284 -114,332l78 104c-6,247 -75,611 -105,840 -33,250 -52,587 -99,845 -83,465 -116,1300 -158,1767 -33,362 -297,3399 -219,3522 65,44 63,72 145,72l181 0 1303 -185 -2 38 45 -179c-359,-535 -207,-245 -664,-537 -144,-92 -626,-404 -790,-408l44 -617 1154 0c137,0 361,-140 618,-146l0 -363c0,-75 -107,-181 -146,-181 -70,0 -64,11 -109,36 -407,-216 -907,-564 -1380,-690l0 -618c0,-126 73,-55 73,-181l0 -145c349,0 579,84 863,153 411,100 436,64 880,64 -47,-129 -538,-592 -676,-667 -70,-38 -929,-312 -995,-313l0 -690c0,-84 26,-109 109,-109l2289 0c0,-417 -568,-919 -908,-1017 -367,-107 -840,-456 -1308,-581l69 -1453c170,111 370,196 555,320 247,166 429,52 669,203 232,144 826,639 1068,639l36 0c84,0 109,-25 109,-109l0 -327c0,-197 -712,-1055 -886,-1184 -436,-323 -722,-540 -1184,-850l-20 78c-55,-171 -375,-383 -416,-259 -365,-268 -202,-306 -426,-592 -127,-162 -275,-457 -373,-643l-73 72z"/>
   <path class="fil8" d="M43457 26361c0,185 302,112 494,232 193,120 247,176 474,288 341,169 645,349 756,760l273 -590c-296,-143 -679,-230 -976,-368 -237,-110 -127,-119 -485,-205 -216,-52 -345,-86 -500,-190 -1,1 -36,68 -36,73z"/>
   <path class="fil8" d="M56750 29884l73 0 4 -127 651 126 35 110 145 0c-4,184 -165,323 -283,407 -115,83 -428,100 -589,137l-24 150 170 1013 7 448 138 -88 363 39 218 0 0 -145c0,-125 27,-141 36,-254 -362,-8 -267,-435 -544,-509 61,-92 120,-320 159,-349 38,-29 145,-37 197,-57 117,-45 76,-102 188,-102l139 -1 79 -762 0 -324 -363 -39c-101,-68 -617,-250 -617,-363 0,-329 102,-118 -182,-255l0 945z"/>
   <path class="fil5" d="M52500 33806c-98,0 -100,-17 -192,-42l556 -1011 181 0c257,0 509,274 509,545l0 181c-454,0 -727,327 -1054,327zm4105 -290c-137,0 -69,-24 -218,-37 8,-373 560,-913 581,-1162l146 -8 617 45 0 871c-364,85 -592,291 -1126,291zm-13947 -109l-366 19 -869 -128c78,-117 651,-944 726,-944 111,0 654,307 654,399 0,171 -106,487 -145,654zm-2367 -582l-757 1c-230,0 -269,-109 -436,-109l-109 0c23,-275 324,-945 581,-945 20,0 569,391 763,436l8 146 -50 471zm16459 -3886c284,137 182,-74 182,255 0,113 516,295 617,363l363 39 0 324 -79 762 -139 1c-112,0 -71,57 -188,102 -52,20 -159,28 -197,57 -39,29 -98,257 -159,349 277,74 182,501 544,509 -9,113 -36,129 -36,254l0 145 -218 0 -363 -39 -138 88 -7 -448 -170 -1013 24 -150c161,-37 474,-54 589,-137 118,-84 279,-223 283,-407l-145 0 -35 -110 -651 -126 -4 127 -73 0 0 -945zm-12167 73c-96,180 -491,1126 -654,1126l-1090 0 0 109c0,108 529,683 546,867l144 41c-73,316 -224,404 -304,676 -118,399 -313,473 -350,632l-612 -289 140 -438 654 0c85,0 145,-60 145,-145 0,-74 -476,-708 -550,-727l223 -1489c148,40 832,327 945,327l181 0c24,-100 73,-148 73,-218 0,-178 -701,-975 -878,-1092l43 -106 -159 -2 125 -885 1412 208 555 67 -189 242 -291 -30c-224,-150 -724,-218 -1090,-218l-218 0c8,370 940,1316 1199,1344zm-632 -2419c-192,-120 -494,-47 -494,-232 0,-5 35,-72 36,-73 155,104 284,138 500,190 358,86 248,95 485,205 297,138 680,225 976,368l-273 590c-111,-411 -415,-591 -756,-760 -227,-112 -281,-168 -474,-288zm14907 -7920l142 32 43 136c-156,-11 -333,-47 -403,-136l218 -32zm-1200 24c42,-62 79,-145 182,-145 49,0 54,40 72,72 -179,48 -24,68 -254,73zm-24190 -2288l0 -146c-472,-110 -788,-17 -960,-529 -68,-204 -200,-298 -163,-594 28,-228 34,-414 34,-693l181 -110 1052 -260c120,334 730,1189 764,1605l109 0c85,0 182,-97 182,-181l0 -73c0,-203 -135,-521 -182,-690 -25,-87 -218,-647 -218,-654 0,-306 68,-237 255,-327 5,253 345,1125 534,1180 230,65 87,-494 82,-634 -12,-305 -35,-498 -35,-800l-78 -20 253 -107c6,421 336,582 545,860 176,232 384,575 769,575l109 0c0,-385 -746,-1333 -908,-1671l430 -160c10,181 705,1286 841,1286l109 0 -79 -1016 53 -763c93,23 52,35 135,35 50,0 87,-75 109,-109l-78 -104 -80 -2365 13 -618c0,-70 11,-64 36,-109 299,200 626,760 822,1103 124,215 370,1403 522,1403l109 0 0 -290c0,-264 247,-952 299,-1299 50,-330 179,-1072 500,-1098 60,225 485,636 568,1066 46,241 123,483 123,712 0,505 21,364 108,691l148 31 122 -127c41,29 57,-6 57,96l0 146 218 0c142,0 4,55 218,72l45 289 279 26c-21,79 -34,38 -34,121 0,33 294,173 327,182l-44 143 113 80 253 -125 -118 220 194 53 -39 136 109 79 149 -80 -41 219 258 45 -2 283 185 0 -44 143c180,118 131,257 262,257l36 0c99,0 101,-18 182,-37l-101 86 -69 209c214,-4 377,-114 206,141 19,82 37,84 37,182 0,5 -36,72 -37,72l111 181 -84 142 190 49 72 174 184 -1 -78 105 197 545 206 49 1 137 146 0 544 -43c3,104 267,1554 304,1664 149,429 246,1098 336,1589 100,548 176,1132 235,1690 47,451 124,1310 615,1310l90 -322c26,-70 55,-68 55,-150l0 -4031 -10 -1417 111 -186c25,206 310,1130 516,1130 275,0 255,-1024 255,-1380l291 -144c-1,945 233,1806 359,2618 60,389 159,893 251,1238 63,236 138,1119 334,1119l181 0c136,0 291,-846 291,-1017l0 -581c0,-533 -201,-3212 -327,-3451l218 0c0,463 260,1463 371,1917 69,280 125,681 136,1027 10,303 156,637 219,906l182 0c104,0 254,-209 254,-290l0 -1853 -59 -1562 59 1 -114 -58 223 -15c280,529 188,427 290,1090 70,451 255,552 255,1089l80 66c426,-94 534,-472 669,-878 107,-323 304,-835 304,-1222 0,-10 -25,-66 -36,-109l363 0c-52,625 -364,1286 -432,1820 -43,336 -126,679 -149,978 -27,374 -126,652 -145,943l-52 980c181,-190 383,-845 536,-1149 112,-222 117,-378 249,-586 106,-166 179,-344 271,-528 184,-368 370,-780 516,-1156 79,-205 152,-349 239,-596 39,-113 164,-524 275,-524 136,0 68,24 217,36l-231 1566c-30,44 31,69 86,69l37 0c68,0 419,-453 517,-536 104,-87 536,-364 536,-481l0 -146 109 0c137,0 242,89 327,146 -313,591 -696,699 -1030,1294 -71,126 -718,1720 -387,1720 119,0 387,-587 499,-699 234,-234 425,-309 637,-526 385,-396 810,-788 1116,-1244l238 200c-12,316 -1213,1105 -1436,1470 -247,403 -337,500 -663,827 -252,252 -547,413 -718,735l46 253c583,-137 1225,-802 1683,-1139 147,-108 230,-240 378,-349 95,-70 366,-219 411,-279 199,-263 659,-321 751,-665l145 0c71,0 65,-12 109,-36l45 252 282 2 0 36 -327 0c-24,294 -899,1098 -908,1489l182 0c100,0 245,-149 291,-218l770 -149 178 24c-152,20 -331,53 -331,198 0,67 83,92 145,109l0 109c0,152 154,86 291,181l-291 -37 -52 332c-527,-4 -1137,308 -1465,513 -323,202 -1316,222 -1316,609 0,100 124,22 182,182l2507 -163 326 -19 399 41 82 320 -1654 591c99,161 189,278 409,284 282,7 282,69 513,104 293,44 840,291 977,294l125 797c-6,68 -466,184 -597,184l-43 106 -102 3c-85,0 -145,60 -145,145 0,83 817,657 944,690l0 872 -218 0c-261,0 -209,104 -436,109l-26 184c51,39 357,305 390,360 95,161 116,390 290,437l0 218c0,125 -27,140 -36,254l-749 291 -34 41c96,207 526,371 783,431l0 218 -43 544c-89,-47 36,-36 -103,-36l-1162 0 0 -182c313,0 981,54 981,-290 0,-114 -690,-394 -872,-436l-102 114 -86 -803c185,-16 139,-74 297,-74l472 0c111,0 133,17 218,37l105 -78 186 13c-18,-223 -1007,-1061 -1272,-1061l-109 0 0 -291c336,-7 1001,-139 1126,-327l-44 -253 -1072 -357 -10 -80 -58 -909c320,1 1003,-127 1003,-398l0 -146c-313,0 -594,-232 -856,-306 -228,-64 -926,-77 -1033,16l-872 -142c-56,-11 -713,100 -819,121 -369,74 -437,-19 -633,275 152,228 575,351 923,421 408,81 688,269 1074,269 -3,143 -103,454 -149,578 -88,240 -218,210 -477,249 -317,48 -972,170 -972,481 0,7 188,234 218,290 373,0 675,244 908,400 -19,81 -36,83 -36,181l0 182c-163,4 -1159,395 -1199,545l995 615 24 -34 10 254 -12 109 -73 0 0 109c0,144 -387,145 -545,218 -139,64 -382,225 -508,254l823 773 -208 716c-79,-19 -81,-36 -179,-36 -93,0 -452,425 -508,509l-218 0 339 318 61 153 287 81 -392 1519 -223 -1c-125,0 -140,-27 -254,-37l0 -217c0,-126 -27,-141 -36,-255 224,108 733,-407 799,-690 -314,-7 -579,-568 -945,-654l0 -871 799 -3c44,-63 73,-61 73,-143l0 -36c0,-166 -636,-612 -799,-690l-79 -1089 733 -1c98,0 100,-17 181,-36 -6,-268 -690,-860 -871,-908l0 -399c0,-238 849,-77 1089,-436l-31 29 -543 -583 30 -27 -182 0 -229 -168 -99 20 35 -470c216,18 78,73 220,73 113,0 431,-208 581,-218 320,-22 337,-109 654,-109l140 -115 550 6c-75,-103 -791,-448 -948,-505 -187,-67 -369,-95 -565,-161 -226,-76 -170,-133 -484,-206l0 -617c0,-82 -29,-80 -73,-146l127 -90c191,82 929,-20 1217,-18 444,2 735,-211 1089,-218l0 -146c81,-21 109,-8 109,-109 0,-167 -487,-171 -668,-203 -151,-27 -282,2 -420,-16 -140,-18 -199,-122 -328,-108l-1126 108 -34 -108c218,-300 1096,-675 1480,-915 427,-267 318,-239 617,-581 113,-129 588,-441 588,-610 0,-118 -131,-182 -254,-182l-109 0c-43,108 -438,243 -578,294 -239,88 -334,246 -511,324 -259,116 -825,500 -945,726l-181 0c-157,234 -580,468 -908,545l0 -73 -149 -14c280,-87 345,-510 417,-807 54,-221 257,-631 361,-837 257,-510 569,-1080 569,-1828 0,-71 -65,-146 -109,-146 -187,0 -666,532 -750,702 -196,398 -241,579 -399,1018 -54,148 -167,263 -256,471 -83,195 -120,347 -192,534 -49,125 -398,995 -400,1016l-146 0 0 -145c0,-69 119,-200 109,-436l-149 -2943 -250 1c-7,83 -161,842 -196,966 -88,307 -145,578 -226,901 -83,335 -168,574 -254,908 -62,242 -52,821 -232,821l-109 0c0,-609 25,-1458 -182,-1889 -344,80 -396,629 -504,949 -62,187 -365,933 -368,1049l-108 0c-173,0 -263,41 -400,72 -153,-654 -423,-1501 -472,-2215 -39,-554 -509,-1596 -509,-2179l-145 0c-281,0 -254,1108 -254,1453l0 2433 197 2072 -242 576 -754 3c-257,0 -552,73 -945,73 -265,0 -835,-67 -835,182 0,327 1444,1198 1780,1198l67 220 -309 604c-333,4 -564,-170 -957,-170l-908 0 -438 59 2 -132 1 -39 2106 15c-10,-439 -475,-495 -772,-765 -87,-79 -131,-110 -217,-183 -153,-132 -110,-33 -238,-125 -103,-74 -284,-355 -408,-355l-36 0c-81,0 -80,28 -145,72 0,-206 152,-599 213,-768 225,-625 26,-165 477,-467 626,0 2132,-53 2143,-545 -121,-32 -319,-146 -444,-174 -278,-61 -240,-40 -478,-139 -133,-55 -376,-62 -531,-86 -285,-42 -277,-172 -436,-182l-182 8c65,-285 143,-282 226,-654 46,-201 138,-480 138,-734l0 -581c0,-193 -58,-712 -95,-923 -59,-339 -8,-645 -52,-964 -35,-261 -233,-1563 -434,-1563l-109 0c0,261 -103,420 -111,652 -8,234 2,491 2,728 0,403 41,1079 -3,1450 -31,263 -111,1082 -173,1280 -99,320 -341,771 -405,1047l-105 -78 -4 78 -73 0 43 -106 -287 -135c-74,-215 -766,-475 -999,-623 -110,-70 -971,-661 -973,-661l-254 0c-85,0 -145,60 -145,145l0 109c257,69 382,481 522,604 50,44 604,427 664,461 154,88 483,402 580,547 85,127 108,240 174,370 79,153 130,-5 275,270 -75,143 -109,472 -254,472l-36 0 -1276 -186 -322 -32c-156,0 -197,42 -327,73 280,243 1743,842 1743,1126 0,92 -249,790 -254,799 -327,-157 -1325,36 -1780,-182l0 254c359,241 428,229 830,405 142,62 732,312 732,467 0,265 -181,598 -181,908l-40 -19 -1413 66 -349 331 276 22c68,253 925,533 1162,980l-85 228c106,261 -98,69 -169,244l-42 -70 -1011 -2c5,245 741,768 908,1017l-145 472 -255 0c-68,0 -439,70 -561,93 -231,43 -341,48 -347,306l891 606c11,272 -151,593 -455,593 -65,0 -60,-54 -73,-109l-181 0c-104,0 -67,-11 -109,-73l509 -32c-1,-600 -618,-824 -618,-1021l0 -36 41 -326 213 -1c176,0 872,-102 872,-291 0,-205 -1090,-500 -1090,-1162l-72 -109c-78,122 -111,1146 -110,1380 3,537 -145,1009 -145,1380 -245,130 -690,808 -690,1163l0 181 254 0c162,0 329,146 618,146l828 -1 44 -907c121,-181 231,-229 291,-472 55,-223 105,-410 153,-646 73,-357 246,-838 360,-1202 247,-790 451,-1648 663,-2497 105,-419 169,-870 283,-1279 109,-392 244,-822 342,-1219 104,-422 288,-863 370,-1192 60,-245 122,-383 202,-597 71,-191 31,-524 205,-594l2 -207 599 -73 125 135 0 472c0,220 -274,1281 -342,1582 -121,537 -185,1086 -319,1606 -61,237 -180,447 -214,731 -24,195 -98,611 -144,836 -80,389 -252,1254 -252,1674 -156,52 -401,1919 -531,2302 -166,488 -224,577 -500,953 -98,133 -603,718 -603,849 0,100 183,206 257,234l687 93 545 0c204,0 272,-723 319,-916 91,-377 241,-475 395,-840 125,-295 263,-472 390,-845 130,-383 238,-514 397,-838 141,-285 299,-507 429,-806 119,-275 246,-567 383,-852 278,-581 498,-1148 786,-1719 553,-1095 967,-2333 1514,-3427 359,-718 290,-1065 1078,-1391 340,-142 1821,-159 2354,-171l18 -69 1780 -3 181 0c109,408 146,668 146,1198l0 836c0,385 -72,786 -131,1140 -64,377 -51,793 -51,1221 0,799 -36,1707 -36,2433l0 109 42 1 -42 1234 0 835 -85 8 71 139 195 1415 0 37c0,266 -762,1337 -762,1452l0 37c0,144 282,145 435,145l37 0c232,0 454,-147 622,-213 158,-62 576,-120 576,-259l0 -291c0,-347 -191,-402 -5,-913 79,-217 223,-634 223,-903l0 -36c0,-369 120,-481 219,-871 86,-345 144,-591 239,-923 80,-280 378,-1700 378,-1947l0 -145 72 0c-77,-335 208,-1893 305,-2275 80,-317 227,-688 313,-1030 53,-210 167,-981 363,-981l109 0c44,163 207,349 286,585 81,244 114,475 114,795l0 617c0,485 -50,1230 56,1760 113,561 161,1103 161,1763 0,580 -42,1331 0,1889 20,262 70,578 112,832 38,224 58,667 106,875 -142,213 -617,870 -617,1162 0,104 236,218 399,218l109 0c374,0 1235,-188 1235,-508l0 -254c0,-554 -76,-1026 15,-1548 45,-260 68,-476 98,-737 19,-176 43,-547 77,-759 69,-443 137,-1030 137,-1533 0,-610 73,-1039 73,-1598l-12 -36 12 -1162 0 -1090c0,-237 -100,-958 -148,-1196 -73,-358 -122,-783 -179,-1165 -22,-151 -267,-899 -327,-1017 -120,-237 -415,-662 -436,-908 728,61 1744,1372 1744,2216l-3 1089 -34 1744 -14 38 87 579 71 -1 372 -398 -44 690c-7,93 58,110 109,145l37 19 290 -564c3,117 -12,182 109,182 125,0 120,-108 146,-218 452,-38 690,-2267 690,-2906 0,-1181 -440,-2531 -697,-3516 -70,-269 -258,-432 -439,-615 -325,-328 -107,-244 -630,-423 -249,-85 -600,-132 -922,-131 -439,1 -707,-109 -944,-109l-291 0c-6,-255 -372,-712 -535,-846 -237,-196 -648,-395 -817,-562 -33,-33 -768,-508 -839,-542 -301,-143 -708,-294 -1010,-407 -634,-237 -1626,-295 -2501,-295 -931,0 -1818,-109 -2688,-109l-618 0c-281,0 -674,5 -937,44 -117,18 -269,53 -428,80 -122,22 -358,131 -378,117l-581 14 -146 8 -399 -45 -6 116 -139 -116 -263 -11 154 -134c-68,-101 -102,-85 -140,-153 -86,-153 67,-69 -83,-178l78 -105 -146 0c-28,-107 -218,-364 -218,-436 0,-60 116,-271 127,-308l-90 -127c-80,-2 -182,11 -182,-73 0,-98 17,-100 35,-176l-71 -42 94 3 -22 -221 -254 0 27 -31 -317 -223 -9 -109 9 -182 -1 -109 -290 73 0 -73 85 -8 -78 -136 28 -283 -180 -45 0 109 -146 0 -12 -109 12 -363c-81,19 -83,36 -181,36 -85,0 -145,-60 -145,-145 0,-93 8,-88 36,-145 -134,-201 -104,-84 -238,-162 -142,-83 7,-147 -198,-202 -17,62 -42,146 -109,146 -84,0 -109,-26 -109,-109l0 -109c-102,-9 -145,1 -145,-109l-9 -198 -354 162c-24,-98 -37,-69 -37,-146 0,-137 24,-68 21,-227l-57 118 -73 0 0 -145c-84,41 -218,88 -218,-73l-1 -191 -311 59 -87 -195 -109 0 32 -30 -354 -332 -8 92 -429 -911 -45 18 41 -144c-107,-79 -113,-154 -181,-255 -69,-104 -172,-101 -291,-181 -215,321 -581,591 -581,1126 0,295 57,352 -74,653 -49,113 -144,521 -144,691l-73 0 -10 -115 -62 79c0,-848 -752,-1795 -1272,-2143 -88,132 -181,288 -181,508l0 1344c0,232 73,276 73,508l8 546 -45 471c-436,37 -778,425 -1125,582 -392,178 -820,318 -1199,508 -377,189 -810,318 -1258,450 -120,35 -1264,408 -1285,422 0,320 -16,569 -36,835 -37,477 81,442 173,735 119,372 654,685 1134,573z"/>
   <path class="fil8" d="M44583 29012c-259,-28 -1191,-974 -1199,-1344l218 0c366,0 866,68 1090,218l291 30 189 -242 -555 -67 -1412 -208 -125 885 159 2 -43 106c177,117 878,914 878,1092 0,70 -49,118 -73,218l-181 0c-113,0 -797,-287 -945,-327l-223 1489c74,19 550,653 550,727 0,85 -60,145 -145,145l-654 0 -140 438 612 289c37,-159 232,-233 350,-632 80,-272 231,-360 304,-676l-144 -41c-17,-184 -546,-759 -546,-867l0 -109 1090 0c163,0 558,-946 654,-1126z"/>
   <path class="fil8" d="M40341 32354l-8 -146c-194,-45 -743,-436 -763,-436 -257,0 -558,670 -581,945l109 0c167,0 206,109 436,109l757 -1 50 -471z"/>
   <path class="fil8" d="M56605 33516c534,0 762,-206 1126,-291l0 -871 -617 -45 -146 8c-21,249 -573,789 -581,1162 149,13 81,37 218,37z"/>
   <path class="fil8" d="M42658 33407c39,-167 145,-483 145,-654 0,-92 -543,-399 -654,-399 -75,0 -648,827 -726,944l869 128 366 -19z"/>
   <path class="fil8" d="M52500 33806c327,0 600,-327 1054,-327l0 -181c0,-271 -252,-545 -509,-545l-181 0 -556 1011c92,25 94,42 192,42z"/>
  </g>
  <path class="fil4" d="M26363 3927l-87 -301 431 0 0 -38 -388 -48c-136,-21 -344,322 -344,474l0 129c215,-78 50,-208 388,-216zm388 3060c20,-244 618,-691 776,-733l0 -86c-235,5 -1400,819 -776,819zm-388 -3060c-338,8 -173,138 -388,216l0 -129c0,-152 208,-495 344,-474l388 48 0 38 -431 0 87 301zm86 1810c476,0 885,3 1153,-226 260,-223 614,-380 614,-808 0,-16 -241,-413 -274,-458 -113,-155 -284,-216 -442,-334 -241,-180 -675,-501 -1051,-501l-86 0c-256,0 -518,360 -518,604 0,63 201,863 231,932 84,197 319,589 373,791zm1078 431l0 86c-158,42 -756,489 -776,733 -624,0 541,-814 776,-819zm-218 1051l218 -17c134,0 258,-136 258,-301l0 -345c0,-153 -86,-26 -86,-345 -55,-37 -187,-172 -216,-172 -214,0 -1077,609 -1077,948l-1 132 904 100zm304 2267c362,242 172,375 905,431 394,30 713,129 1207,129 349,0 628,-43 811,-224 93,-92 306,-539 310,-724 -270,-22 -208,-279 -301,-518 -46,-120 -302,-532 -302,-559l0 -129c-144,-12 -914,-776 -1552,-776l-302 0c-254,0 -862,467 -862,689l11 130 -11 1163c0,126 86,115 86,388zm3190 -2155c63,-93 216,-244 216,-387 0,-672 -402,-830 -604,-1250 -601,0 -287,-175 -750,-285 -273,-64 -550,-189 -845,-189l-86 0c-374,0 -776,454 -776,819l0 129c0,381 911,667 1207,819 257,132 551,112 829,206 533,180 185,138 809,138zm-517 -1982c447,0 690,-310 690,-732l0 -733c0,-808 -1093,-732 -1897,-732l-259 0c-377,0 -647,342 -647,732l0 43c0,517 1392,1422 2113,1422zm1250 -387l0 -216c0,-89 126,-215 172,-215 165,0 16,-14 141,61l-141 68c-20,251 -25,224 -172,302zm388 1723l517 0c354,0 1466,-379 1466,-603l0 -345c0,-185 -777,-662 -965,-802 -448,-333 -623,-392 -1234,-534 -300,201 -301,157 -301,647 -52,77 -87,75 -87,172l10 172 -10 431c5,302 306,862 604,862zm-388 -1723c147,-78 152,-51 172,-302l141 -68c-125,-75 24,-61 -141,-61 -46,0 -172,126 -172,215l0 216zm1078 4352l215 0c323,0 604,-1159 604,-1552 0,-260 -292,-689 -517,-689l-259 0c-233,0 -502,162 -647,258 -565,0 -705,275 -1126,476l48 171c-68,50 -129,100 -129,215 0,33 660,650 744,722 231,197 657,399 1067,399zm-345 -6981c458,0 654,-282 991,-431 165,-72 774,-563 759,-647l17 -301c4,-137 -1065,-732 -1336,-732l-345 0c-483,0 -560,131 -560,603 -52,78 -87,76 -87,172l0 690c0,246 391,646 561,646zm1207 2154l474 0c109,0 216,-178 216,-258l0 -603c0,-158 -67,-209 -130,-302l0 -258c-102,-154 -385,-604 -603,-604 -469,0 -681,200 -1018,319 -189,67 -750,517 -750,629l0 173c0,320 518,467 776,560 275,97 698,344 1035,344zm1724 819l259 0c134,0 966,-114 1097,-154 292,-89 714,-180 714,-535l0 -302c0,-420 -1196,-948 -1725,-948l-560 0c-83,228 -388,135 -388,474l0 259c0,426 216,1206 603,1206zm-301 -2240c131,0 157,-20 258,-44 250,168 405,216 819,216l259 0c414,0 508,-237 726,-389l50 -559 0 -86c0,-295 -540,-345 -733,-466l-1810 -181 0 87 -130 0c-153,0 -258,292 -258,430l0 44c0,208 688,948 819,948zm-216 -1983l121 3 52 127c335,0 509,258 905,258l604 0c174,0 689,-548 689,-819l0 -86c0,-264 -49,-312 -120,-472l-3081 0c347,246 673,989 830,989zm4311 3146l-301 0 0 -43 301 0 0 -172 -86 0 0 -173c259,-21 131,-90 302,-215 22,96 43,99 43,215 0,99 -179,335 -259,388zm-862 43c276,0 328,86 604,86l172 0c251,0 431,-298 431,-517l0 -43c0,-260 -246,-639 -364,-842 -62,-105 -488,-670 -498,-709 -271,22 -790,203 -940,353 -130,131 -483,573 -483,810 0,166 297,472 404,544 221,148 429,154 674,318zm-690 -2198c91,-389 612,-528 431,-904l259 0c0,336 -464,786 -690,904zm-344 -258c93,140 174,388 387,388 113,0 776,-750 776,-948l0 -130c0,-337 -1121,64 -1219,88l56 602zm344 258c226,-118 690,-568 690,-904l-259 0c181,376 -340,515 -431,904zm1466 1767l0 173 86 0 0 172 -301 0 0 43 301 0c80,-53 259,-289 259,-388 0,-116 -21,-119 -43,-215 -171,125 -43,194 -302,215z"/>
  <path class="fil6" d="M18371 0l-489 0 61 794c445,-10 329,-371 428,-794zm-2809 9769c0,185 72,169 244,183l2 -190 232 59 172 -237 144 -1769c-234,157 -794,1555 -794,1954zm549 -6472l-115 1 -192 2810 -181 -124c-91,1094 -1038,2213 -1038,3724l0 244c588,-157 1221,-2725 1244,-3669l325 1248 126 -16 198 -1776 0 -1648 -112 -1 -72 -1037 -183 0 0 244zm2199 1465l-501 3287 73 11 3 1086 303 74 0 -123 122 0 -14 -184 75 -670 0 -611 131 -176 113 -923 61 -488 0 -1954c-451,37 -187,389 -366,671zm-1527 -61l-183 122 0 2076c0,349 -122,481 -122,733 0,223 54,146 71,438l234 -194c0,295 50,1771 244,1771 375,0 306,-2590 306,-3175l8 -915 -8 -856c0,-144 -188,-625 -245,-732 -42,-75 -61,-66 -61,-183l0 -184c-255,68 -238,818 -244,1099zm-1832 -2381l0 855 -122 0 0 3969c637,-53 672,-2081 672,-2870 0,-494 -26,-862 -59,-1345 -3,-38 -278,-1035 -308,-1097 -145,106 -183,235 -183,488zm-977 3603l0 3419 69 28 289 -701 253 -3052 24 -370 -147 -790c-127,94 -488,1243 -488,1466zm3664 -1588l-61 1710c681,396 668,-3989 733,-4763 -405,108 -672,2375 -672,3053zm-1160 -4335l-489 0c-80,343 -305,1182 -305,1526l0 1099c0,203 175,229 366,245 286,-1227 428,-1332 428,-2870zm1160 0l-550 0 -372 3290 67 7c231,-62 284,-490 357,-681 125,-323 304,-399 399,-639 125,-317 99,-1500 99,-1977zm794 2564c0,441 -138,823 252,857l297 -1650 -61 -1771 -427 0 -61 2564z"/>
  <path class="fil2" d="M28630 11479l366 61c87,-371 317,-487 490,-976 119,-337 182,-820 182,-1283l-122 0 0 -1038 -108 -2 -75 -670c-470,170 -553,1146 -550,1832 5,907 -255,1216 -183,2076zm-3847 -4702c127,-67 305,-213 305,61l-8 488 -114 1344 247 -544 119 -66 0 -3114c-340,249 -549,1204 -549,1831zm-4275 -3053l66 119 -150 733 23 431c0,210 45,236 61,427l122 611 54 -172 252 111 0 183c0,297 205,119 305,366l244 -1282 122 -1099 -4 -721 -167 -76 -195 -913c-136,37 -183,15 -183,183l0 489 -122 0 0 -366 -103 4 -206 906 -119 66zm7267 5557l183 0c266,-397 489,-990 489,-1649l-193 669 -113 3 -122 -794 -183 -183 -61 1954zm-2015 -5557l122 2504 427 -1221 -61 -916 0 -672 -41 -55 -447 360zm-2076 7022c0,-414 244,-1069 244,-1099l0 -305 229 2 76 425 61 -1465 -243 403 -62 -37 0 -1160c-282,406 -935,1999 -1221,2076l0 305c0,809 -100,1101 632,1178l284 -323zm-1405 -6167l305 2992c139,218 58,733 367,733 294,0 488,-1008 488,-1282l-19 -855 19 -1588 0 -549c0,-460 -509,-603 -613,-1051l-303 74 0 488c0,72 -210,967 -244,1038zm-672 -4579l-977 0c-61,261 -257,823 -549,855l0 183c0,835 -124,1221 655,1312l894 -1433 -23 -917zm5252 0l-733 0 -183 2381c-16,185 42,136 61,358l183 0 0 70 184 0c7,-335 671,-1045 671,-2259l-183 0 0 -550zm-2748 0l-1038 0c-590,1228 -611,1022 -611,2686 271,-22 433,-467 720,-684 330,-249 542,-203 805,-598l124 -1404zm183 3969l181 -417 247 50 0 1221c651,-748 764,-2557 794,-3907 -295,68 -395,306 -476,562 -126,397 -310,416 -412,687 -101,269 -334,1466 -334,1804zm-4702 1709l-977 1038 0 -183 -113 923 -131 176 0 611 183 -122 247 -250 119 66 367 -549 794 -1099 183 -794 -61 -549 0 122 -116 0 -67 -672c0,606 -85,1031 -428,1282zm1649 1038l-794 855 -611 916 61 61 367 0 0 -122 114 1 69 304c0,-340 -78,-357 183,-427l0 122c703,-59 355,-165 547,-614 74,-172 308,-692 308,-913 0,-230 -40,-115 -72,-374l-172 191zm-2809 -4152l-122 2198c179,-282 -85,-634 366,-671l0 1954c613,-410 855,-1241 855,-2259l21 -431 -163 -1138 -408 -446 -297 1650c-390,-34 -252,-416 -252,-857zm5801 11357l122 -1649 -244 -183 -158 1773c-369,-94 -330,-1937 -330,-2383 -295,119 -489,1508 -489,2015l0 305c0,609 420,873 427,1221l244 123c409,-274 145,-896 428,-1222zm-2931 -3602c-71,147 -122,267 -122,488l0 489c-417,150 -23,1177 -244,1526l0 794 65 1221 556 -153 236 20c294,-432 425,-2067 425,-2920 -210,-439 38,-495 -366,-1099l-123 0 0 -244 -225 -259 -202 137zm7688 2818l-55 -987c-482,40 -699,971 -915,1405 -233,469 -550,999 -550,1709l0 1343 183 0 0 -122 122 0 0 184 183 0 0 -123 183 0 328 -1399 179 -2 342 -2008zm-2988 -445l2 1534c0,165 -29,169 -61,306 -191,-16 -366,-42 -366,-245l0 -183c0,-558 183,-763 185,-1336l240 -76zm-975 1351c-84,133 125,1051 122,1527 -5,736 257,879 306,1465l183 0c274,0 427,-786 427,-1099l0 -3358c0,-169 -300,-364 -366,-611 -112,160 -222,935 -246,1219 -27,309 -27,1073 -365,1101l-61 -244zm-4641 3297c589,-13 1372,-1029 1694,-1420 509,-617 871,-1124 871,-2243l-293 152c-245,841 -2272,2084 -2272,3511zm3809 -1887l-154 -39c-155,82 -1970,1865 -1335,1865l245 0 259 -221 161 108 399 -141 425 -1572zm-4481 -2631l-423 830 -65 -36 0 1404c0,285 68,573 51,718 -24,207 -173,529 -173,686 0,83 67,92 122,122l-75 241 136 4c62,-234 458,-425 647,-1307 83,-388 391,-1274 391,-1563l0 -550c0,-364 -81,-765 -305,-915l-306 366zm8000 -2748c-6,270 -2,790 -244,855l-61 -183c-245,282 -428,1433 -428,2015 -131,196 -183,341 -183,672l0 488c1295,-302 1277,-2743 1405,-4274 -412,34 -211,223 -489,427zm-1893 -1526c0,408 115,581 -244,611 -324,372 -437,964 -489,1587 155,-178 267,-351 388,-589 162,-321 102,-628 355,-693l-10 1282 611 -305 244 -550 61 -1404 -129 976 -115 1 0 244 -122 0 -184 -2076 -366 916z"/>
  <path class="fil6" d="M24783 6777c-154,662 -371,1356 -367,2198 4,834 -56,1719 -122,2504 339,-28 366,-859 482,-1229 142,-458 80,-1106 190,-1580l114 -1344 8 -488c0,-274 -178,-128 -305,-61zm-489 -2808l-52 1228 -150 175 -103 2138 0 1160 62 37 243 -403c0,-1145 428,-1927 428,-3481l0 -1221 -247 -50 -181 417zm1038 977l0 3114 245 1099c359,-30 244,-203 244,-611l61 -2320 -122 -2504 -119 -621 -64 11c-308,225 -245,1275 -245,1832zm916 -855l61 916c214,-319 733,-1604 724,-2161l-601 207 0 183c0,266 -78,688 -184,855zm-61 3541l184 2076 122 0 0 -244 115 -1 129 -976 88 -1841 34 131 183 0c24,-1048 1038,-2394 1038,-3968 -440,36 -1221,2419 -1221,2930l0 672 -87 -9 -340 -1090c-275,201 -245,1790 -245,2320zm1832 -122l122 794 113 -3 193 -669c9,-432 182,-495 186,-913 3,-386 -3,-776 -3,-1163 0,-774 0,-1507 0,-2137l-122 0c-22,265 -210,588 -242,858 -50,434 -28,639 -101,1059 -117,670 -146,1429 -146,2174zm-2931 3236l-61 3297 61 244c338,-28 338,-792 365,-1101 24,-284 134,-1059 246,-1219l122 -1221 10 -1282c-253,65 -193,372 -355,693 -121,238 -233,411 -388,589zm1344 -305c-92,392 -245,621 -245,1160l0 2076c0,165 29,168 61,305 337,-90 313,-876 390,-1259 47,-232 343,-1271 343,-1305l0 -122 -73 -1282 -232 -123 -244 550zm-670 2327c-2,573 -185,778 -185,1336l0 183c0,203 175,229 366,245 32,-137 61,-141 61,-306l-2 -1534 -240 76zm-2078 -2022l-61 733c0,446 -39,2289 330,2383l158 -1773 122 -2320 -76 -425 -229 -2 0 305c0,30 -244,685 -244,1099zm3725 0l61 183c242,-65 238,-585 244,-855l61 -793 61 -1954c-16,-191 -61,-217 -61,-428l0 -1282c-477,40 -611,1395 -611,1954l0 1404c0,574 12,1057 245,1405l0 366zm-3054 1526l-122 1649 69 242 425 -169 70 -1171 -14 -245c0,-404 6,-603 -367,-611l-61 305z"/>
  <path class="fil6" d="M19714 12822l306 -366 75 -1770 -14 -734 -184 -1404 -61 -61 -119 324 -81 -20 -217 2806 -19 -178 -174 -1c-24,1062 -1038,2410 -1038,4029 435,-116 1221,-2438 1221,-2991l0 -611 122 0 144 742 39 235zm2138 -2137c404,604 156,660 366,1099l61 -2198c-447,119 -210,756 -427,1099zm-2565 -3297l-3 798 369 179c218,-453 428,-1382 428,-2076l-794 1099zm305 -1710c343,-251 428,-676 428,-1282l0 -122 -161 4 -267 1400zm611 -732l61 549 244 -61c-16,-191 -61,-217 -61,-427l-23 -431 150 -733 -66 -119 -266 -59 -39 1281zm1404 -794l-122 1099c0,259 -13,1038 183,1038 350,0 367,-1397 367,-1832l0 -61c0,-165 -29,-168 -61,-302l-367 58zm977 3419l-305 -2992 -183 4335 244 0 0 -305c0,-137 48,-134 105,-247l139 -791zm-1282 2748l202 -137 225 259 184 -3664c-418,112 -611,2751 -611,3542zm-672 -4274l-183 1526 794 -855 0 -183c-100,-247 -305,-69 -305,-366l0 -183 -252 -111 -54 172zm-2076 2076l-122 1160 -15 489 76 2869c443,-49 611,-1409 611,-1954l33 -1715 -217 -1033 -119 -66 -247 250zm2382 5495l0 -794c0,-631 0,-1262 0,-1893 0,-253 27,-741 -11,-966 -43,-259 -234,-433 -234,-682l0 -184c-343,29 -279,652 -305,1038 -31,444 -61,749 -61,1222 0,612 113,3600 366,3785 230,-168 245,-1109 245,-1526zm-2669 -2135l-18 -491 -142 -1035 -237 231c12,436 -129,722 -210,1070 -62,269 -22,889 -22,1200 0,862 0,1647 0,2381l174 7 455 -3363zm2180 -2750l110 -3 73 -302 0 -122c-261,70 -183,87 -183,427z"/>
 </g>
</svg>
