<?xml version="1.0" encoding="UTF-8"?>
<!DOCTYPE svg PUBLIC "-//W3C//DTD SVG 1.1//EN" "http://www.w3.org/Graphics/SVG/1.1/DTD/svg11.dtd">
<!-- Creator: CorelDRAW X7 -->
<svg xmlns="http://www.w3.org/2000/svg" xml:space="preserve" width="445mm" height="84.3802mm" version="1.1" style="shape-rendering:geometricPrecision; text-rendering:geometricPrecision; image-rendering:optimizeQuality; fill-rule:evenodd; clip-rule:evenodd"
viewBox="0 0 8096 1535"
 xmlns:xlink="http://www.w3.org/1999/xlink">
 <defs>
  <style type="text/css">
   <![CDATA[
    .fil2 {fill:#FEFEFE}
    .fil3 {fill:#E9599F}
    .fil0 {fill:#201E1E}
    .fil1 {fill:white}
   ]]>
  </style>
 </defs>
 <g id="Capa_x0020_1">
  <metadata id="CorelCorpID_0Corel-Layer"/>
  <path class="fil0" d="M1315 1481l0 -1431c-163,-77 -276,-72 -282,63l-282 0 32 18 -549 172 -48 105 -140 0 -46 463 46 400 54 63 620 201 595 -54 0 0z"/>
  <rect class="fil0" x="1273" y="50" width="6823" height="1423"/>
  <g>
   <path class="fil1" d="M606 1266l0 -404 -136 0 0 -161 136 0 0 -127c0,-138 84,-213 207,-213 59,0 109,5 124,7l0 144 -85 0c-67,0 -80,31 -80,78l0 111 151 0 -21 161 -130 0 0 404 -166 0zm0 0l0 0 0 0z"/>
  </g>
  <path class="fil2" d="M1899 1077l0 -210 -183 0 0 210 -98 0 0 -469 98 0 0 177 183 0 0 -177 99 0 0 469 -99 0zm130 0l0 -469 344 0 0 82 -249 0 0 101 229 0 0 82 -229 0 0 121 261 0 0 83 -356 0zm467 -387l0 125 123 0c26,0 45,-6 56,-18 11,-12 16,-27 16,-45 0,-18 -5,-33 -16,-45 -11,-12 -28,-17 -53,-17l-126 0zm178 387l0 -121c0,-22 -5,-38 -16,-48 -10,-10 -29,-14 -57,-14l-105 0 0 183 -95 0 0 -469 238 0c21,0 41,4 59,11 17,6 32,16 45,28 13,12 23,26 29,43 7,17 11,35 11,54 0,25 -6,48 -18,67 -12,20 -30,34 -52,42 21,6 35,16 44,30 9,14 13,34 13,61l0 133 -96 0zm494 0l0 -321 -87 321 -98 0 -87 -320 0 320 -91 0 0 -469 144 0 85 344 85 -344 141 0 0 469 -92 0zm333 -363l0 0 -60 186 119 0 -59 -186zm117 363l-30 -97 -173 0 -33 97 -104 0 168 -469 113 0 166 469 -107 0zm416 0l-200 -315 0 315 -91 0 0 -469 104 0 186 302 0 -302 92 0 0 469 -91 0zm332 -363l-1 0 -60 186 119 0 -58 -186zm116 363l-30 -97 -173 0 -33 97 -104 0 168 -469 113 0 166 469 -107 0zm369 -330c-3,-24 -11,-42 -26,-54 -16,-12 -38,-18 -68,-18 -56,0 -84,20 -84,58 0,13 6,25 18,34 11,9 30,17 55,23 30,7 56,13 79,20 22,6 42,13 60,21 11,4 20,9 30,16 9,6 16,14 23,23 6,10 11,21 15,34 4,13 6,29 6,48 0,23 -5,43 -14,60 -10,18 -23,32 -39,44 -16,12 -34,22 -56,28 -22,6 -45,9 -69,9 -68,0 -119,-13 -153,-39 -35,-26 -53,-66 -55,-117l95 0c0,24 10,43 29,57 19,13 43,20 72,20 31,0 54,-5 70,-17 16,-11 24,-26 24,-45 0,-8 -1,-15 -2,-21 -2,-7 -6,-12 -11,-18 -6,-5 -13,-9 -23,-13 -9,-4 -21,-8 -36,-11 -36,-8 -67,-15 -93,-23 -26,-8 -48,-18 -65,-29 -17,-12 -29,-26 -37,-42 -8,-17 -12,-38 -12,-63 0,-19 3,-37 10,-54 7,-17 18,-32 33,-45 14,-12 32,-22 54,-29 21,-7 47,-11 76,-11 28,0 53,4 76,11 23,7 42,17 58,31 16,13 29,30 38,49 9,19 14,40 15,63l-93 0z"/>
  <path class="fil3" d="M5438 915c-5,27 -14,51 -25,73 -11,22 -25,40 -43,56 -17,15 -37,27 -59,36 -23,8 -48,13 -75,13 -31,0 -59,-6 -86,-16 -26,-10 -49,-26 -69,-47 -19,-20 -34,-46 -45,-76 -11,-31 -17,-66 -17,-106 0,-40 5,-76 15,-107 11,-32 25,-59 44,-81 19,-22 42,-39 69,-50 27,-12 57,-18 90,-18 30,0 56,4 80,13 24,9 44,21 61,36 17,15 31,33 41,54 10,21 17,43 19,66l-98 0c-7,-26 -20,-47 -38,-62 -19,-15 -40,-22 -64,-22 -41,0 -71,14 -90,44 -20,29 -29,70 -29,121 0,52 9,93 28,122 19,29 48,43 86,43 29,0 53,-8 70,-23 18,-16 30,-39 37,-69l98 0zm297 161l0 -210 -183 0 0 210 -98 0 0 -468 98 0 0 176 183 0 0 -176 99 0 0 468 -99 0zm130 0l0 -468 98 0 0 468 -98 0zm349 -67c18,0 34,-4 50,-10 15,-6 29,-16 41,-29 11,-13 20,-29 27,-50 6,-20 10,-44 10,-72 0,-55 -11,-97 -33,-126 -22,-29 -53,-43 -95,-43 -41,0 -73,14 -95,43 -22,29 -33,71 -33,126 0,56 11,96 34,122 22,26 54,39 94,39zm0 84c-72,0 -128,-22 -166,-64 -39,-42 -59,-103 -59,-183 0,-39 5,-75 15,-106 10,-32 25,-59 44,-81 19,-21 43,-38 70,-50 28,-11 60,-17 96,-17 36,0 68,6 96,17 28,12 52,29 70,51 19,22 34,49 43,81 10,31 15,67 15,107 0,81 -19,142 -57,183 -39,41 -94,62 -167,62zm238 -17l0 -83 243 -304 -236 0 0 -81 359 0 0 77 -245 308 245 0 0 83 -366 0zm372 0l0 -83 243 -304 -236 0 0 -81 359 0 0 77 -245 308 245 0 0 83 -366 0zm594 -363l0 0 -60 186 119 0 -59 -186zm117 363l-30 -96 -173 0 -33 96 -104 0 167 -468 114 0 165 468 -106 0z"/>
 </g>
</svg>
