<?xml version="1.0" encoding="utf-8"?>
<!-- Generator: Adobe Illustrator 17.0.0, SVG Export Plug-In . SVG Version: 6.00 Build 0)  -->
<!DOCTYPE svg PUBLIC "-//W3C//DTD SVG 1.1//EN" "http://www.w3.org/Graphics/SVG/1.1/DTD/svg11.dtd">
<svg version="1.1" id="Capa_1" xmlns="http://www.w3.org/2000/svg" xmlns:xlink="http://www.w3.org/1999/xlink" x="0px" y="0px"
	 width="726px" height="248.5px" viewBox="0 0 726 248.5" enable-background="new 0 0 726 248.5" xml:space="preserve">
<g>
	<path fill-rule="evenodd" clip-rule="evenodd" fill="#201E1E" d="M204.36,238.591V15.59c-25.313-11.906-42.945-11.169-43.937,9.95
		h-43.965l4.961,2.721L36.01,55.077l-7.455,16.384H6.7l-7.2,72.028l7.2,62.334l8.447,9.921l96.605,31.294L204.36,238.591
		L204.36,238.591z"/>
	<path fill-rule="evenodd" clip-rule="evenodd" fill="#FFFFFF" d="M109.002,69.477c-38.466,0-70.016,31.294-70.016,70.044
		c0,38.721,31.55,70.016,70.016,70.016c38.75,0,70.044-31.294,70.044-70.016C179.047,100.771,147.752,69.477,109.002,69.477
		L109.002,69.477z M109.002,195.873c-31.039,0-56.353-25.058-56.353-56.353s25.313-56.381,56.353-56.381
		c31.294,0,56.636,25.087,56.636,56.381S140.297,195.873,109.002,195.873L109.002,195.873z M126.634,166.591l-24.066-17.376
		c-0.765-0.765-1.247-1.757-1.247-2.75v-46.432c0-1.984,1.474-3.487,3.231-3.487h9.184c1.729,0,3.231,1.502,3.231,3.487v39.969
		l18.879,13.663c1.474,1.247,1.984,3.232,0.737,4.734l-5.216,7.427C130.121,167.328,128.136,167.584,126.634,166.591
		L126.634,166.591z"/>
	<rect x="197.925" y="15.59" fill-rule="evenodd" clip-rule="evenodd" fill="#201E1E" width="528.435" height="221.754"/>
</g>
<g>
	<rect x="270" y="46.5" fill-rule="evenodd" clip-rule="evenodd" fill="none" width="402" height="158"/>
	<path fill="#FFFFFF" d="M280.656,105.496c-0.444-0.346-0.938-0.753-1.48-1.221c-0.543-0.469-1.012-0.901-1.406-1.295
		c-2.714-2.713-4.046-6.042-3.996-9.99c0-1.628,0.172-3.28,0.518-4.958c0.345-1.676,0.764-3.317,1.258-4.921
		c0.493-1.603,1.061-3.095,1.702-4.477c0.641-1.38,1.258-2.59,1.85-3.626c1.38-2.368,2.86-4.71,4.44-7.03
		c1.578-2.318,3.206-4.76,4.884-7.326c-0.543-0.493-0.999-0.925-1.369-1.295c-0.37-0.37-0.777-0.826-1.221-1.369
		c-0.79-0.937-1.16-1.961-1.11-3.071c0.048-1.11,0.493-2.035,1.332-2.775c1.38-1.233,2.897-2.121,4.551-2.664
		c1.652-0.542,3.416-0.814,5.291-0.814c3.552,0,6.845,0.604,9.879,1.813c3.033,1.209,5.66,2.923,7.881,5.143
		c2.021,2.023,3.404,4.268,4.145,6.734c0.739,2.467,1.109,5.032,1.109,7.696c0,2.467-0.346,4.897-1.036,7.289
		c-0.691,2.394-1.616,4.712-2.774,6.956c-1.16,2.246-2.492,4.379-3.996,6.401c-1.506,2.023-3.071,3.874-4.699,5.55
		c-2.96,3.158-5.994,6.056-9.102,8.695c-3.108,2.639-6.438,5.217-9.991,7.733c-0.987,0.69-2.134,1.356-3.441,1.998
		c-1.308,0.641-2.579,0.962-3.811,0.962c-0.396,0.049-0.802,0.037-1.221-0.037c-0.419-0.074-0.827-0.161-1.221-0.259
		c-0.642-0.198-1.197-0.481-1.665-0.851c-0.469-0.37-0.777-0.876-0.925-1.517c-0.1-0.444-0.1-0.938,0-1.48
		c0.098-0.543,0.418-1.085,0.962-1.628c0.74-0.79,1.48-1.505,2.22-2.146C278.954,107.074,279.768,106.334,280.656,105.496z
		 M298.268,57.544c0.691,1.628,0.875,3.047,0.556,4.255c-0.321,1.209-1.296,2.701-2.923,4.477c-2.319,2.516-4.403,5.156-6.253,7.918
		c-1.85,2.764-3.564,5.649-5.143,8.658c-0.396,0.691-0.802,1.53-1.221,2.516c-0.42,0.988-0.814,2.023-1.184,3.108
		c-0.37,1.085-0.679,2.195-0.925,3.33c-0.247,1.136-0.37,2.22-0.37,3.256c0,1.875,0.592,3.404,1.776,4.588
		c0.493,0.494,0.974,0.925,1.443,1.295c0.468,0.37,0.899,0.679,1.295,0.925c0.542-0.395,1.097-0.777,1.665-1.147
		c0.567-0.37,1.122-0.777,1.665-1.221c2.812-2.269,5.476-4.736,7.993-7.4c2.516-2.664,4.71-5.278,6.586-7.844
		c1.924-2.664,3.515-5.574,4.772-8.732c1.258-3.157,1.888-6.29,1.888-9.398c0-1.184-0.235-2.318-0.703-3.404
		c-0.471-1.085-1.1-2.035-1.888-2.849c-0.79-0.814-1.702-1.48-2.737-1.998c-1.037-0.518-2.146-0.777-3.33-0.777
		C300.191,57.1,299.205,57.248,298.268,57.544z"/>
	<path fill="#FFFFFF" d="M339.782,103.276c-2.023,1.726-4.268,2.91-6.734,3.552c-1.233,0.345-2.516,0.518-3.848,0.518
		c-1.876,0-3.565-0.321-5.069-0.962c-1.506-0.642-2.948-1.678-4.329-3.108c-0.839-0.838-1.419-1.924-1.739-3.256
		s-0.506-2.59-0.555-3.774c-0.1-1.924,0.012-3.823,0.333-5.698c0.32-1.874,0.825-3.848,1.517-5.92
		c0.691-2.072,1.529-4.021,2.517-5.846c0.986-1.824,2.171-3.428,3.552-4.81c1.283-1.282,2.676-2.294,4.182-3.034
		c1.504-0.74,3.119-1.11,4.847-1.11c0.986,0,1.961,0.111,2.923,0.333c0.962,0.222,1.887,0.581,2.775,1.073
		c1.282,0.691,2.194,1.58,2.737,2.664c0.543,1.085,0.814,2.319,0.814,3.7c0,1.184-0.42,2.368-1.258,3.552
		c-1.284,1.826-2.838,3.478-4.662,4.958c-2.122,1.678-4.366,3.083-6.734,4.218c-0.888,0.444-1.702,0.84-2.442,1.184
		c-0.739,0.346-1.455,0.642-2.146,0.888c-0.147,0.346-0.296,0.814-0.444,1.406c-0.147,0.592-0.271,1.16-0.369,1.702
		c-0.1,0.642-0.174,1.284-0.223,1.924c-0.049,0.642-0.074,1.284-0.074,1.924c-0.049,0.839,0.16,1.505,0.629,1.998
		c0.469,0.494,1.048,0.74,1.74,0.74c0.838,0,1.701-0.209,2.59-0.629c0.887-0.418,1.676-0.851,2.367-1.295
		c3.453-2.269,6.783-4.785,9.99-7.548c0.246-0.247,0.469-0.456,0.666-0.629c0.196-0.172,0.395-0.357,0.592-0.555
		c0.148-0.099,0.333-0.234,0.556-0.407c0.222-0.172,0.468-0.308,0.739-0.407c0.271-0.099,0.556-0.135,0.852-0.111
		c0.296,0.025,0.566,0.161,0.813,0.407c0.296,0.346,0.456,0.74,0.481,1.184c0.024,0.444-0.013,0.864-0.111,1.258
		c-0.147,0.938-0.493,1.801-1.036,2.59c-0.789,1.184-1.788,2.479-2.997,3.885C342.014,101.241,340.866,102.388,339.782,103.276z
		 M336.896,76.192c-0.247-0.197-0.555-0.271-0.925-0.222c-0.37,0.05-0.703,0.148-0.999,0.296c-0.987,0.494-1.899,1.16-2.737,1.998
		c-0.544,0.543-1.037,1.147-1.48,1.813s-0.84,1.321-1.184,1.961c-0.148,0.296-0.285,0.617-0.407,0.962
		c-0.124,0.346-0.21,0.666-0.259,0.962c0.592,0.1,1.158,0.025,1.701-0.222c0.889-0.344,1.641-0.714,2.258-1.11
		c0.616-0.394,1.221-0.863,1.813-1.406c0.493-0.493,0.949-1.023,1.369-1.591c0.419-0.566,0.777-1.221,1.073-1.961
		c0.098-0.246,0.122-0.53,0.074-0.851C337.143,76.5,337.044,76.292,336.896,76.192z"/>
	<path fill="#FFFFFF" d="M384.033,83.74c1.528,2.616,2.86,5.131,3.996,7.548c0.395,0.839,0.653,1.579,0.777,2.22
		c0.122,0.642,0.159,1.308,0.11,1.998c-0.099,1.135-0.419,2.208-0.962,3.219c-0.543,1.012-1.258,1.961-2.146,2.849
		c-1.036,1.036-2.257,1.998-3.663,2.886c-1.406,0.888-2.85,1.332-4.329,1.332c-1.136,0.098-2.183-0.124-3.146-0.666
		c-0.962-0.543-1.813-1.184-2.553-1.924c-1.728-1.824-2.64-3.97-2.737-6.438c0-1.528,0.135-2.923,0.406-4.181
		c0.271-1.258,0.604-2.454,0.999-3.589c0.345-0.986,0.703-2.022,1.073-3.108c0.37-1.084,0.752-2.194,1.147-3.33
		c-0.396-0.592-0.729-1.084-0.999-1.48c-0.272-0.394-0.605-0.888-0.999-1.48c-1.678-2.417-2.517-4.858-2.517-7.326
		c0-2.762,1.085-5.376,3.256-7.844c0.493-0.542,0.974-1.06,1.443-1.554c0.468-0.493,1.023-1.061,1.665-1.702
		c1.479-1.48,3.206-2.725,5.18-3.737c1.973-1.011,3.996-1.517,6.068-1.517c1.232,0,2.453,0.222,3.663,0.666
		c1.208,0.444,2.281,1.048,3.219,1.813c0.937,0.765,1.689,1.678,2.257,2.738c0.566,1.062,0.826,2.183,0.777,3.367
		c0,1.48-0.444,3.059-1.332,4.736c-0.592,1.135-1.308,2.22-2.146,3.256c-0.839,1.036-1.678,2.072-2.516,3.108
		c-0.79,1.036-1.554,2.023-2.294,2.96c-0.74,0.938-1.506,1.924-2.294,2.96c-0.198,0.247-0.396,0.543-0.592,0.888
		C384.649,82.753,384.378,83.198,384.033,83.74z M379.741,90.77c-0.247,0.396-0.506,0.827-0.776,1.295
		c-0.272,0.469-0.556,1.049-0.852,1.739c-0.592,1.432-0.888,2.837-0.888,4.218c0,0.444,0.122,0.851,0.37,1.221
		c0.246,0.37,0.592,0.555,1.036,0.555c1.084,0,1.898-0.37,2.441-1.11c0.74-0.789,1.11-1.875,1.11-3.256
		c0-0.937-0.248-1.776-0.74-2.516C380.949,92.176,380.382,91.461,379.741,90.77z M387.808,62.65
		c-0.346-0.246-0.777-0.333-1.295-0.259c-0.519,0.074-0.951,0.185-1.295,0.333c-0.84,0.395-1.604,0.863-2.294,1.406
		c-0.692,0.543-1.357,1.135-1.998,1.776c-1.234,1.234-2.246,2.689-3.034,4.366c-0.396,0.938-0.519,1.751-0.37,2.442
		c0.147,0.642,0.518,1.184,1.11,1.628c1.38-1.43,2.897-3.071,4.551-4.921c1.652-1.85,3.169-3.539,4.551-5.069
		c0.246-0.247,0.382-0.542,0.407-0.888C388.165,63.119,388.054,62.848,387.808,62.65z"/>
	<path fill="#FFFFFF" d="M453.074,87.958c-0.493,0.987-0.987,1.974-1.479,2.96c-0.494,0.987-0.988,1.998-1.48,3.034
		c-0.346,0.692-0.567,1.469-0.666,2.331c-0.1,0.864,0.123,1.567,0.666,2.109c0.345,0.346,0.752,0.555,1.221,0.629
		c0.469,0.074,0.899,0.111,1.295,0.111c0.937,0,1.851-0.085,2.738-0.259c0.888-0.172,1.801-0.407,2.738-0.703
		c0.69-0.246,1.406-0.456,2.146-0.629c0.74-0.172,1.307-0.037,1.702,0.407c0.246,0.396,0.357,0.851,0.333,1.369
		c-0.025,0.518-0.259,0.975-0.703,1.369c-1.382,1.135-2.8,2.011-4.255,2.627s-3.097,0.949-4.921,0.999
		c-1.728,0.048-3.306-0.272-4.736-0.962c-1.431-0.69-2.713-1.603-3.848-2.738c-0.543-0.542-1.099-1.245-1.665-2.109
		c-0.567-0.863-1.049-1.739-1.443-2.627c-0.691,0.543-1.221,0.975-1.591,1.295c-0.37,0.321-0.802,0.654-1.295,0.999
		c-0.839,0.592-1.678,1.16-2.516,1.702c-0.84,0.543-1.728,1.061-2.664,1.554c-1.53,0.79-3.034,1.197-4.514,1.221
		c-1.48,0.025-2.937-0.58-4.366-1.813c-1.432-1.282-2.233-2.676-2.405-4.181c-0.174-1.504-0.013-3.045,0.481-4.625
		c0.788-2.318,1.813-4.464,3.07-6.438c1.259-1.973,2.676-3.749,4.255-5.328c1.776-1.776,3.712-3.304,5.81-4.588
		c2.096-1.282,4.403-1.973,6.919-2.072c1.282,0,2.49,0.124,3.626,0.37c1.134,0.248,2.072,0.716,2.812,1.406
		c0.74,0.642,1.209,1.456,1.406,2.442c0.196,0.987,0.616,1.85,1.258,2.59c0.641,0.74,1.259,1.53,1.851,2.368
		c0.69,1.135,1.011,2.061,0.962,2.775C453.765,86.269,453.519,87.07,453.074,87.958z M428.876,96.246
		c0.345,0.197,0.703,0.222,1.073,0.074s0.678-0.296,0.925-0.444c1.332-0.838,2.602-1.739,3.812-2.701
		c1.208-0.962,2.379-1.985,3.515-3.071c0.986-0.937,1.936-1.875,2.849-2.812c0.913-0.937,1.813-1.898,2.701-2.886
		c0.493-0.493,0.814-1.023,0.962-1.591c0.148-0.566,0-1.073-0.443-1.517c-0.592-0.74-1.53-0.838-2.813-0.296
		c-2.714,1.184-5.105,2.788-7.178,4.81c-2.27,2.22-4.17,4.958-5.698,8.214c-0.147,0.296-0.234,0.679-0.259,1.147
		C428.296,95.642,428.48,96,428.876,96.246z"/>
	<path fill="#FFFFFF" d="M491.627,75.452c-0.396,0.248-0.802,0.507-1.221,0.777c-0.42,0.271-0.803,0.531-1.146,0.777
		c-0.692,0.444-1.493,0.901-2.405,1.369c-0.914,0.469-1.641,0.703-2.184,0.703c-0.443,0-0.888-0.085-1.332-0.259
		c-0.443-0.172-0.789-0.456-1.035-0.851c-0.494-0.789-0.74-1.603-0.74-2.442c0-0.986,0.37-1.924,1.109-2.812
		c1.431-1.875,2.874-3.737,4.329-5.587s2.897-3.688,4.329-5.513c0.986-1.282,2.134-2.417,3.441-3.404
		c1.307-0.986,2.823-1.48,4.551-1.48c2.022,0,3.946,1.16,5.772,3.478c0.492,0.642,0.825,1.308,0.999,1.998
		c0.172,0.691,0.259,1.332,0.259,1.924c0,1.53-0.223,3.01-0.666,4.44c-0.444,1.432-0.938,2.862-1.48,4.292
		c-0.642,1.678-1.172,3.245-1.591,4.699c-0.42,1.456-0.876,3.096-1.369,4.921c-0.691,2.664-1.345,5.254-1.961,7.77
		c-0.617,2.516-1.271,5.082-1.961,7.696c-0.247,0.839-0.493,1.728-0.74,2.664c-0.247,0.938-0.567,1.826-0.962,2.664
		c-0.296,0.69-0.703,1.184-1.221,1.48s-1.049,0.444-1.591,0.444c-0.592,0-1.222-0.21-1.888-0.629
		c-0.666-0.419-1.146-0.95-1.442-1.591c-0.248-0.542-0.42-1.11-0.519-1.702c-0.099-0.592-0.147-1.159-0.147-1.702
		c0-2.22,0.111-4.415,0.333-6.586c0.222-2.17,0.48-4.366,0.776-6.586c0.247-1.578,0.493-3.243,0.74-4.995
		C490.911,79.658,491.231,77.672,491.627,75.452z"/>
	<path fill="#FFFFFF" d="M522.854,94.1c0.641-0.049,1.232-0.099,1.775-0.148c0.543-0.048,1.085-0.074,1.628-0.074
		c1.925,0,3.799,0.173,5.624,0.518c1.825,0.346,3.725,0.938,5.698,1.776c0.592,0.248,1.158,0.543,1.702,0.888
		c0.542,0.346,0.962,0.79,1.258,1.332c0.296,0.543,0.345,1.147,0.148,1.813c-0.198,0.666-0.618,0.999-1.259,0.999
		c-0.888,0.049-1.764,0.049-2.627,0c-0.863-0.049-1.714-0.074-2.553-0.074c-2.121-0.048-4.28,0.074-6.475,0.37
		c-2.196,0.296-4.305,0.888-6.327,1.776c-1.48,0.69-3.034,1.06-4.662,1.11c-2.172,0.049-3.897-0.74-5.18-2.368
		c-0.79-0.937-1.185-1.948-1.185-3.034c0-1.43,0.407-2.836,1.222-4.218c0.813-1.381,1.615-2.664,2.404-3.848
		c1.776-2.713,3.576-5.414,5.402-8.103c1.824-2.688,3.626-5.389,5.402-8.103c0.838-1.282,1.652-2.676,2.441-4.181
		c0.789-1.504,1.185-2.873,1.185-4.107c0-0.542-0.186-1.011-0.556-1.406c-0.37-0.395-0.851-0.592-1.442-0.592
		c-0.79,0-1.493,0.235-2.109,0.703c-0.617,0.469-1.173,0.999-1.665,1.591c-0.642,0.79-1.209,1.752-1.702,2.886
		c-0.147,0.346-0.396,0.642-0.74,0.888c-0.346,0.248-0.765,0.37-1.258,0.37c-0.443,0-0.851-0.111-1.221-0.333
		c-0.37-0.222-0.604-0.505-0.703-0.851c-0.147-0.444-0.247-0.925-0.296-1.443c-0.05-0.518-0.05-1.023,0-1.517
		c0.099-1.43,0.419-2.75,0.962-3.959c0.542-1.208,1.307-2.257,2.294-3.145c1.282-1.134,2.639-1.911,4.07-2.331
		c1.43-0.418,2.935-0.579,4.514-0.481c1.185,0,2.318,0.235,3.404,0.703c1.084,0.469,2.022,1.099,2.812,1.887
		c0.839,0.839,1.468,1.789,1.888,2.849c0.418,1.062,0.629,2.159,0.629,3.293c0,0.79-0.124,1.617-0.37,2.479
		c-0.248,0.864-0.567,1.715-0.962,2.553c-1.728,3.306-3.504,6.538-5.328,9.694c-1.826,3.158-3.7,6.29-5.624,9.398
		c-0.396,0.691-0.753,1.345-1.073,1.961C523.68,92.238,523.298,93.064,522.854,94.1z"/>
	<path fill="#FFFFFF" d="M577.909,79.67c1.134-0.049,2.281-0.098,3.441-0.148c1.158-0.049,2.157-0.123,2.996-0.222
		c0.69-0.098,1.455-0.196,2.295-0.296c0.838-0.098,1.701-0.222,2.59-0.37c0.196-0.641,0.357-1.221,0.48-1.739
		s0.308-1.171,0.556-1.961c0.986-3.453,2.12-6.758,3.403-9.916c0.543-1.233,1.11-2.442,1.702-3.626
		c0.592-1.184,1.258-2.294,1.998-3.33c0.542-0.789,1.319-1.282,2.331-1.48c1.011-0.197,2.06-0.099,3.145,0.296
		c0.986,0.296,1.689,0.839,2.109,1.628c0.419,0.79,0.432,1.604,0.037,2.442c-0.543,1.382-1.11,2.751-1.702,4.107
		c-0.592,1.357-1.159,2.727-1.702,4.107c-0.543,1.233-1.062,2.627-1.554,4.181c-0.494,1.554-0.888,2.949-1.184,4.181
		c0.689,0.1,1.195,0.173,1.517,0.222c0.32,0.049,0.728,0.173,1.221,0.37c0.937,0.396,1.406,1.136,1.406,2.22
		c0,1.085-0.42,1.974-1.258,2.664c-0.396,0.346-0.766,0.617-1.11,0.814c-0.346,0.198-0.789,0.419-1.332,0.666
		c-0.543,0.248-0.975,0.419-1.295,0.518c-0.321,0.099-0.753,0.222-1.295,0.37c-0.147,0.396-0.259,0.729-0.333,0.999
		c-0.074,0.272-0.16,0.629-0.259,1.073c-0.248,1.234-0.407,2.344-0.481,3.33c-0.073,0.987-0.16,2.097-0.259,3.33
		c-0.147,2.072-0.074,4.193,0.222,6.364c0.099,0.396,0.136,0.814,0.111,1.258c-0.025,0.444-0.16,0.814-0.407,1.11
		c-0.346,0.346-0.839,0.518-1.479,0.518c-0.987,0-1.924-0.493-2.813-1.48c-0.739-0.789-1.345-1.652-1.813-2.59
		c-0.47-0.937-0.803-1.726-0.999-2.368c-0.296-0.937-0.507-1.899-0.629-2.886c-0.124-0.986-0.211-1.973-0.259-2.96
		c-0.05-0.789-0.063-1.565-0.037-2.331c0.024-0.764,0.085-1.542,0.185-2.331c-0.74,0.05-1.542,0.087-2.405,0.111
		c-0.863,0.026-2.034,0.063-3.515,0.111c-1.036,0.05-2.023,0.074-2.96,0.074c-0.938,0-1.875,0-2.813,0
		c-0.247,0.444-0.432,0.864-0.555,1.258c-0.124,0.396-0.234,0.79-0.333,1.184c-0.396,1.431-0.753,2.886-1.073,4.366
		c-0.321,1.48-0.555,3.01-0.702,4.588c-0.1,1.136-0.1,2.22,0,3.256c0.098,1.036,0.492,2.022,1.184,2.96
		c0.246,0.344,0.566,0.764,0.962,1.258c0.148,0.148,0.246,0.382,0.296,0.703c0.049,0.32-0.025,0.629-0.222,0.925
		c-0.198,0.345-0.507,0.604-0.925,0.777c-0.42,0.172-0.852,0.233-1.295,0.185c-1.036-0.049-2.098-0.518-3.183-1.406
		c-1.036-0.839-1.85-1.641-2.441-2.405c-0.593-0.766-1.11-1.764-1.555-2.997c-0.296-0.838-0.48-1.665-0.555-2.479
		s-0.087-1.591-0.037-2.331c0.049-2.121,0.345-4.292,0.888-6.512c1.135-4.933,2.454-9.706,3.959-14.319
		c1.505-4.612,3.22-9.237,5.144-13.875c0.542-1.232,1.121-2.417,1.739-3.552c0.616-1.134,1.27-2.269,1.961-3.404
		c0.542-0.838,1.232-1.578,2.071-2.22c0.839-0.64,1.801-1.01,2.887-1.11c0.542-0.048,1.084,0,1.628,0.148
		c0.542,0.148,1.01,0.37,1.405,0.666c0.593,0.396,0.863,0.876,0.814,1.443c-0.05,0.568-0.198,1.123-0.444,1.665
		c-1.431,2.812-2.737,5.613-3.922,8.399c-1.184,2.788-2.294,5.637-3.33,8.547c-0.396,1.135-0.766,2.257-1.109,3.367
		C578.674,76.895,578.304,78.19,577.909,79.67z"/>
	<path fill="#FFFFFF" d="M609.211,95.58c-0.05-2.318-0.063-4.612-0.037-6.882c0.024-2.269,0.062-4.514,0.111-6.734
		c0.049-1.875,0.209-3.737,0.481-5.587c0.271-1.85,0.727-3.638,1.368-5.365c0.395-1.134,0.889-2.072,1.48-2.812
		c0.592-0.74,1.307-1.38,2.146-1.924c1.48-1.036,3.133-1.554,4.958-1.554c1.776,0,3.453,0.47,5.032,1.406
		c1.135,0.642,1.652,1.58,1.555,2.812c0,0.74-0.297,1.406-0.889,1.998c-0.74,0.74-1.554,1.332-2.441,1.776
		c-1.382,0.691-2.356,1.591-2.924,2.701c-0.567,1.11-0.975,2.356-1.221,3.737c-0.197,1.086-0.321,2.159-0.37,3.219
		c-0.05,1.061-0.073,2.134-0.073,3.219c0,1.284,0.023,2.516,0.073,3.7c0.049,1.184,0.123,2.393,0.223,3.626
		c1.528-0.296,2.997-0.567,4.402-0.814c1.406-0.247,2.824-0.493,4.255-0.74c1.185-0.196,2.343-0.345,3.479-0.444
		c1.134-0.098,2.294-0.148,3.478-0.148c0.789,0,1.455,0.124,1.998,0.37c0.543,0.248,0.839,0.716,0.889,1.406
		c0.048,0.592-0.174,1.036-0.666,1.332c-0.494,0.296-1.012,0.568-1.555,0.814c-1.678,0.444-3.343,0.914-4.995,1.406
		c-1.653,0.494-3.293,0.962-4.921,1.406c-0.839,0.248-1.813,0.531-2.923,0.851c-1.109,0.321-2.158,0.629-3.145,0.925
		c-0.05,0.938-0.074,1.838-0.074,2.701c0,0.864-0.025,1.788-0.074,2.775c-0.05,1.38-0.147,2.824-0.296,4.329
		c-0.147,1.504-0.37,2.972-0.666,4.403c-0.296,1.48-0.716,2.997-1.258,4.551c-0.544,1.554-1.233,2.923-2.072,4.107
		c-0.592,0.838-1.283,1.517-2.072,2.035c-0.789,0.518-1.678,0.826-2.664,0.925c-0.987,0-1.997-0.161-3.033-0.481
		c-1.036-0.322-2.048-0.729-3.034-1.221c-0.987-0.494-1.911-1.049-2.775-1.665c-0.862-0.617-1.591-1.221-2.183-1.813
		c-1.232-1.233-2.121-2.516-2.664-3.848c-0.542-1.332-0.814-2.713-0.814-4.144c0-2.616,0.679-4.995,2.035-7.141
		c1.357-2.146,3.047-3.86,5.069-5.143c1.134-0.74,2.257-1.43,3.367-2.072C606.88,96.938,608.027,96.271,609.211,95.58z
		 M609.211,103.572c-0.296,0.049-0.642,0.148-1.036,0.296c-0.396,0.148-0.715,0.296-0.962,0.444
		c-0.543,0.344-1.072,0.703-1.591,1.073c-0.518,0.37-0.999,0.801-1.442,1.295c-1.086,1.233-1.652,2.442-1.702,3.626
		c-0.049,0.888,0.123,1.899,0.518,3.034c0.395,0.888,0.912,1.8,1.554,2.738c0.197,0.247,0.444,0.469,0.74,0.666
		c0.296,0.197,0.616,0.296,0.962,0.296c0.69,0,1.232-0.358,1.628-1.073c0.395-0.716,0.69-1.566,0.889-2.553
		c0.196-0.938,0.344-1.913,0.443-2.923c0.099-1.012,0.148-1.863,0.148-2.553c0-1.136-0.013-2.011-0.037-2.627
		C609.297,104.693,609.26,104.114,609.211,103.572z"/>
	<path fill="#FFFFFF" d="M647.32,103.276c-0.05,0.592-0.296,1.184-0.74,1.776c-0.444,0.592-1.086,1.084-1.924,1.48
		c-1.678,0.74-3.231,0.518-4.662-0.666c-0.396-0.346-0.729-0.74-0.999-1.184c-0.271-0.444-0.53-0.888-0.777-1.332
		c-0.443-0.888-0.629-1.776-0.555-2.664c0.074-0.888,0.407-1.603,0.999-2.146c0.641-0.542,1.344-0.949,2.109-1.221
		c0.764-0.271,1.565-0.233,2.404,0.111c1.48,0.494,2.564,1.197,3.256,2.109C647.122,100.452,647.418,101.698,647.32,103.276z"/>
	<path fill="#FFFFFF" d="M294.864,167.212c1.184-3.157,2.306-6.191,3.367-9.102c1.061-2.911,2.158-5.796,3.293-8.658
		c0.593-1.528,1.246-3.021,1.961-4.477c0.715-1.455,1.492-2.873,2.332-4.255c1.084-1.825,2.466-3.305,4.144-4.44
		c0.592-0.395,1.245-0.666,1.961-0.814c0.715-0.148,1.442-0.197,2.183-0.148c1.037,0.049,2.146,0.518,3.33,1.406
		c0.789,0.592,1.369,1.295,1.739,2.109s0.556,1.641,0.556,2.479c0,0.79-0.198,1.58-0.592,2.368c-0.198,0.396-0.371,0.766-0.519,1.11
		c-0.147,0.346-0.321,0.716-0.519,1.11c-1.875,4.193-3.662,8.461-5.365,12.802c-1.701,4.342-3.219,8.684-4.551,13.024
		c-0.641,2.171-1.209,4.218-1.701,6.142c-0.494,1.924-0.901,3.848-1.221,5.772c-0.322,1.924-0.556,3.874-0.703,5.846
		c-0.148,1.974-0.223,4.094-0.223,6.364c0,0.493,0.012,1.011,0.037,1.554c0.024,0.542-0.013,1.073-0.111,1.591
		c-0.1,0.518-0.284,0.962-0.555,1.332c-0.271,0.37-0.703,0.604-1.295,0.703c-0.691,0.148-1.32,0.111-1.887-0.111
		c-0.568-0.222-1.086-0.518-1.555-0.888s-0.876-0.803-1.221-1.295c-0.346-0.494-0.642-0.962-0.889-1.406
		c-0.739-1.283-1.32-2.603-1.738-3.959c-0.42-1.356-0.753-2.799-0.999-4.329c-0.248-1.824-0.42-3.589-0.518-5.291
		c-0.1-1.702-0.173-3.416-0.222-5.143c-1.135,1.184-2.208,2.319-3.219,3.404c-1.012,1.085-2.085,2.171-3.219,3.256
		c-1.628,1.48-3.256,2.886-4.884,4.218c-0.444,0.396-0.962,0.679-1.554,0.851c-0.592,0.173-1.16,0.259-1.702,0.259
		c-1.284,0-2.405-0.32-3.367-0.962c-0.962-0.641-1.764-1.455-2.405-2.442c-0.642-0.986-1.123-2.084-1.443-3.293
		c-0.321-1.208-0.481-2.405-0.481-3.589c0-2.812,0.592-5.352,1.776-7.622c1.184-2.269,2.91-4.316,5.18-6.142
		c1.727-1.431,3.675-1.949,5.846-1.554c1.726,0.296,3.465,0.642,5.217,1.036C290.879,166.424,292.792,166.818,294.864,167.212z
		 M280.212,184.75c0.345,0,0.764-0.159,1.258-0.481c0.492-0.32,0.986-0.69,1.48-1.11c0.492-0.418,0.949-0.838,1.369-1.258
		c0.419-0.419,0.728-0.728,0.925-0.925c0.888-0.937,1.726-1.898,2.516-2.886c0.789-0.986,1.554-1.973,2.294-2.96
		c0.296-0.395,0.357-0.925,0.185-1.591c-0.173-0.666-0.481-1.245-0.925-1.739c-0.444-0.444-0.938-0.69-1.48-0.74
		c-0.543-0.048-1.012,0.05-1.406,0.296c-1.284,0.692-2.442,1.628-3.478,2.812c-0.84,0.988-1.604,1.998-2.294,3.034
		c-0.691,1.036-1.233,2.22-1.628,3.552c-0.148,0.494-0.259,1.048-0.333,1.665c-0.074,0.618,0.037,1.173,0.333,1.665
		C279.274,184.528,279.668,184.75,280.212,184.75z"/>
	<path fill="#FFFFFF" d="M335.416,192.076c-2.023,1.726-4.269,2.91-6.734,3.552c-1.234,0.345-2.516,0.518-3.848,0.518
		c-1.876,0-3.565-0.321-5.07-0.962c-1.505-0.642-2.947-1.678-4.328-3.108c-0.84-0.838-1.419-1.924-1.739-3.256
		c-0.321-1.332-0.507-2.59-0.556-3.774c-0.099-1.924,0.012-3.823,0.334-5.698c0.32-1.874,0.825-3.848,1.517-5.92
		c0.69-2.072,1.528-4.021,2.517-5.846c0.986-1.824,2.17-3.428,3.551-4.81c1.283-1.282,2.676-2.294,4.182-3.034
		c1.504-0.74,3.119-1.11,4.848-1.11c0.986,0,1.961,0.111,2.922,0.333c0.963,0.222,1.887,0.581,2.775,1.073
		c1.283,0.691,2.195,1.58,2.738,2.664c0.543,1.085,0.814,2.319,0.814,3.7c0,1.184-0.42,2.368-1.258,3.552
		c-1.285,1.826-2.838,3.478-4.662,4.958c-2.123,1.678-4.367,3.083-6.734,4.218c-0.889,0.444-1.702,0.84-2.442,1.184
		c-0.739,0.346-1.456,0.642-2.146,0.888c-0.148,0.346-0.297,0.814-0.444,1.406c-0.147,0.592-0.272,1.16-0.37,1.702
		c-0.1,0.642-0.174,1.284-0.223,1.924c-0.049,0.642-0.073,1.284-0.073,1.924c-0.05,0.839,0.159,1.505,0.629,1.998
		c0.468,0.494,1.048,0.74,1.739,0.74c0.838,0,1.701-0.209,2.59-0.629c0.888-0.418,1.676-0.851,2.368-1.295
		c3.452-2.269,6.782-4.785,9.989-7.548c0.246-0.247,0.469-0.456,0.666-0.629c0.197-0.172,0.395-0.357,0.592-0.555
		c0.148-0.099,0.334-0.234,0.557-0.407c0.221-0.172,0.467-0.308,0.738-0.407c0.271-0.099,0.557-0.135,0.852-0.111
		c0.297,0.025,0.566,0.161,0.814,0.407c0.295,0.346,0.455,0.74,0.48,1.184c0.025,0.444-0.012,0.864-0.111,1.258
		c-0.146,0.938-0.492,1.801-1.035,2.59c-0.789,1.184-1.789,2.479-2.998,3.885C337.646,190.041,336.5,191.188,335.416,192.076z
		 M332.529,164.992c-0.248-0.197-0.555-0.271-0.925-0.222c-0.37,0.05-0.703,0.148-0.999,0.296c-0.988,0.494-1.9,1.16-2.738,1.998
		c-0.543,0.543-1.036,1.147-1.48,1.813c-0.443,0.666-0.839,1.321-1.184,1.961c-0.148,0.296-0.284,0.617-0.406,0.962
		c-0.125,0.346-0.211,0.666-0.26,0.962c0.592,0.1,1.158,0.025,1.702-0.222c0.888-0.344,1.64-0.714,2.257-1.11
		c0.617-0.394,1.221-0.863,1.813-1.406c0.493-0.493,0.95-1.023,1.369-1.591c0.419-0.566,0.777-1.221,1.074-1.961
		c0.098-0.246,0.121-0.53,0.074-0.851C332.775,165.301,332.678,165.092,332.529,164.992z"/>
	<path fill="#FFFFFF" d="M372.34,164.252c-0.396,0.248-0.802,0.507-1.221,0.777c-0.42,0.271-0.803,0.531-1.146,0.777
		c-0.692,0.444-1.493,0.901-2.405,1.369c-0.914,0.469-1.641,0.703-2.184,0.703c-0.443,0-0.888-0.085-1.332-0.259
		c-0.443-0.172-0.789-0.456-1.035-0.851c-0.494-0.789-0.74-1.603-0.74-2.442c0-0.986,0.37-1.924,1.109-2.812
		c1.431-1.875,2.874-3.737,4.329-5.587s2.897-3.688,4.329-5.513c0.986-1.282,2.134-2.417,3.441-3.404
		c1.307-0.986,2.823-1.48,4.551-1.48c2.022,0,3.946,1.16,5.772,3.478c0.492,0.642,0.825,1.308,0.999,1.998
		c0.172,0.691,0.259,1.332,0.259,1.924c0,1.53-0.223,3.01-0.666,4.44c-0.444,1.432-0.938,2.862-1.48,4.292
		c-0.642,1.678-1.172,3.245-1.591,4.699c-0.42,1.456-0.876,3.096-1.369,4.921c-0.691,2.664-1.345,5.254-1.961,7.77
		c-0.617,2.516-1.271,5.082-1.961,7.696c-0.247,0.839-0.493,1.728-0.74,2.664c-0.247,0.938-0.567,1.826-0.962,2.664
		c-0.296,0.69-0.703,1.184-1.221,1.48S374.066,194,373.524,194c-0.592,0-1.222-0.21-1.888-0.629
		c-0.666-0.419-1.146-0.95-1.442-1.591c-0.248-0.542-0.42-1.11-0.519-1.702c-0.099-0.592-0.147-1.159-0.147-1.702
		c0-2.22,0.111-4.415,0.333-6.586c0.222-2.17,0.48-4.366,0.776-6.586c0.247-1.578,0.493-3.243,0.74-4.995
		C371.624,168.458,371.944,166.472,372.34,164.252z"/>
	<path fill="#FFFFFF" d="M391.135,179.422c0-4.193,0.566-8.263,1.702-12.21c1.135-3.946,2.787-7.77,4.958-11.47
		c0.789-1.332,1.578-2.516,2.368-3.552c0.788-1.036,1.727-2.072,2.812-3.108c1.233-1.134,2.614-2.022,4.145-2.664
		c1.528-0.64,3.059-0.962,4.588-0.962c3.798-0.098,6.29,1.998,7.474,6.29c0.148,0.543-0.013,1.062-0.48,1.554
		c-0.47,0.494-0.975,0.691-1.518,0.592c-0.247-0.098-0.518-0.172-0.813-0.222c-0.296-0.049-0.567-0.148-0.814-0.296
		c-0.789-0.444-1.628-0.616-2.516-0.518c-0.544,0.05-1.062,0.174-1.554,0.37c-0.494,0.198-0.938,0.444-1.332,0.74
		c-0.691,0.543-1.295,1.085-1.813,1.628c-0.518,0.543-1.049,1.184-1.591,1.924c-1.332,1.826-2.541,3.824-3.626,5.994
		c-0.346,0.592-0.654,1.221-0.925,1.887c-0.271,0.666-0.481,1.344-0.629,2.035c0.542,0.05,1.134,0.111,1.775,0.185
		c0.641,0.074,1.307,0.161,1.998,0.259c3.503,0.592,6.364,2.023,8.584,4.292c1.185,1.283,2.109,2.603,2.775,3.959
		c0.666,1.357,0.999,2.8,0.999,4.329c0,1.432-0.259,2.738-0.777,3.922c-0.518,1.184-1.221,2.245-2.108,3.182
		c-0.79,0.839-1.715,1.604-2.775,2.294c-1.062,0.692-2.159,1.295-3.293,1.813c-1.136,0.518-2.257,0.913-3.367,1.184
		c-1.109,0.271-2.135,0.382-3.071,0.333c-1.431,0-2.837-0.271-4.218-0.814c-1.382-0.542-2.516-1.332-3.403-2.368
		c-1.284-1.48-2.196-3.182-2.738-5.106C391.405,182.974,391.135,181.149,391.135,179.422z M401.347,185.712
		c0.889,0,1.838-0.197,2.85-0.592c1.011-0.394,1.861-0.962,2.553-1.702c1.282-1.282,1.924-2.712,1.924-4.292
		c0-0.838-0.247-1.565-0.74-2.183c-0.493-0.617-1.109-1.122-1.85-1.517c-0.987-0.542-2.122-0.925-3.404-1.147
		c-1.283-0.222-2.344-0.308-3.182-0.259c-0.148,0.494-0.296,1.073-0.444,1.739c-0.147,0.666-0.296,1.345-0.443,2.035
		c-0.148,0.692-0.26,1.382-0.333,2.072c-0.074,0.691-0.111,1.283-0.111,1.776c0,0.888,0.246,1.789,0.74,2.701
		C399.397,185.257,400.212,185.712,401.347,185.712z"/>
	<path fill="#FFFFFF" d="M477.343,176.758c-0.493,0.987-0.987,1.974-1.479,2.96c-0.494,0.987-0.988,1.998-1.48,3.034
		c-0.346,0.692-0.567,1.469-0.666,2.331c-0.1,0.864,0.123,1.567,0.666,2.109c0.345,0.346,0.752,0.555,1.221,0.629
		c0.469,0.074,0.899,0.111,1.295,0.111c0.937,0,1.851-0.085,2.738-0.259c0.888-0.172,1.801-0.407,2.738-0.703
		c0.69-0.246,1.406-0.456,2.146-0.629c0.74-0.172,1.307-0.037,1.702,0.407c0.246,0.396,0.357,0.851,0.333,1.369
		c-0.025,0.518-0.259,0.975-0.703,1.369c-1.382,1.135-2.8,2.011-4.255,2.627s-3.097,0.949-4.921,0.999
		c-1.728,0.048-3.306-0.272-4.736-0.962c-1.431-0.69-2.713-1.603-3.848-2.738c-0.543-0.542-1.099-1.245-1.665-2.109
		c-0.567-0.863-1.049-1.739-1.443-2.627c-0.691,0.543-1.221,0.975-1.591,1.295c-0.37,0.321-0.802,0.654-1.295,0.999
		c-0.839,0.592-1.678,1.16-2.516,1.702c-0.84,0.543-1.728,1.061-2.664,1.554c-1.53,0.79-3.034,1.197-4.514,1.221
		c-1.48,0.025-2.937-0.58-4.366-1.813c-1.432-1.282-2.233-2.676-2.405-4.181c-0.174-1.504-0.013-3.045,0.481-4.625
		c0.788-2.318,1.813-4.464,3.07-6.438c1.259-1.973,2.676-3.749,4.255-5.328c1.776-1.776,3.712-3.304,5.81-4.588
		c2.096-1.282,4.403-1.973,6.919-2.072c1.282,0,2.49,0.124,3.626,0.37c1.134,0.248,2.072,0.716,2.812,1.406
		c0.74,0.642,1.209,1.456,1.406,2.442c0.196,0.987,0.616,1.85,1.258,2.59c0.641,0.74,1.259,1.53,1.851,2.368
		c0.69,1.135,1.011,2.061,0.962,2.775C478.033,175.069,477.787,175.87,477.343,176.758z M453.145,185.046
		c0.345,0.197,0.703,0.222,1.073,0.074s0.678-0.296,0.925-0.444c1.332-0.838,2.602-1.739,3.812-2.701
		c1.208-0.962,2.379-1.985,3.515-3.071c0.986-0.937,1.936-1.875,2.849-2.812c0.913-0.937,1.813-1.898,2.701-2.886
		c0.493-0.493,0.814-1.023,0.962-1.591c0.148-0.566,0-1.073-0.443-1.517c-0.592-0.74-1.53-0.838-2.813-0.296
		c-2.714,1.184-5.105,2.788-7.178,4.81c-2.27,2.22-4.17,4.958-5.698,8.214c-0.147,0.296-0.234,0.679-0.259,1.147
		C452.564,184.442,452.749,184.8,453.145,185.046z"/>
	<path fill="#FFFFFF" d="M516.783,182.9c0.641-0.049,1.232-0.099,1.775-0.148c0.543-0.048,1.085-0.074,1.628-0.074
		c1.925,0,3.799,0.173,5.624,0.518c1.825,0.346,3.725,0.938,5.698,1.776c0.592,0.248,1.158,0.543,1.702,0.888
		c0.542,0.346,0.962,0.79,1.258,1.332c0.296,0.543,0.345,1.147,0.148,1.813c-0.198,0.666-0.618,0.999-1.259,0.999
		c-0.888,0.049-1.764,0.049-2.627,0c-0.863-0.049-1.714-0.074-2.553-0.074c-2.121-0.048-4.28,0.074-6.475,0.37
		c-2.196,0.296-4.305,0.888-6.327,1.776c-1.48,0.69-3.034,1.06-4.662,1.11c-2.172,0.049-3.897-0.74-5.18-2.368
		c-0.79-0.937-1.185-1.948-1.185-3.034c0-1.43,0.407-2.836,1.222-4.218c0.813-1.381,1.615-2.664,2.404-3.848
		c1.776-2.713,3.576-5.414,5.402-8.103c1.824-2.688,3.626-5.389,5.402-8.103c0.838-1.282,1.652-2.676,2.441-4.181
		c0.789-1.504,1.185-2.873,1.185-4.107c0-0.542-0.186-1.011-0.556-1.406c-0.37-0.395-0.851-0.592-1.442-0.592
		c-0.79,0-1.493,0.235-2.109,0.703c-0.617,0.469-1.173,0.999-1.665,1.591c-0.642,0.79-1.209,1.752-1.702,2.886
		c-0.147,0.346-0.396,0.642-0.74,0.888c-0.346,0.248-0.765,0.37-1.258,0.37c-0.443,0-0.851-0.111-1.221-0.333
		c-0.37-0.222-0.604-0.505-0.703-0.851c-0.147-0.444-0.247-0.925-0.296-1.443c-0.05-0.518-0.05-1.023,0-1.517
		c0.099-1.43,0.419-2.75,0.962-3.959c0.542-1.208,1.307-2.257,2.294-3.145c1.282-1.134,2.639-1.911,4.07-2.331
		c1.43-0.418,2.935-0.579,4.514-0.481c1.185,0,2.318,0.235,3.404,0.703c1.084,0.469,2.022,1.099,2.812,1.887
		c0.839,0.839,1.468,1.789,1.888,2.849c0.418,1.062,0.629,2.159,0.629,3.293c0,0.79-0.124,1.617-0.37,2.479
		c-0.248,0.864-0.567,1.715-0.962,2.553c-1.728,3.306-3.504,6.538-5.328,9.694c-1.826,3.158-3.7,6.29-5.624,9.398
		c-0.396,0.691-0.753,1.345-1.073,1.961C517.608,181.039,517.227,181.864,516.783,182.9z"/>
	<path fill="#FFFFFF" d="M562.366,186.6c-1.775,1.924-3.699,3.466-5.771,4.625s-4.366,1.739-6.882,1.739
		c-2.566,0-4.786-0.518-6.66-1.554c-1.876-1.036-3.231-2.738-4.07-5.106c-0.396-1.134-0.642-2.244-0.74-3.33
		c-0.099-1.084-0.099-2.194,0-3.33c0.444-4.488,1.505-8.756,3.183-12.802c1.677-4.044,3.773-7.918,6.29-11.618
		c0.395-0.592,0.813-1.134,1.258-1.628c0.444-0.493,0.912-0.962,1.406-1.406c1.282-1.282,2.836-2.342,4.662-3.182
		c1.824-0.838,3.626-1.258,5.401-1.258c2.022,0,3.712,0.555,5.069,1.665c1.356,1.11,2.442,2.504,3.256,4.181
		c0.814,1.678,1.381,3.503,1.702,5.476c0.32,1.974,0.48,3.799,0.48,5.476c0,4.243-0.776,8.276-2.33,12.099
		C567.065,180.471,564.98,183.788,562.366,186.6z M559.703,155.89c-0.938-0.148-1.802,0.087-2.591,0.703
		c-0.789,0.617-1.479,1.345-2.071,2.183c-0.938,1.283-1.765,2.528-2.479,3.737c-0.716,1.209-1.443,2.579-2.183,4.107
		c-1.234,2.516-2.257,5.069-3.071,7.659c-0.814,2.59-1.221,4.995-1.221,7.215c0,1.036,0.233,1.924,0.703,2.664
		c0.468,0.74,1.047,1.11,1.738,1.11c1.431,0,2.564-0.381,3.404-1.147c0.838-0.764,1.603-1.565,2.294-2.405
		c1.628-2.072,3.034-4.612,4.218-7.622c0.839-2.072,1.518-4.156,2.035-6.253c0.519-2.096,0.899-4.229,1.147-6.401
		c0.048-0.492,0.073-1.047,0.073-1.665c0-0.617-0.073-1.196-0.222-1.739c-0.147-0.542-0.358-1.011-0.629-1.406
		C560.578,156.236,560.195,155.99,559.703,155.89z"/>
	<path fill="#FFFFFF" d="M586.935,168.47c1.134-0.049,2.281-0.098,3.441-0.148c1.158-0.049,2.157-0.123,2.996-0.222
		c0.69-0.098,1.455-0.196,2.295-0.296c0.838-0.098,1.701-0.222,2.59-0.37c0.196-0.641,0.357-1.221,0.48-1.739
		s0.308-1.171,0.556-1.961c0.986-3.453,2.12-6.758,3.403-9.916c0.543-1.233,1.11-2.442,1.702-3.626
		c0.592-1.184,1.258-2.294,1.998-3.33c0.542-0.789,1.319-1.282,2.331-1.48c1.011-0.197,2.06-0.099,3.145,0.296
		c0.986,0.296,1.689,0.839,2.109,1.628c0.419,0.79,0.432,1.604,0.037,2.442c-0.543,1.382-1.11,2.751-1.702,4.107
		c-0.592,1.357-1.159,2.727-1.702,4.107c-0.543,1.233-1.062,2.627-1.554,4.181c-0.494,1.554-0.888,2.949-1.184,4.181
		c0.689,0.1,1.195,0.173,1.517,0.222c0.32,0.049,0.728,0.173,1.221,0.37c0.937,0.396,1.406,1.136,1.406,2.22
		c0,1.085-0.42,1.974-1.258,2.664c-0.396,0.346-0.766,0.617-1.11,0.814c-0.346,0.198-0.789,0.419-1.332,0.666
		c-0.543,0.248-0.975,0.419-1.295,0.518c-0.321,0.099-0.753,0.222-1.295,0.37c-0.147,0.396-0.259,0.729-0.333,0.999
		c-0.074,0.272-0.16,0.629-0.259,1.073c-0.248,1.234-0.407,2.344-0.481,3.33c-0.073,0.987-0.16,2.097-0.259,3.33
		c-0.147,2.072-0.074,4.193,0.222,6.364c0.099,0.396,0.136,0.814,0.111,1.258c-0.025,0.444-0.16,0.814-0.407,1.11
		c-0.346,0.346-0.839,0.518-1.479,0.518c-0.987,0-1.924-0.493-2.813-1.48c-0.739-0.789-1.345-1.652-1.813-2.59
		c-0.47-0.937-0.803-1.726-0.999-2.368c-0.296-0.937-0.507-1.899-0.629-2.886c-0.124-0.986-0.211-1.973-0.259-2.96
		c-0.05-0.789-0.063-1.565-0.037-2.331c0.024-0.764,0.085-1.542,0.185-2.331c-0.74,0.05-1.542,0.087-2.405,0.111
		c-0.863,0.026-2.034,0.063-3.515,0.111c-1.036,0.05-2.023,0.074-2.96,0.074c-0.938,0-1.875,0-2.813,0
		c-0.247,0.444-0.432,0.864-0.555,1.258c-0.124,0.396-0.234,0.79-0.333,1.184c-0.396,1.431-0.753,2.886-1.073,4.366
		c-0.321,1.48-0.555,3.01-0.702,4.588c-0.1,1.136-0.1,2.22,0,3.256c0.098,1.036,0.492,2.022,1.184,2.96
		c0.246,0.344,0.566,0.764,0.962,1.258c0.148,0.148,0.246,0.382,0.296,0.703c0.049,0.32-0.025,0.629-0.222,0.925
		c-0.198,0.345-0.507,0.604-0.925,0.777c-0.42,0.172-0.852,0.233-1.295,0.185c-1.036-0.049-2.098-0.518-3.183-1.406
		c-1.036-0.839-1.85-1.641-2.441-2.405c-0.593-0.766-1.11-1.764-1.555-2.997c-0.296-0.838-0.48-1.665-0.555-2.479
		s-0.087-1.591-0.037-2.331c0.049-2.121,0.345-4.292,0.888-6.512c1.135-4.933,2.454-9.706,3.959-14.319
		c1.505-4.612,3.22-9.237,5.144-13.875c0.542-1.232,1.121-2.417,1.739-3.552c0.616-1.134,1.27-2.269,1.961-3.404
		c0.542-0.838,1.232-1.578,2.071-2.22c0.839-0.64,1.801-1.01,2.887-1.11c0.542-0.048,1.084,0,1.628,0.148
		c0.542,0.148,1.01,0.37,1.405,0.666c0.593,0.396,0.863,0.876,0.814,1.443c-0.05,0.568-0.198,1.123-0.444,1.665
		c-1.431,2.812-2.737,5.613-3.922,8.399c-1.184,2.788-2.294,5.637-3.33,8.547c-0.396,1.135-0.766,2.257-1.109,3.367
		C587.699,165.695,587.329,166.99,586.935,168.47z"/>
	<path fill="#FFFFFF" d="M618.236,184.38c-0.05-2.318-0.063-4.612-0.037-6.882c0.024-2.269,0.062-4.514,0.111-6.734
		c0.049-1.875,0.209-3.737,0.481-5.587c0.271-1.85,0.727-3.638,1.368-5.365c0.395-1.134,0.889-2.072,1.48-2.812
		c0.592-0.74,1.307-1.38,2.146-1.924c1.48-1.036,3.133-1.554,4.958-1.554c1.776,0,3.453,0.47,5.032,1.406
		c1.135,0.642,1.652,1.58,1.555,2.812c0,0.74-0.297,1.406-0.889,1.998c-0.74,0.74-1.554,1.332-2.441,1.776
		c-1.382,0.691-2.356,1.591-2.924,2.701c-0.567,1.11-0.975,2.356-1.221,3.737c-0.197,1.086-0.321,2.159-0.37,3.219
		c-0.05,1.061-0.073,2.134-0.073,3.219c0,1.284,0.023,2.516,0.073,3.7c0.049,1.184,0.123,2.393,0.223,3.626
		c1.528-0.296,2.997-0.567,4.402-0.814c1.406-0.247,2.824-0.493,4.255-0.74c1.185-0.196,2.343-0.345,3.479-0.444
		c1.134-0.098,2.294-0.148,3.478-0.148c0.789,0,1.455,0.124,1.998,0.37c0.543,0.248,0.839,0.716,0.889,1.406
		c0.048,0.592-0.174,1.036-0.666,1.332c-0.494,0.296-1.012,0.568-1.555,0.814c-1.678,0.444-3.343,0.914-4.995,1.406
		c-1.653,0.494-3.293,0.962-4.921,1.406c-0.839,0.248-1.813,0.531-2.923,0.851c-1.109,0.321-2.158,0.629-3.145,0.925
		c-0.05,0.938-0.074,1.838-0.074,2.701c0,0.864-0.025,1.788-0.074,2.775c-0.05,1.38-0.147,2.824-0.296,4.329
		c-0.147,1.504-0.37,2.972-0.666,4.403c-0.296,1.48-0.716,2.997-1.258,4.551c-0.544,1.554-1.233,2.923-2.072,4.107
		c-0.592,0.838-1.283,1.517-2.072,2.035c-0.789,0.518-1.678,0.826-2.664,0.925c-0.987,0-1.997-0.161-3.033-0.481
		c-1.036-0.322-2.048-0.729-3.034-1.221c-0.987-0.494-1.911-1.049-2.775-1.665c-0.862-0.617-1.591-1.221-2.183-1.813
		c-1.232-1.233-2.121-2.516-2.664-3.848c-0.542-1.332-0.814-2.713-0.814-4.144c0-2.616,0.679-4.995,2.035-7.141
		c1.357-2.146,3.047-3.86,5.069-5.143c1.134-0.74,2.257-1.43,3.367-2.072C615.905,185.738,617.053,185.072,618.236,184.38z
		 M618.236,192.372c-0.296,0.049-0.642,0.148-1.036,0.296c-0.396,0.148-0.715,0.296-0.962,0.444
		c-0.543,0.344-1.072,0.703-1.591,1.073c-0.518,0.37-0.999,0.801-1.442,1.295c-1.086,1.233-1.652,2.442-1.702,3.626
		c-0.049,0.888,0.123,1.899,0.518,3.034c0.395,0.888,0.912,1.8,1.554,2.738c0.197,0.247,0.444,0.469,0.74,0.666
		c0.296,0.197,0.616,0.296,0.962,0.296c0.69,0,1.232-0.358,1.628-1.073c0.395-0.716,0.69-1.566,0.889-2.553
		c0.196-0.938,0.344-1.913,0.443-2.923c0.099-1.012,0.148-1.863,0.148-2.553c0-1.136-0.013-2.011-0.037-2.627
		C618.322,193.494,618.285,192.915,618.236,192.372z"/>
	<path fill="#FFFFFF" d="M656.346,192.076c-0.05,0.592-0.296,1.184-0.74,1.776c-0.444,0.592-1.086,1.084-1.924,1.48
		c-1.678,0.74-3.231,0.518-4.662-0.666c-0.396-0.346-0.729-0.74-0.999-1.184c-0.271-0.444-0.53-0.888-0.777-1.332
		c-0.443-0.888-0.629-1.776-0.555-2.664c0.074-0.888,0.407-1.603,0.999-2.146c0.641-0.542,1.344-0.949,2.109-1.221
		c0.764-0.271,1.565-0.233,2.404,0.111c1.48,0.494,2.564,1.197,3.256,2.109C656.147,189.252,656.443,190.498,656.346,192.076z"/>
</g>
</svg>
