<?xml version="1.0" encoding="UTF-8"?>
<!DOCTYPE svg PUBLIC "-//W3C//DTD SVG 1.1//EN" "http://www.w3.org/Graphics/SVG/1.1/DTD/svg11.dtd">
<!-- Creator: CorelDRAW X7 -->
<svg xmlns="http://www.w3.org/2000/svg" xml:space="preserve" width="72.2616mm" height="188.174mm" version="1.1" style="shape-rendering:geometricPrecision; text-rendering:geometricPrecision; image-rendering:optimizeQuality; fill-rule:evenodd; clip-rule:evenodd"
viewBox="0 0 303 788"
 xmlns:xlink="http://www.w3.org/1999/xlink">
 <defs>
  <style type="text/css">
   <![CDATA[
    .fil0 {fill:#201E1E}
    .fil1 {fill:white}
   ]]>
  </style>
 </defs>
 <g id="Capa_x0020_1">
  <metadata id="CorelCorpID_0Corel-Layer"/>
  <path class="fil0" d="M0 761l0 -735c37,-40 63,-37 65,32l65 0 -7 9 126 88 11 54 32 0 11 238 -11 206 -12 32 -143 103 -137 -27z"/>
  <path class="fil1" d="M139 567c-81,-117 -96,-129 -96,-173 0,-59 48,-107 107,-107 59,0 107,48 107,107 0,44 -15,56 -96,173 -5,8 -17,8 -22,0zm11 -128c25,0 45,-20 45,-45 0,-24 -20,-44 -45,-44 -25,0 -45,20 -45,44 0,25 20,45 45,45z"/>
 </g>
</svg>
