<?xml version="1.0" encoding="UTF-8"?>
<!DOCTYPE svg PUBLIC "-//W3C//DTD SVG 1.1//EN" "http://www.w3.org/Graphics/SVG/1.1/DTD/svg11.dtd">
<!-- Creator: CorelDRAW X7 -->
<svg xmlns="http://www.w3.org/2000/svg" xml:space="preserve" width="384.095mm" height="84.3802mm" version="1.1" style="shape-rendering:geometricPrecision; text-rendering:geometricPrecision; image-rendering:optimizeQuality; fill-rule:evenodd; clip-rule:evenodd"
viewBox="0 0 6012 1321"
 xmlns:xlink="http://www.w3.org/1999/xlink">
 <defs>
  <style type="text/css">
   <![CDATA[
    .fil0 {fill:#201E1E}
    .fil1 {fill:white}
    .fil2 {fill:white;fill-rule:nonzero}
   ]]>
  </style>
 </defs>
 <g id="Capa_x0020_1">
  <metadata id="CorelCorpID_0Corel-Layer"/>
  <path class="fil0" d="M1131 1274l0 -1231c-140,-66 -237,-62 -243,55l-242 0 27 15 -471 148 -42 90 -120 0 -40 398 40 344 46 55 534 173 511 -47 0 0z"/>
  <rect class="fil0" x="1096" y="43" width="4916" height="1224"/>
  <path class="fil1" d="M882 436c-70,-70 -162,-109 -261,-109 -203,0 -369,166 -369,369 0,66 17,129 49,185l-52 191 195 -51c54,29 115,45 177,45l0 0c203,0 373,-166 373,-369 0,-99 -42,-192 -112,-261l0 0zm-261 568c-55,0 -109,-15 -156,-43l-11 -7 -116 31 30 -114 -7 -11c-31,-49 -47,-105 -47,-164 0,-169 138,-306 307,-306 82,0 159,32 217,90 58,58 94,135 93,217 0,169 -141,307 -310,307l0 0zm168 -230c-9,-5 -54,-27 -63,-30 -8,-3 -14,-5 -20,5 -7,9 -24,29 -30,36 -5,6 -11,7 -20,2 -54,-27 -89,-48 -125,-110 -10,-16 9,-15 27,-50 3,-6 1,-11 -1,-16 -2,-5 -21,-50 -28,-69 -8,-18 -16,-15 -21,-15 -6,-1 -12,-1 -18,-1 -6,0 -16,3 -24,12 -9,9 -33,31 -33,77 0,45 33,89 38,95 5,6 65,99 158,139 58,26 81,28 110,24 18,-3 55,-23 63,-44 7,-22 7,-40 5,-44 -2,-4 -8,-7 -18,-11l0 0z"/>
  <g id="_715748352">
   <path class="fil2" d="M1657 865c-19,21 -40,37 -62,50 -22,12 -46,18 -73,18 -27,0 -51,-5 -71,-16 -20,-12 -35,-30 -44,-55 -4,-12 -7,-24 -8,-36 -1,-11 -1,-23 0,-35 5,-48 17,-94 34,-137 18,-43 41,-84 68,-124 4,-6 8,-12 13,-17 5,-5 10,-10 15,-15 14,-14 30,-25 50,-34 19,-9 38,-14 57,-14 22,0 40,6 55,18 14,12 26,27 34,45 9,18 15,37 18,58 4,21 6,41 6,59 0,45 -9,88 -25,129 -17,41 -39,76 -67,106zm-28 -328c-10,-1 -20,1 -28,8 -9,6 -16,14 -22,23 -10,14 -19,27 -27,40 -7,13 -15,28 -23,44 -13,27 -24,54 -33,82 -8,27 -13,53 -13,77 0,11 3,20 8,28 5,8 11,12 18,12 16,0 28,-4 37,-12 9,-8 17,-17 24,-26 17,-22 32,-49 45,-81 9,-22 16,-45 22,-67 5,-22 9,-45 12,-68 1,-6 1,-12 1,-18 0,-7 -1,-13 -3,-19 -1,-6 -3,-11 -6,-15 -3,-4 -7,-7 -12,-8zm347 -30c-3,-5 -5,-8 -9,-9 -3,-1 -7,-1 -13,-1 -6,1 -14,3 -24,9 -11,5 -20,10 -29,14 -8,4 -16,6 -24,5 -9,-1 -17,-6 -24,-15 -5,-6 -8,-15 -8,-24 0,-7 2,-15 6,-23 4,-8 8,-14 14,-19 17,-14 35,-24 54,-31 19,-7 38,-11 58,-11 15,0 31,4 48,11 17,6 31,16 44,28 9,9 16,20 20,31 4,12 6,23 6,35 -1,20 -7,40 -17,59 -11,19 -23,36 -37,50 -4,4 -8,8 -12,11 -4,3 -9,8 -13,14 6,6 12,12 17,18 5,5 11,11 16,17 11,13 20,26 24,39 5,13 7,27 7,41 0,11 -1,22 -4,33 -3,12 -7,23 -13,34 -20,38 -46,69 -79,93 -33,23 -70,37 -111,41 -19,1 -37,0 -56,-6 -5,-1 -10,-5 -15,-11 -4,-6 -6,-12 -5,-19 1,-13 5,-22 12,-27 6,-4 14,-7 23,-8 35,-5 66,-19 90,-43 17,-16 30,-35 39,-58 4,-9 6,-18 7,-26 1,-9 0,-18 -1,-28 -1,-8 -4,-15 -9,-21 -6,-5 -13,-9 -21,-10 -7,-1 -13,-2 -19,-2 -7,0 -13,-1 -19,-2 -6,-1 -11,-3 -16,-7 -5,-3 -9,-8 -12,-14 -3,-8 -3,-14 -2,-20 2,-6 5,-10 10,-14 4,-3 10,-9 19,-17 8,-8 17,-17 27,-27 7,-8 15,-16 22,-24 7,-9 13,-18 18,-26 5,-8 9,-16 12,-23 2,-7 2,-13 -1,-17zm340 282c-10,2 -21,3 -33,4 -12,1 -23,2 -32,2 -23,-1 -42,-8 -58,-22 -12,-11 -19,-23 -23,-37 -3,-13 -4,-26 -4,-40 1,-27 6,-53 15,-78 10,-32 22,-62 36,-92 13,-30 28,-59 44,-88 4,-8 10,-14 15,-19 6,-5 13,-7 22,-7 7,0 14,2 20,6 6,4 11,8 15,12 10,9 16,20 18,32 3,12 2,24 -3,36 -10,25 -20,50 -29,74 -10,24 -20,49 -31,74 -3,8 -6,17 -8,26 -2,12 3,19 18,20 9,1 17,1 26,0 7,0 14,-1 22,-3 3,-13 6,-25 9,-38 3,-13 6,-25 8,-37 2,-7 4,-15 6,-22 2,-7 4,-14 8,-21 2,-6 6,-12 11,-16 9,-9 18,-12 28,-11 14,0 26,5 36,13 7,6 12,14 15,21 3,8 4,16 3,24 -2,9 -4,18 -6,27 -2,10 -4,19 -7,28 -1,5 -2,11 -3,16 0,5 -1,10 -2,14 4,5 8,9 12,13 3,4 7,8 11,14 4,4 7,8 11,13 3,5 4,11 3,17 -1,7 -5,13 -11,18 -6,4 -12,7 -18,10 -5,2 -9,3 -15,5 -5,2 -10,4 -15,6 -1,3 -2,7 -3,11 -2,4 -3,8 -5,14 -7,22 -14,44 -21,66 -7,21 -14,43 -21,65 -5,16 -11,31 -18,44 -3,6 -6,11 -10,15 -4,3 -9,5 -16,6 -14,2 -24,-3 -31,-16 -6,-9 -9,-19 -10,-30 -1,-11 -1,-23 0,-34 2,-13 4,-27 5,-40 2,-13 4,-27 7,-41 1,-7 2,-15 4,-24 1,-8 3,-18 5,-30zm395 0c-10,2 -21,3 -33,4 -12,1 -23,2 -32,2 -23,-1 -42,-8 -58,-22 -12,-11 -19,-23 -23,-37 -3,-13 -4,-26 -4,-40 1,-27 6,-53 15,-78 10,-32 22,-62 36,-92 13,-30 28,-59 44,-88 4,-8 9,-14 15,-19 6,-5 13,-7 22,-7 7,0 14,2 20,6 6,4 11,8 15,12 10,9 16,20 18,32 3,12 2,24 -3,36 -10,25 -20,50 -29,74 -10,24 -20,49 -31,74 -3,8 -6,17 -8,26 -2,12 3,19 18,20 9,1 17,1 26,0 7,0 14,-1 22,-3 3,-13 6,-25 9,-38 3,-13 6,-25 8,-37 2,-7 4,-15 6,-22 2,-7 4,-14 8,-21 2,-6 6,-12 11,-16 9,-9 18,-12 28,-11 14,0 26,5 36,13 6,6 12,14 15,21 3,8 4,16 3,24 -2,9 -4,18 -6,27 -2,10 -4,19 -7,28 -1,5 -2,11 -3,16 0,5 -1,10 -2,14 4,5 8,9 12,13 3,4 7,8 11,14 4,4 7,8 11,13 3,5 4,11 3,17 -1,7 -5,13 -11,18 -6,4 -12,7 -18,10 -5,2 -9,3 -15,5 -5,2 -10,4 -15,6 -1,3 -2,7 -3,11 -2,4 -3,8 -5,14 -7,22 -14,44 -21,66 -7,21 -14,43 -21,65 -5,16 -11,31 -18,44 -3,6 -6,11 -10,15 -4,3 -9,5 -16,6 -14,2 -24,-3 -31,-16 -6,-9 -9,-19 -10,-30 -1,-11 -1,-23 0,-34 2,-13 4,-27 5,-40 2,-13 4,-27 7,-41 1,-7 2,-15 4,-24 1,-8 3,-18 5,-30zm354 37c7,-1 13,-1 19,-2 5,0 11,-1 17,-1 21,0 41,2 60,6 20,4 40,10 61,19 6,2 12,6 18,9 6,4 10,9 13,15 4,5 4,12 2,19 -2,7 -7,11 -13,11 -10,0 -19,0 -28,0 -10,-1 -19,-1 -28,-1 -22,-1 -45,1 -69,4 -23,3 -46,9 -67,19 -16,7 -33,11 -50,11 -23,1 -42,-7 -55,-25 -9,-10 -13,-21 -13,-32 0,-15 4,-30 13,-45 9,-15 17,-29 26,-41 19,-29 38,-58 57,-87 20,-28 39,-57 58,-86 9,-14 18,-29 26,-45 8,-16 13,-31 13,-44 0,-6 -2,-11 -6,-15 -4,-4 -9,-6 -16,-6 -8,0 -16,2 -22,7 -7,5 -13,11 -18,17 -7,9 -13,19 -18,31 -2,4 -4,7 -8,10 -4,2 -8,4 -13,4 -5,0 -9,-2 -13,-4 -4,-2 -7,-5 -8,-9 -2,-5 -3,-10 -3,-15 -1,-6 -1,-11 0,-17 1,-15 4,-29 10,-42 6,-13 14,-24 25,-33 13,-13 28,-21 43,-25 15,-5 31,-7 48,-5 13,0 25,2 37,7 11,5 21,12 30,20 9,9 15,19 20,31 4,11 7,23 7,35 0,8 -2,17 -4,26 -3,9 -7,19 -11,27 -18,36 -37,70 -57,104 -19,34 -39,67 -60,100 -4,8 -8,15 -11,21 -4,7 -8,16 -12,27zm626 -37c-9,2 -20,3 -33,4 -12,1 -23,2 -32,2 -22,-1 -42,-8 -57,-22 -12,-11 -20,-23 -23,-37 -3,-13 -5,-26 -4,-40 0,-27 5,-53 14,-78 11,-32 23,-62 36,-92 13,-30 28,-59 45,-88 4,-8 9,-14 15,-19 5,-5 13,-7 21,-7 7,0 14,2 20,6 6,4 11,8 15,12 10,9 16,20 19,32 2,12 1,24 -4,36 -10,25 -19,50 -29,74 -10,24 -20,49 -31,74 -3,8 -5,17 -7,26 -3,12 3,19 17,20 9,1 18,1 26,0 7,0 14,-1 22,-3 3,-13 6,-25 9,-38 3,-13 6,-25 9,-37 1,-7 3,-15 5,-22 2,-7 5,-14 8,-21 3,-6 6,-12 11,-16 9,-9 18,-12 28,-11 14,0 26,5 36,13 7,6 12,14 15,21 4,8 5,16 3,24 -2,9 -4,18 -6,27 -2,10 -4,19 -6,28 -2,5 -2,11 -3,16 -1,5 -2,10 -3,14 5,5 9,9 12,13 4,4 7,8 12,14 3,4 7,8 10,13 3,5 4,11 3,17 -1,7 -5,13 -11,18 -6,4 -12,7 -18,10 -4,2 -9,3 -14,5 -6,2 -11,4 -15,6 -1,3 -3,7 -4,11 -1,4 -3,8 -4,14 -8,22 -15,44 -22,66 -6,21 -14,43 -21,65 -5,16 -10,31 -17,44 -3,6 -7,11 -11,15 -3,3 -9,5 -16,6 -14,2 -24,-3 -31,-16 -6,-9 -9,-19 -10,-30 -1,-11 0,-23 1,-34 1,-13 3,-27 5,-40 2,-13 4,-27 6,-41 1,-7 3,-15 4,-24 1,-8 3,-18 5,-30zm413 -282c-2,-5 -5,-8 -8,-9 -4,-1 -8,-1 -14,-1 -6,1 -14,3 -24,9 -10,5 -20,10 -29,14 -8,4 -16,6 -24,5 -9,-1 -17,-6 -24,-15 -5,-6 -8,-15 -8,-24 0,-7 2,-15 6,-23 4,-8 9,-14 14,-19 17,-14 35,-24 54,-31 19,-7 39,-11 58,-11 15,0 31,4 48,11 17,6 32,16 44,28 9,9 16,20 20,31 4,12 6,23 6,35 -1,20 -6,40 -17,59 -11,19 -23,36 -37,50 -4,4 -8,8 -12,11 -4,3 -9,8 -13,14 6,6 12,12 17,18 5,5 11,11 16,17 12,13 20,26 24,39 5,13 8,27 8,41 0,11 -2,22 -5,33 -3,12 -7,23 -13,34 -20,38 -46,69 -79,93 -33,23 -70,37 -110,41 -19,1 -38,0 -57,-6 -5,-1 -10,-5 -15,-11 -4,-6 -6,-12 -5,-19 1,-13 5,-22 12,-27 7,-4 14,-7 23,-8 35,-5 66,-19 91,-43 16,-16 29,-35 38,-58 4,-9 6,-18 7,-26 1,-9 1,-18 0,-28 -1,-8 -5,-15 -10,-21 -6,-5 -13,-9 -21,-10 -7,-1 -13,-2 -19,-2 -7,0 -13,-1 -18,-2 -7,-1 -12,-3 -17,-7 -5,-3 -9,-8 -12,-14 -2,-8 -3,-14 -1,-20 1,-6 4,-10 9,-14 4,-3 11,-9 19,-17 8,-8 17,-17 27,-27 7,-8 15,-16 22,-24 7,-9 14,-18 19,-26 5,-8 8,-16 11,-23 2,-7 2,-13 -1,-17zm299 319c7,-1 13,-1 19,-2 6,0 11,-1 17,-1 21,0 41,2 60,6 20,4 40,10 61,19 6,2 12,6 18,9 6,4 10,9 14,15 3,5 3,12 1,19 -2,7 -6,11 -13,11 -10,0 -19,0 -28,0 -9,-1 -19,-1 -27,-1 -23,-1 -46,1 -70,4 -23,3 -46,9 -67,19 -16,7 -33,11 -50,11 -23,1 -42,-7 -55,-25 -9,-10 -13,-21 -13,-32 0,-15 4,-30 13,-45 9,-15 17,-29 26,-41 19,-29 38,-58 58,-87 19,-28 38,-57 57,-86 9,-14 18,-29 26,-45 9,-16 13,-31 13,-44 0,-6 -2,-11 -6,-15 -4,-4 -9,-6 -15,-6 -9,0 -16,2 -23,7 -7,5 -12,11 -18,17 -7,9 -13,19 -18,31 -1,4 -4,7 -8,10 -3,2 -8,4 -13,4 -5,0 -9,-2 -13,-4 -4,-2 -7,-5 -8,-9 -1,-5 -2,-10 -3,-15 0,-6 0,-11 0,-17 1,-15 5,-29 10,-42 6,-13 14,-24 25,-33 14,-13 28,-21 43,-25 16,-5 32,-7 48,-5 13,0 25,2 37,7 11,5 21,12 30,20 9,9 15,19 20,31 4,11 7,23 7,35 0,8 -2,17 -4,26 -3,9 -6,19 -11,27 -18,36 -37,70 -56,104 -20,34 -40,67 -60,100 -5,8 -8,15 -12,21 -3,7 -7,16 -12,27zm348 0c7,-1 13,-1 19,-2 6,0 12,-1 18,-1 20,0 40,2 60,6 19,4 39,10 60,19 7,2 13,6 19,9 5,4 10,9 13,15 3,5 4,12 2,19 -3,7 -7,11 -14,11 -9,0 -19,0 -28,0 -9,-1 -18,-1 -27,-1 -23,-1 -46,1 -69,4 -24,3 -46,9 -68,19 -16,7 -32,11 -50,11 -23,1 -41,-7 -55,-25 -8,-10 -12,-21 -12,-32 0,-15 4,-30 13,-45 8,-15 17,-29 25,-41 19,-29 38,-58 58,-87 19,-28 39,-57 58,-86 9,-14 17,-29 26,-45 8,-16 12,-31 12,-44 0,-6 -2,-11 -6,-15 -4,-4 -9,-6 -15,-6 -8,0 -16,2 -23,7 -6,5 -12,11 -17,17 -7,9 -13,19 -19,31 -1,4 -4,7 -7,10 -4,2 -9,4 -14,4 -5,0 -9,-2 -13,-4 -4,-2 -6,-5 -7,-9 -2,-5 -3,-10 -4,-15 0,-6 0,-11 0,-17 2,-15 5,-29 11,-42 6,-13 14,-24 24,-33 14,-13 28,-21 44,-25 15,-5 31,-7 48,-5 12,0 25,2 36,7 12,5 22,12 30,20 9,9 16,19 20,31 5,11 7,23 7,35 0,8 -1,17 -4,26 -3,9 -6,19 -10,27 -19,36 -38,70 -57,104 -20,34 -40,67 -60,100 -4,8 -8,15 -12,21 -3,7 -7,16 -12,27zm304 -65c-12,-7 -22,-14 -31,-20 -9,-6 -18,-12 -28,-19 -3,-2 -6,-6 -9,-10 -3,-4 -5,-8 -7,-13 -2,-7 -1,-15 3,-22 5,-8 11,-11 19,-11 9,1 18,1 27,1 9,0 17,0 26,1 6,1 10,1 15,1 4,0 10,0 16,-1 6,-14 11,-26 16,-36 4,-11 8,-19 10,-25 3,-9 6,-17 9,-23 3,-7 5,-13 7,-19 3,-6 5,-12 7,-18 2,-5 4,-11 6,-18 -10,0 -20,-1 -31,-1 -11,-1 -21,-1 -32,-2 -13,-2 -25,-4 -36,-6 -11,-3 -20,-8 -28,-13 -5,-5 -9,-10 -11,-16 -2,-7 -2,-13 -1,-20 3,-11 9,-16 21,-17 14,-1 28,-2 42,-2 14,-1 28,-1 42,-1 16,0 32,0 47,-2 16,-1 31,-5 45,-13 11,-5 21,-8 32,-8 10,0 19,2 28,7 9,4 18,10 27,17 8,7 13,15 15,25 1,9 -2,17 -9,23 -19,17 -34,35 -46,53 -12,18 -22,38 -32,60 -2,8 -5,16 -8,24 -3,8 -5,16 -7,24 9,1 19,2 30,3 11,1 20,2 28,4 13,2 20,10 20,24 0,8 -2,14 -6,18 -4,5 -8,9 -13,13 -6,4 -12,6 -17,8 -6,2 -13,4 -21,7 -8,3 -17,5 -24,6 -7,2 -16,4 -25,7 -13,14 -22,34 -28,59 -3,11 -5,24 -5,39 -2,13 -2,26 -2,39 1,12 4,24 11,36 3,5 4,11 3,17 -2,6 -5,11 -10,15 -6,4 -12,5 -18,4 -6,-2 -12,-5 -18,-9 -3,-2 -6,-5 -9,-7 -3,-2 -5,-4 -8,-7 -10,-10 -17,-21 -21,-33 -5,-12 -9,-25 -11,-40 -2,-9 -3,-19 -3,-28 0,-10 0,-19 1,-28 1,-7 1,-14 1,-21 0,-8 1,-17 1,-26z"/>
   <path class="fil2" d="M5584 865c-19,21 -40,37 -62,50 -22,12 -46,18 -73,18 -28,0 -51,-5 -71,-16 -20,-12 -35,-30 -44,-55 -4,-12 -7,-24 -8,-36 -1,-11 -1,-23 0,-35 5,-48 16,-94 34,-137 18,-43 41,-84 67,-124 5,-6 9,-12 14,-17 5,-5 10,-10 15,-15 14,-14 30,-25 50,-34 19,-9 38,-14 57,-14 22,0 40,6 54,18 15,12 26,27 35,45 9,18 15,37 18,58 4,21 5,41 5,59 0,45 -8,88 -24,129 -17,41 -39,76 -67,106zm-29 -328c-10,-1 -19,1 -27,8 -9,6 -16,14 -22,23 -10,14 -19,27 -27,40 -7,13 -15,28 -23,44 -13,27 -24,54 -33,82 -9,27 -13,53 -13,77 0,11 3,20 8,28 5,8 11,12 18,12 15,0 27,-4 36,-12 9,-8 18,-17 25,-26 17,-22 32,-49 45,-81 9,-22 16,-45 22,-67 5,-22 9,-45 12,-68 0,-6 1,-12 1,-18 0,-7 -1,-13 -3,-19 -1,-6 -3,-11 -6,-15 -3,-4 -7,-7 -13,-8z"/>
  </g>
 </g>
</svg>
